<svg width="40" height="40" viewBox="0 0 40 40" fill="none" xmlns="http://www.w3.org/2000/svg">
<path d="M36.25 7.5H25C24.0297 7.5 23.0728 7.72591 22.2049 8.15983C21.3371 8.59375 20.5822 9.22377 20 10C19.4178 9.22377 18.6629 8.59375 17.7951 8.15983C16.9272 7.72591 15.9703 7.5 15 7.5H3.75C3.41848 7.5 3.10054 7.6317 2.86612 7.86612C2.6317 8.10054 2.5 8.41848 2.5 8.75V31.25C2.5 31.5815 2.6317 31.8995 2.86612 32.1339C3.10054 32.3683 3.41848 32.5 3.75 32.5H15C15.9946 32.5 16.9484 32.8951 17.6517 33.5983C18.3549 34.3016 18.75 35.2554 18.75 36.25C18.75 36.5815 18.8817 36.8995 19.1161 37.1339C19.3505 37.3683 19.6685 37.5 20 37.5C20.3315 37.5 20.6495 37.3683 20.8839 37.1339C21.1183 36.8995 21.25 36.5815 21.25 36.25C21.25 35.2554 21.6451 34.3016 22.3483 33.5983C23.0516 32.8951 24.0054 32.5 25 32.5H36.25C36.5815 32.5 36.8995 32.3683 37.1339 32.1339C37.3683 31.8995 37.5 31.5815 37.5 31.25V8.75C37.5 8.41848 37.3683 8.10054 37.1339 7.86612C36.8995 7.6317 36.5815 7.5 36.25 7.5ZM15 30H5V10H15C15.9946 10 16.9484 10.3951 17.6517 11.0983C18.3549 11.8016 18.75 12.7554 18.75 13.75V31.25C17.6692 30.4367 16.3527 29.9978 15 30ZM35 30H25C23.6473 29.9978 22.3308 30.4367 21.25 31.25V13.75C21.25 12.7554 21.6451 11.8016 22.3483 11.0983C23.0516 10.3951 24.0054 10 25 10H35V30Z" fill="#343330"/>
</svg>
