<svg width="40" height="40" viewBox="0 0 40 40" fill="none" xmlns="http://www.w3.org/2000/svg">
<path d="M35 16.2502H33.6922C33.3781 12.8359 31.7998 9.66221 29.2667 7.35148C26.7336 5.04075 23.4287 3.75977 20 3.75977C16.5713 3.75977 13.2664 5.04075 10.7333 7.35148C8.20025 9.66221 6.62189 12.8359 6.30781 16.2502H5C4.66848 16.2502 4.35054 16.3819 4.11612 16.6163C3.8817 16.8507 3.75 17.1687 3.75 17.5002C3.75549 20.4729 4.57358 23.3875 6.1158 25.9289C7.65801 28.4702 9.86566 30.5416 12.5 31.919V32.5002C12.5 33.1632 12.7634 33.7991 13.2322 34.268C13.7011 34.7368 14.337 35.0002 15 35.0002H25C25.663 35.0002 26.2989 34.7368 26.7678 34.268C27.2366 33.7991 27.5 33.1632 27.5 32.5002V31.919C30.1343 30.5416 32.342 28.4702 33.8842 25.9289C35.4264 23.3875 36.2445 20.4729 36.25 17.5002C36.25 17.1687 36.1183 16.8507 35.8839 16.6163C35.6495 16.3819 35.3315 16.2502 35 16.2502ZM31.1781 16.2502H23.1437C24.6592 13.9766 26.952 12.3338 29.5922 11.6299C30.4554 13.034 30.997 14.6119 31.1781 16.2502ZM27.1062 8.78614C27.3927 9.02051 27.6672 9.26791 27.9297 9.52833C24.6021 10.6989 21.8524 13.1046 20.25 16.2471H15.6406C16.4219 14.0571 17.8602 12.1618 19.7591 10.82C21.658 9.47815 23.9249 8.75531 26.25 8.7502C26.5359 8.7502 26.8219 8.76426 27.1062 8.78614ZM20 6.2502C21.0031 6.25087 22.0015 6.38592 22.9688 6.65176C20.6132 7.2361 18.4533 8.43104 16.7067 10.1162C14.9601 11.8013 13.6886 13.9171 13.0203 16.2502H8.82187C9.13194 13.5015 10.4427 10.9631 12.5042 9.11886C14.5658 7.2746 17.2339 6.25349 20 6.2502ZM25.7281 30.0002C25.5101 30.1004 25.3255 30.2612 25.1964 30.4635C25.0673 30.6657 24.9991 30.9009 25 31.1408V32.5002H15V31.1408C15.0009 30.9009 14.9327 30.6657 14.8036 30.4635C14.6745 30.2612 14.4899 30.1004 14.2719 30.0002C12.0736 28.9886 10.1801 27.4167 8.78142 25.442C7.38271 23.4674 6.52802 21.1596 6.30313 18.7502H33.6922C33.4677 21.1591 32.6137 23.4665 31.2159 25.4411C29.8181 27.4157 27.9255 28.988 25.7281 30.0002Z" fill="#333232"/>
</svg>
