<svg width="40" height="40" viewBox="0 0 40 40" fill="none" xmlns="http://www.w3.org/2000/svg">
<path d="M33.75 11.2502H28.2687C28.3297 11.1987 28.3922 11.1487 28.4516 11.094C28.9261 10.6724 29.3086 10.1574 29.575 9.58125C29.8414 9.00509 29.9861 8.38016 30 7.74554C30.0205 7.05128 29.8989 6.36015 29.6427 5.71458C29.3865 5.06901 29.001 4.48263 28.5099 3.99142C28.0189 3.50022 27.4326 3.11457 26.7871 2.85814C26.1416 2.6017 25.4505 2.47991 24.7563 2.50023C24.1214 2.5139 23.4961 2.65849 22.9197 2.92493C22.3433 3.19137 21.828 3.57393 21.4062 4.04867C20.8226 4.72506 20.3482 5.48842 20 6.31117C19.6518 5.48842 19.1774 4.72506 18.5938 4.04867C18.172 3.57393 17.6567 3.19137 17.0803 2.92493C16.5039 2.65849 15.8786 2.5139 15.2437 2.50023C14.5495 2.47991 13.8584 2.6017 13.2129 2.85814C12.5674 3.11457 11.9811 3.50022 11.4901 3.99142C10.999 4.48263 10.6135 5.06901 10.3573 5.71458C10.1011 6.36015 9.97947 7.05128 10 7.74554C10.0139 8.38016 10.1586 9.00509 10.425 9.58125C10.6914 10.1574 11.0739 10.6724 11.5484 11.094C11.6078 11.1455 11.6703 11.1955 11.7313 11.2502H6.25C5.58696 11.2502 4.95107 11.5136 4.48223 11.9825C4.01339 12.4513 3.75 13.0872 3.75 13.7502V18.7502C3.75 19.4133 4.01339 20.0492 4.48223 20.518C4.95107 20.9868 5.58696 21.2502 6.25 21.2502V31.2502C6.25 31.9133 6.51339 32.5492 6.98223 33.018C7.45107 33.4868 8.08696 33.7502 8.75 33.7502H31.25C31.913 33.7502 32.5489 33.4868 33.0178 33.018C33.4866 32.5492 33.75 31.9133 33.75 31.2502V21.2502C34.413 21.2502 35.0489 20.9868 35.5178 20.518C35.9866 20.0492 36.25 19.4133 36.25 18.7502V13.7502C36.25 13.0872 35.9866 12.4513 35.5178 11.9825C35.0489 11.5136 34.413 11.2502 33.75 11.2502ZM23.2812 5.70492C23.4792 5.48635 23.7201 5.31107 23.989 5.19007C24.2579 5.06907 24.5489 5.00497 24.8438 5.00179H24.9203C25.2659 5.00395 25.6076 5.07507 25.9253 5.21096C26.243 5.34686 26.5305 5.54482 26.7707 5.79322C27.011 6.04163 27.1992 6.33548 27.3245 6.65758C27.4497 6.97967 27.5094 7.32352 27.5 7.66898C27.4968 7.96382 27.4327 8.25482 27.3117 8.52371C27.1907 8.79259 27.0154 9.03356 26.7969 9.23148C25.3141 10.544 22.8531 11.0065 21.3281 11.169C21.5156 9.51429 22.0312 7.1096 23.2812 5.70492ZM13.2672 5.76117C13.7515 5.27693 14.4073 5.00346 15.0922 5.00023H15.1688C15.4636 5.00341 15.7546 5.06751 16.0235 5.18851C16.2924 5.30951 16.5333 5.48479 16.7313 5.70335C18.0422 7.1846 18.5047 9.64085 18.6672 11.1596C17.1484 11.0034 14.6922 10.5346 13.2109 9.22367C12.9924 9.02575 12.8171 8.78478 12.6961 8.51589C12.5751 8.24701 12.511 7.95601 12.5078 7.66117C12.4981 7.30997 12.5599 6.96047 12.6893 6.63386C12.8188 6.30725 13.0133 6.01035 13.2609 5.76117H13.2672ZM6.25 13.7502H18.75V18.7502H6.25V13.7502ZM8.75 21.2502H18.75V31.2502H8.75V21.2502ZM31.25 31.2502H21.25V21.2502H31.25V31.2502ZM33.75 18.7502H21.25V13.7502H33.75V18.7502Z" fill="#343330"/>
</svg>
