<svg width="40" height="40" viewBox="0 0 40 40" fill="none" xmlns="http://www.w3.org/2000/svg">
<path d="M37.5 20H34.0453L37.4078 11.7187C37.4768 11.5654 37.5141 11.3997 37.5175 11.2316C37.5209 11.0635 37.4904 10.8964 37.4278 10.7404C37.3651 10.5843 37.2717 10.4425 37.153 10.3235C37.0342 10.2044 36.8927 10.1105 36.7369 10.0474C36.581 9.98431 36.414 9.95331 36.2459 9.95625C36.0778 9.95919 35.912 9.99601 35.7585 10.0645C35.6049 10.133 35.4668 10.2318 35.3523 10.355C35.2378 10.4781 35.1493 10.6231 35.0922 10.7812L31.3422 20H24.9031L21.1531 10.7812C21.0594 10.551 20.8993 10.3539 20.693 10.2152C20.4868 10.0764 20.2439 10.0023 19.9953 10.0023C19.7468 10.0023 19.5038 10.0764 19.2976 10.2152C19.0914 10.3539 18.9312 10.551 18.8375 10.7812L15.0875 20H8.65313L4.90312 10.7812C4.77052 10.4863 4.52882 10.2543 4.22878 10.1339C3.92874 10.0134 3.59369 10.0139 3.294 10.1352C2.99431 10.2566 2.75329 10.4893 2.62155 10.7846C2.48982 11.0798 2.47761 11.4146 2.5875 11.7187L5.95 20H2.5C2.16848 20 1.85054 20.1317 1.61612 20.3661C1.3817 20.6005 1.25 20.9184 1.25 21.25C1.25 21.5815 1.3817 21.8994 1.61612 22.1338C1.85054 22.3683 2.16848 22.5 2.5 22.5H6.97031L10.7203 31.7187C10.814 31.9489 10.9742 32.146 11.1804 32.2847C11.3867 32.4235 11.6296 32.4976 11.8781 32.4976C12.1267 32.4976 12.3696 32.4235 12.5758 32.2847C12.7821 32.146 12.9423 31.9489 13.0359 31.7187L16.7859 22.5H23.2297L26.9797 31.7187C27.0734 31.9489 27.2336 32.146 27.4398 32.2847C27.646 32.4235 27.8889 32.4976 28.1375 32.4976C28.3861 32.4976 28.629 32.4235 28.8352 32.2847C29.0414 32.146 29.2016 31.9489 29.2953 31.7187L33.0453 22.5H37.5C37.8315 22.5 38.1495 22.3683 38.3839 22.1338C38.6183 21.8994 38.75 21.5815 38.75 21.25C38.75 20.9184 38.6183 20.6005 38.3839 20.3661C38.1495 20.1317 37.8315 20 37.5 20ZM11.875 27.9296L9.66875 22.5H14.0813L11.875 27.9296ZM17.7937 20L20 14.5718L22.2062 20H17.7937ZM28.125 27.9296L25.9188 22.5H30.3312L28.125 27.9296Z" fill="#343330"/>
</svg>
