<svg width="40" height="41" viewBox="0 0 40 41" fill="none" xmlns="http://www.w3.org/2000/svg">
<path d="M33.75 9.25H27.5V8C27.5 7.00544 27.1049 6.05161 26.4017 5.34835C25.6984 4.64509 24.7446 4.25 23.75 4.25H16.25C15.2554 4.25 14.3016 4.64509 13.5983 5.34835C12.8951 6.05161 12.5 7.00544 12.5 8V9.25H6.25C5.58696 9.25 4.95107 9.51339 4.48223 9.98223C4.01339 10.4511 3.75 11.087 3.75 11.75V31.75C3.75 32.413 4.01339 33.0489 4.48223 33.5178C4.95107 33.9866 5.58696 34.25 6.25 34.25H33.75C34.413 34.25 35.0489 33.9866 35.5178 33.5178C35.9866 33.0489 36.25 32.413 36.25 31.75V11.75C36.25 11.087 35.9866 10.4511 35.5178 9.98223C35.0489 9.51339 34.413 9.25 33.75 9.25ZM15 8C15 7.66848 15.1317 7.35054 15.3661 7.11612C15.6005 6.8817 15.9185 6.75 16.25 6.75H23.75C24.0815 6.75 24.3995 6.8817 24.6339 7.11612C24.8683 7.35054 25 7.66848 25 8V9.25H15V8ZM33.75 31.75H6.25V11.75H33.75V31.75ZM25 21.75C25 22.0815 24.8683 22.3995 24.6339 22.6339C24.3995 22.8683 24.0815 23 23.75 23H21.25V25.5C21.25 25.8315 21.1183 26.1495 20.8839 26.3839C20.6495 26.6183 20.3315 26.75 20 26.75C19.6685 26.75 19.3505 26.6183 19.1161 26.3839C18.8817 26.1495 18.75 25.8315 18.75 25.5V23H16.25C15.9185 23 15.6005 22.8683 15.3661 22.6339C15.1317 22.3995 15 22.0815 15 21.75C15 21.4185 15.1317 21.1005 15.3661 20.8661C15.6005 20.6317 15.9185 20.5 16.25 20.5H18.75V18C18.75 17.6685 18.8817 17.3505 19.1161 17.1161C19.3505 16.8817 19.6685 16.75 20 16.75C20.3315 16.75 20.6495 16.8817 20.8839 17.1161C21.1183 17.3505 21.25 17.6685 21.25 18V20.5H23.75C24.0815 20.5 24.3995 20.6317 24.6339 20.8661C24.8683 21.1005 25 21.4185 25 21.75Z" fill="#343330"/>
</svg>
