<svg width="41" height="38" viewBox="0 0 41 38" fill="none" xmlns="http://www.w3.org/2000/svg">
<path d="M15.5449 20.5311C15.5449 20.8779 15.435 21.217 15.2289 21.5053C15.0229 21.7937 14.7301 22.0185 14.3875 22.1512C14.0448 22.2839 13.6678 22.3187 13.3041 22.251C12.9404 22.1833 12.6063 22.0163 12.3441 21.7711C12.0819 21.5258 11.9033 21.2134 11.8309 20.8732C11.7586 20.533 11.7957 20.1804 11.9376 19.86C12.0796 19.5396 12.3199 19.2657 12.6282 19.073C12.9366 18.8803 13.2991 18.7775 13.6699 18.7775C14.1672 18.7775 14.6441 18.9622 14.9957 19.2911C15.3474 19.6199 15.5449 20.066 15.5449 20.5311ZM27.4199 18.7775C27.0491 18.7775 26.6866 18.8803 26.3782 19.073C26.0699 19.2657 25.8296 19.5396 25.6876 19.86C25.5457 20.1804 25.5086 20.533 25.5809 20.8732C25.6533 21.2134 25.8319 21.5258 26.0941 21.7711C26.3563 22.0163 26.6904 22.1833 27.0541 22.251C27.4178 22.3187 27.7948 22.2839 28.1375 22.1512C28.4801 22.0185 28.7729 21.7937 28.9789 21.5053C29.185 21.217 29.2949 20.8779 29.2949 20.5311C29.2949 20.066 29.0974 19.6199 28.7457 19.2911C28.3941 18.9622 27.9172 18.7775 27.4199 18.7775ZM36.7949 7.0866V19.9465C36.7949 27.6815 29.5059 33.9756 20.5449 33.9756C11.584 33.9756 4.29492 27.6815 4.29492 19.9465V7.0866C4.29515 6.62431 4.4419 6.17246 4.71662 5.78815C4.99134 5.40384 5.3817 5.10432 5.83837 4.92743C6.29504 4.75055 6.79753 4.70425 7.28233 4.79438C7.76713 4.88451 8.21248 5.10702 8.56211 5.43381C8.58398 5.45426 8.60273 5.47326 8.62148 5.49372L11.3262 8.40182C14.0917 6.7813 17.2892 5.92184 20.5527 5.92184C23.8162 5.92184 27.0138 6.7813 29.7793 8.40182L32.4684 5.49372C32.4871 5.47326 32.5059 5.45426 32.5277 5.43381C32.8774 5.10702 33.3227 4.88451 33.8075 4.79438C34.2923 4.70425 34.7948 4.75055 35.2515 4.92743C35.7081 5.10432 36.0985 5.40384 36.3732 5.78815C36.6479 6.17246 36.7947 6.62431 36.7949 7.0866ZM34.2949 7.0866L30.9262 10.7108C30.7201 10.9337 30.4316 11.0757 30.1184 11.1082C29.8052 11.1407 29.4904 11.0614 29.2371 10.8861C28.4745 10.3587 27.6562 9.90576 26.7949 9.53437V12.932C26.7949 13.2421 26.6632 13.5394 26.4288 13.7587C26.1944 13.9779 25.8764 14.1011 25.5449 14.1011C25.2134 14.1011 24.8955 13.9779 24.661 13.7587C24.4266 13.5394 24.2949 13.2421 24.2949 12.932V8.7014C23.4749 8.50411 22.6386 8.37115 21.7949 8.30391V12.932C21.7949 13.2421 21.6632 13.5394 21.4288 13.7587C21.1944 13.9779 20.8764 14.1011 20.5449 14.1011C20.2134 14.1011 19.8955 13.9779 19.661 13.7587C19.4266 13.5394 19.2949 13.2421 19.2949 12.932V8.30391C18.4512 8.37115 17.615 8.50411 16.7949 8.7014V12.932C16.7949 13.2421 16.6632 13.5394 16.4288 13.7587C16.1944 13.9779 15.8764 14.1011 15.5449 14.1011C15.2134 14.1011 14.8955 13.9779 14.661 13.7587C14.4266 13.5394 14.2949 13.2421 14.2949 12.932V9.53437C13.4336 9.90576 12.6153 10.3587 11.8527 10.8861C11.6 11.0619 11.2855 11.142 10.9724 11.1103C10.6592 11.0786 10.3704 10.9374 10.1637 10.7151L6.79492 7.0866V19.9465C6.79492 26.0345 12.2965 31.0528 19.2949 31.5892V28.6138L17.1605 26.6176C17.0445 26.509 16.9525 26.3801 16.8897 26.2382C16.827 26.0963 16.7947 25.9443 16.7948 25.7907C16.7949 25.6372 16.8273 25.4851 16.8902 25.3433C16.953 25.2015 17.0452 25.0726 17.1613 24.9641C17.3959 24.7449 17.7139 24.6219 18.0455 24.622C18.2096 24.6221 18.3722 24.6524 18.5238 24.7112C18.6755 24.77 18.8133 24.8562 18.9293 24.9648L20.5449 26.4759L22.1605 24.9648C22.2766 24.8562 22.4144 24.77 22.566 24.7112C22.7176 24.6524 22.8802 24.6221 23.0444 24.622C23.2085 24.6219 23.3711 24.6521 23.5228 24.7108C23.6745 24.7695 23.8124 24.8556 23.9285 24.9641C24.0447 25.0726 24.1368 25.2015 24.1997 25.3433C24.2626 25.4851 24.295 25.6372 24.2951 25.7907C24.2951 25.9443 24.2629 26.0963 24.2001 26.2382C24.1374 26.3801 24.0453 26.509 23.9293 26.6176L21.7949 28.6138V31.5892C28.7934 31.0499 34.2949 26.036 34.2949 19.9465V7.0866Z" fill="#343330"/>
</svg>
