<svg width="40" height="39" viewBox="0 0 40 39" fill="none" xmlns="http://www.w3.org/2000/svg">
<path d="M15.7573 32.727C15.7573 33.2065 15.6151 33.6752 15.3488 34.0738C15.0824 34.4725 14.7038 34.7832 14.2608 34.9667C13.8178 35.1502 13.3304 35.1982 12.8601 35.1047C12.3899 35.0111 11.9579 34.7802 11.6189 34.4412C11.2799 34.1022 11.049 33.6702 10.9554 33.1999C10.8619 32.7297 10.9099 32.2423 11.0934 31.7993C11.2769 31.3563 11.5876 30.9777 11.9862 30.7113C12.3849 30.445 12.8536 30.3028 13.3331 30.3028C13.976 30.3028 14.5926 30.5582 15.0473 31.0128C15.5019 31.4674 15.7573 32.0841 15.7573 32.727ZM29.0906 30.3028C28.6111 30.3028 28.1424 30.445 27.7438 30.7113C27.3451 30.9777 27.0344 31.3563 26.8509 31.7993C26.6674 32.2423 26.6194 32.7297 26.7129 33.1999C26.8065 33.6702 27.0374 34.1022 27.3764 34.4412C27.7154 34.7802 28.1474 35.0111 28.6176 35.1047C29.0879 35.1982 29.5753 35.1502 30.0183 34.9667C30.4613 34.7832 30.8399 34.4725 31.1063 34.0738C31.3726 33.6752 31.5148 33.2065 31.5148 32.727C31.5148 32.0841 31.2594 31.4674 30.8048 31.0128C30.3501 30.5582 29.7335 30.3028 29.0906 30.3028ZM36.3193 11.2332L32.4345 25.2149C32.2209 25.9787 31.7641 26.652 31.1333 27.1327C30.5025 27.6133 29.7321 27.8752 28.9391 27.8785H13.9634C13.168 27.8782 12.3945 27.6177 11.761 27.1368C11.1274 26.6559 10.6685 25.9809 10.4543 25.2149L5.13917 6.06046H2.42403C2.10256 6.06046 1.79425 5.93276 1.56693 5.70544C1.33962 5.47813 1.21191 5.16982 1.21191 4.84835C1.21191 4.52687 1.33962 4.21857 1.56693 3.99125C1.79425 3.76394 2.10256 3.63623 2.42403 3.63623H6.06038C6.32538 3.63618 6.5831 3.72297 6.79407 3.88333C7.00505 4.04368 7.15767 4.26876 7.22856 4.52411L8.66491 9.69681H35.1512C35.338 9.69677 35.5224 9.73994 35.6898 9.82294C35.8572 9.90594 36.0032 10.0265 36.1163 10.1753C36.2294 10.324 36.3066 10.4969 36.3418 10.6804C36.377 10.8639 36.3693 11.0531 36.3193 11.2332ZM33.5557 12.121H9.33915L12.7952 24.5664C12.8661 24.8218 13.0187 25.0469 13.2297 25.2072C13.4407 25.3676 13.6984 25.4544 13.9634 25.4543H28.9391C29.2041 25.4544 29.4618 25.3676 29.6728 25.2072C29.8837 25.0469 30.0364 24.8218 30.1073 24.5664L33.5557 12.121Z" fill="#333232"/>
<path d="M28.484 33.3331L24.8477 21.2119L36.9688 25.4543L33.3325 27.2725L36.9688 32.121L35.7567 33.3331L30.9082 29.6967L28.484 33.3331Z" fill="#FFFDF7"/>
<path d="M33.7502 27.6057L37.0229 26.3493L37.0464 26.3401C37.2558 26.2472 37.4323 26.0932 37.5527 25.8982C37.673 25.7032 37.7317 25.4764 37.7208 25.2476C37.71 25.0187 37.6302 24.7984 37.492 24.6157C37.3538 24.433 37.1635 24.2963 36.9462 24.2236L25.577 20.5113C25.378 20.4462 25.1649 20.4374 24.9613 20.4861C24.7577 20.5347 24.5716 20.6389 24.4236 20.7869C24.2756 20.9349 24.1715 21.121 24.1228 21.3246C24.0742 21.5282 24.0829 21.7413 24.148 21.9402L27.8603 33.3095C27.9303 33.5289 28.066 33.7215 28.249 33.8613C28.4321 34.001 28.6537 34.0811 28.8838 34.0908H28.9392C29.1599 34.0915 29.3759 34.0274 29.5604 33.9063C29.7449 33.7851 29.8897 33.6124 29.9768 33.4096L29.986 33.3862L31.2424 30.1135L34.8866 33.7577C34.9921 33.8632 35.1174 33.9469 35.2553 34.0041C35.3932 34.0612 35.541 34.0906 35.6902 34.0906C35.8395 34.0906 35.9872 34.0612 36.1251 34.0041C36.263 33.9469 36.3883 33.8632 36.4938 33.7577L37.3944 32.8571C37.4999 32.7516 37.5837 32.6263 37.6408 32.4884C37.6979 32.3505 37.7273 32.2027 37.7273 32.0535C37.7273 31.9042 37.6979 31.7564 37.6408 31.6186C37.5837 31.4807 37.4999 31.3554 37.3944 31.2499L33.7502 27.6057ZM35.6898 32.9544L32.0457 29.3102C31.9148 29.1791 31.7537 29.0819 31.5767 29.0272C31.3996 28.9726 31.2118 28.962 31.0297 28.9966C30.8476 29.0311 30.6768 29.1096 30.532 29.2253C30.3872 29.341 30.2729 29.4904 30.1991 29.6604C30.1991 29.6682 30.1927 29.676 30.1899 29.6831L28.9363 32.9501L25.2275 21.5908L36.5805 25.2982L33.317 26.551L33.2943 26.5602C33.1243 26.6341 32.9749 26.7484 32.8592 26.8931C32.7435 27.0379 32.665 27.2088 32.6304 27.3909C32.5959 27.573 32.6064 27.7607 32.6611 27.9378C32.7158 28.1149 32.8129 28.2759 32.9441 28.4068L36.5911 32.0531L35.6898 32.9544Z" fill="#343330"/>
</svg>
