<svg width="40" height="41" viewBox="0 0 40 41" fill="none" xmlns="http://www.w3.org/2000/svg">
<path d="M37.5 32.9999H35V21.7499L35.3656 22.1155C35.6006 22.3501 35.9191 22.4817 36.2511 22.4814C36.5831 22.4811 36.9014 22.3489 37.1359 22.114C37.3705 21.879 37.5021 21.5605 37.5018 21.2285C37.5015 20.8965 37.3693 20.5782 37.1344 20.3437L21.7672 4.98117C21.2984 4.51268 20.6628 4.24951 20 4.24951C19.3372 4.24951 18.7016 4.51268 18.2328 4.98117L2.86563 20.3437C2.63128 20.5782 2.49971 20.8963 2.49986 21.2278C2.5 21.5594 2.63186 21.8773 2.86641 22.1116C3.10096 22.346 3.41899 22.4775 3.75055 22.4774C4.08211 22.4773 4.40003 22.3454 4.63437 22.1109L5 21.7499V32.9999H2.5C2.16848 32.9999 1.85054 33.1316 1.61612 33.366C1.3817 33.6005 1.25 33.9184 1.25 34.2499C1.25 34.5814 1.3817 34.8994 1.61612 35.1338C1.85054 35.3682 2.16848 35.4999 2.5 35.4999H37.5C37.8315 35.4999 38.1495 35.3682 38.3839 35.1338C38.6183 34.8994 38.75 34.5814 38.75 34.2499C38.75 33.9184 38.6183 33.6005 38.3839 33.366C38.1495 33.1316 37.8315 32.9999 37.5 32.9999ZM7.5 19.2499L20 6.74992L32.5 19.2499V32.9999H25V24.2499C25 23.9184 24.8683 23.6005 24.6339 23.366C24.3995 23.1316 24.0815 22.9999 23.75 22.9999H16.25C15.9185 22.9999 15.6005 23.1316 15.3661 23.366C15.1317 23.6005 15 23.9184 15 24.2499V32.9999H7.5V19.2499ZM22.5 32.9999H17.5V25.4999H22.5V32.9999Z" fill="#333232"/>
</svg>
