<svg width="40" height="40" viewBox="0 0 40 40" fill="none" xmlns="http://www.w3.org/2000/svg">
<path d="M16.25 33.75C16.25 34.2445 16.1034 34.7278 15.8287 35.1389C15.554 35.55 15.1635 35.8705 14.7067 36.0597C14.2499 36.2489 13.7472 36.2984 13.2623 36.202C12.7773 36.1055 12.3319 35.8674 11.9822 35.5178C11.6326 35.1681 11.3945 34.7227 11.298 34.2377C11.2016 33.7528 11.2511 33.2501 11.4403 32.7933C11.6295 32.3365 11.95 31.946 12.3611 31.6713C12.7722 31.3966 13.2555 31.25 13.75 31.25C14.413 31.25 15.0489 31.5134 15.5178 31.9822C15.9866 32.4511 16.25 33.087 16.25 33.75ZM30 31.25C29.5055 31.25 29.0222 31.3966 28.6111 31.6713C28.2 31.946 27.8795 32.3365 27.6903 32.7933C27.5011 33.2501 27.4516 33.7528 27.548 34.2377C27.6445 34.7227 27.8826 35.1681 28.2322 35.5178C28.5819 35.8674 29.0273 36.1055 29.5123 36.202C29.9972 36.2984 30.4999 36.2489 30.9567 36.0597C31.4135 35.8705 31.804 35.55 32.0787 35.1389C32.3534 34.7278 32.5 34.2445 32.5 33.75C32.5 33.087 32.2366 32.4511 31.7678 31.9822C31.2989 31.5134 30.663 31.25 30 31.25ZM37.4547 11.5844L33.4484 26.0031C33.2282 26.7908 32.7571 27.4851 32.1065 27.9808C31.456 28.4765 30.6616 28.7466 29.8438 28.75H14.4C13.5797 28.7496 12.7821 28.481 12.1287 27.985C11.4754 27.4891 11.0022 26.7931 10.7812 26.0031L5.3 6.25H2.5C2.16848 6.25 1.85054 6.1183 1.61612 5.88388C1.3817 5.64946 1.25 5.33152 1.25 5C1.25 4.66848 1.3817 4.35054 1.61612 4.11612C1.85054 3.8817 2.16848 3.75 2.5 3.75H6.25C6.52328 3.74995 6.78905 3.83946 7.00663 4.00482C7.2242 4.17019 7.38158 4.4023 7.45469 4.66563L8.93594 10H36.25C36.4427 9.99996 36.6328 10.0445 36.8055 10.1301C36.9781 10.2157 37.1286 10.34 37.2453 10.4934C37.3619 10.6468 37.4415 10.8251 37.4778 11.0144C37.5142 11.2036 37.5062 11.3987 37.4547 11.5844ZM34.6047 12.5H9.63125L13.1953 25.3344C13.2684 25.5977 13.4258 25.8298 13.6434 25.9952C13.8609 26.1605 14.1267 26.2501 14.4 26.25H29.8438C30.117 26.2501 30.3828 26.1605 30.6004 25.9952C30.8179 25.8298 30.9753 25.5977 31.0484 25.3344L34.6047 12.5Z" fill="#343330"/>
</svg>
