<svg width="40" height="40" viewBox="0 0 40 40" fill="none" xmlns="http://www.w3.org/2000/svg">
<path d="M28.75 15.125V13.75C28.75 12.4239 28.2232 11.1521 27.2855 10.2145C26.3479 9.27678 25.0761 8.75 23.75 8.75H21.25V5H26.25C26.5815 5 26.8995 5.1317 27.1339 5.36612C27.3683 5.60054 27.5 5.91848 27.5 6.25C27.5 6.58152 27.6317 6.89946 27.8661 7.13388C28.1005 7.3683 28.4185 7.5 28.75 7.5C29.0815 7.5 29.3995 7.3683 29.6339 7.13388C29.8683 6.89946 30 6.58152 30 6.25C30 5.25544 29.6049 4.30161 28.9017 3.59835C28.1984 2.89509 27.2446 2.5 26.25 2.5H16.25C15.9185 2.5 15.6005 2.6317 15.3661 2.86612C15.1317 3.10054 15 3.41848 15 3.75C15 4.08152 15.1317 4.39946 15.3661 4.63388C15.6005 4.8683 15.9185 5 16.25 5H18.75V8.75H16.25C14.9239 8.75 13.6521 9.27678 12.7145 10.2145C11.7768 11.1521 11.25 12.4239 11.25 13.75V15.125C9.83924 15.4151 8.57162 16.1827 7.66083 17.2984C6.75003 18.4141 6.25176 19.8097 6.25 21.25V33.75C6.25 34.413 6.51339 35.0489 6.98223 35.5178C7.45107 35.9866 8.08696 36.25 8.75 36.25H31.25C31.913 36.25 32.5489 35.9866 33.0178 35.5178C33.4866 35.0489 33.75 34.413 33.75 33.75V21.25C33.7482 19.8097 33.25 18.4141 32.3392 17.2984C31.4284 16.1827 30.1608 15.4151 28.75 15.125ZM16.25 11.25H23.75C24.413 11.25 25.0489 11.5134 25.5178 11.9822C25.9866 12.4511 26.25 13.087 26.25 13.75V15H13.75V13.75C13.75 13.087 14.0134 12.4511 14.4822 11.9822C14.9511 11.5134 15.587 11.25 16.25 11.25ZM31.25 33.75H8.75V21.25C8.75 20.2554 9.14509 19.3016 9.84835 18.5983C10.5516 17.8951 11.5054 17.5 12.5 17.5H27.5C28.4946 17.5 29.4484 17.8951 30.1517 18.5983C30.8549 19.3016 31.25 20.2554 31.25 21.25V33.75Z" fill="#343330"/>
</svg>
