<svg width="40" height="40" viewBox="0 0 40 40" fill="none" xmlns="http://www.w3.org/2000/svg">
<path d="M28.9578 17.8455L33.5109 13.5611L33.5375 13.5346C34.4753 12.5968 35.0021 11.3249 35.0021 9.99862C35.0021 8.67238 34.4753 7.40047 33.5375 6.46268C32.5997 5.52489 31.3278 4.99805 30.0016 4.99805C28.6753 4.99805 27.4034 5.52489 26.4656 6.46268C26.4656 6.47206 26.4484 6.47987 26.4391 6.48924L22.1547 11.0424L9.18595 6.32362C8.96243 6.24232 8.72035 6.22648 8.48814 6.27796C8.25593 6.32944 8.04323 6.4461 7.87501 6.61424L4.12501 10.3642C3.99434 10.495 3.8943 10.6532 3.8321 10.8273C3.76991 11.0014 3.74711 11.1871 3.76534 11.3711C3.78357 11.555 3.84239 11.7327 3.93755 11.8912C4.0327 12.0497 4.16184 12.1851 4.31564 12.2877L14.2984 18.9424L11.9828 21.2502H8.75001C8.41893 21.2503 8.10144 21.3818 7.8672 21.6158L4.1172 25.3658C3.97095 25.5117 3.86314 25.6916 3.8034 25.8893C3.74367 26.087 3.73387 26.2965 3.77489 26.499C3.81591 26.7014 3.90646 26.8906 4.03846 27.0495C4.17045 27.2084 4.33976 27.3321 4.53126 27.4096L10.2844 29.7111L12.5813 35.4533L12.5906 35.4783C12.6701 35.6706 12.7963 35.8401 12.9579 35.9713C13.1194 36.1025 13.3111 36.1913 13.5157 36.2296C13.7202 36.268 13.9311 36.2546 14.1292 36.1908C14.3273 36.127 14.5063 36.0148 14.65 35.8642L18.3797 32.133C18.4964 32.0174 18.5892 31.8799 18.6527 31.7284C18.7163 31.577 18.7493 31.4144 18.75 31.2502V28.0174L21.0563 25.7111L27.7109 35.6939C27.8135 35.8477 27.949 35.9769 28.1075 36.072C28.266 36.1672 28.4436 36.226 28.6276 36.2442C28.8115 36.2625 28.9973 36.2397 29.1714 36.1775C29.3455 36.1153 29.5036 36.0152 29.6344 35.8846L33.3844 32.1346C33.5525 31.9663 33.6692 31.7536 33.7207 31.5214C33.7721 31.2892 33.7563 31.0471 33.675 30.8236L28.9578 17.8455ZM28.9469 33.0377L22.2922 23.0564C22.1902 22.9015 22.0549 22.7711 21.8963 22.6749C21.7377 22.5787 21.5596 22.519 21.375 22.5002C21.3328 22.5002 21.2922 22.5002 21.2516 22.5002C21.0873 22.5003 20.9246 22.5327 20.7728 22.5957C20.6211 22.6587 20.4832 22.751 20.3672 22.8674L16.6172 26.6174C16.3826 26.8514 16.2506 27.1689 16.25 27.5002V30.733L14.2078 32.7752L12.4109 28.2814C12.3481 28.1254 12.2544 27.9837 12.1354 27.8648C12.0165 27.7458 11.8748 27.6521 11.7188 27.5892L7.22814 25.7924L9.26876 23.7502H12.5C12.6642 23.7503 12.8268 23.7181 12.9786 23.6554C13.1303 23.5926 13.2682 23.5006 13.3844 23.3846L17.1344 19.6346C17.2653 19.5038 17.3656 19.3455 17.428 19.1713C17.4904 18.997 17.5132 18.8111 17.495 18.6269C17.4768 18.4427 17.4179 18.2649 17.3225 18.1063C17.2272 17.9476 17.0978 17.8121 16.9438 17.7096L6.96251 11.0533L9.07189 8.94549L22.075 13.6736C22.3041 13.7578 22.5528 13.7731 22.7905 13.7175C23.0282 13.662 23.2444 13.5381 23.4125 13.3611L28.2469 8.21893C28.7181 7.7615 29.3504 7.50785 30.0071 7.5128C30.6637 7.51774 31.2921 7.78088 31.7564 8.24535C32.2207 8.70982 32.4835 9.33832 32.4882 9.99501C32.4928 10.6517 32.2389 11.2839 31.7813 11.7549L26.6453 16.5877C26.4683 16.7558 26.3444 16.972 26.2889 17.2097C26.2334 17.4473 26.2486 17.6961 26.3328 17.9252L31.0609 30.9283L28.9469 33.0377Z" fill="#343330"/>
</svg>
