<svg width="40" height="40" viewBox="0 0 40 40" fill="none" xmlns="http://www.w3.org/2000/svg">
<path d="M36.25 16.25C36.5815 16.25 36.8995 16.1183 37.1339 15.8839C37.3683 15.6495 37.5 15.3315 37.5 15V10C37.5 9.33696 37.2366 8.70107 36.7678 8.23223C36.2989 7.76339 35.663 7.5 35 7.5H5C4.33696 7.5 3.70107 7.76339 3.23223 8.23223C2.76339 8.70107 2.5 9.33696 2.5 10V15C2.5 15.3315 2.6317 15.6495 2.86612 15.8839C3.10054 16.1183 3.41848 16.25 3.75 16.25C4.74456 16.25 5.69839 16.6451 6.40165 17.3483C7.10491 18.0516 7.5 19.0054 7.5 20C7.5 20.9946 7.10491 21.9484 6.40165 22.6517C5.69839 23.3549 4.74456 23.75 3.75 23.75C3.41848 23.75 3.10054 23.8817 2.86612 24.1161C2.6317 24.3505 2.5 24.6685 2.5 25V30C2.5 30.663 2.76339 31.2989 3.23223 31.7678C3.70107 32.2366 4.33696 32.5 5 32.5H35C35.663 32.5 36.2989 32.2366 36.7678 31.7678C37.2366 31.2989 37.5 30.663 37.5 30V25C37.5 24.6685 37.3683 24.3505 37.1339 24.1161C36.8995 23.8817 36.5815 23.75 36.25 23.75C35.2554 23.75 34.3016 23.3549 33.5983 22.6517C32.8951 21.9484 32.5 20.9946 32.5 20C32.5 19.0054 32.8951 18.0516 33.5983 17.3483C34.3016 16.6451 35.2554 16.25 36.25 16.25ZM5 26.125C6.41286 25.8381 7.68309 25.0716 8.59547 23.9553C9.50785 22.8391 10.0063 21.4417 10.0063 20C10.0063 18.5583 9.50785 17.1609 8.59547 16.0447C7.68309 14.9284 6.41286 14.1619 5 13.875V10H13.75V30H5V26.125ZM35 26.125V30H16.25V10H35V13.875C33.5871 14.1619 32.3169 14.9284 31.4045 16.0447C30.4921 17.1609 29.9937 18.5583 29.9937 20C29.9937 21.4417 30.4921 22.8391 31.4045 23.9553C32.3169 25.0716 33.5871 25.8381 35 26.125Z" fill="#343330"/>
</svg>
