<svg width="40" height="40" viewBox="0 0 40 40" fill="none" xmlns="http://www.w3.org/2000/svg">
<path d="M25 5H23.75C23.087 5 22.4511 5.26339 21.9822 5.73223C21.5134 6.20107 21.25 6.83696 21.25 7.5V16.25H8.625C8.33493 14.8392 7.56734 13.5716 6.45162 12.6608C5.3359 11.75 3.94027 11.2518 2.5 11.25C2.16848 11.25 1.85054 11.3817 1.61612 11.6161C1.3817 11.8505 1.25 12.1685 1.25 12.5C1.25 12.8315 1.3817 13.1495 1.61612 13.3839C1.85054 13.6183 2.16848 13.75 2.5 13.75C3.49456 13.75 4.44839 14.1451 5.15165 14.8483C5.85491 15.5516 6.25 16.5054 6.25 17.5C6.25372 20.8141 7.57188 23.9913 9.91528 26.3347C12.2587 28.6781 15.4359 29.9963 18.75 30H25C28.3152 30 31.4946 28.683 33.8388 26.3388C36.183 23.9946 37.5 20.8152 37.5 17.5C37.5 14.1848 36.183 11.0054 33.8388 8.66117C31.4946 6.31696 28.3152 5 25 5ZM34.9187 16.25H26.0641L32.6047 11.0172C33.8713 12.4975 34.6759 14.3169 34.9187 16.25ZM25 7.5C27.0524 7.49807 29.0551 8.13178 30.7328 9.31406L23.75 14.8984V7.5H25ZM25 27.5H18.75C16.3151 27.4971 13.9647 26.6071 12.1385 24.9966C10.3123 23.3861 9.13548 21.1654 8.82812 18.75H34.9219C34.6145 21.1654 33.4377 23.3861 31.6115 24.9966C29.7853 26.6071 27.4349 27.4971 25 27.5ZM16.25 35C16.25 35.4945 16.1034 35.9778 15.8287 36.3889C15.554 36.8 15.1635 37.1205 14.7067 37.3097C14.2499 37.4989 13.7472 37.5484 13.2623 37.452C12.7773 37.3555 12.3319 37.1174 11.9822 36.7678C11.6326 36.4181 11.3945 35.9727 11.298 35.4877C11.2016 35.0028 11.2511 34.5001 11.4403 34.0433C11.6295 33.5865 11.95 33.196 12.3611 32.9213C12.7722 32.6466 13.2555 32.5 13.75 32.5C14.413 32.5 15.0489 32.7634 15.5178 33.2322C15.9866 33.7011 16.25 34.337 16.25 35ZM32.5 35C32.5 35.4945 32.3534 35.9778 32.0787 36.3889C31.804 36.8 31.4135 37.1205 30.9567 37.3097C30.4999 37.4989 29.9972 37.5484 29.5123 37.452C29.0273 37.3555 28.5819 37.1174 28.2322 36.7678C27.8826 36.4181 27.6445 35.9727 27.548 35.4877C27.4516 35.0028 27.5011 34.5001 27.6903 34.0433C27.8795 33.5865 28.2 33.196 28.6111 32.9213C29.0222 32.6466 29.5055 32.5 30 32.5C30.663 32.5 31.2989 32.7634 31.7678 33.2322C32.2366 33.7011 32.5 34.337 32.5 35Z" fill="#343330"/>
</svg>
