<svg width="40" height="40" viewBox="0 0 40 40" fill="none" xmlns="http://www.w3.org/2000/svg">
<path d="M16.25 16.25V28.75C16.25 29.0815 16.1183 29.3995 15.8839 29.6339C15.6495 29.8683 15.3315 30 15 30C14.6685 30 14.3505 29.8683 14.1161 29.6339C13.8817 29.3995 13.75 29.0815 13.75 28.75V16.25C13.75 15.9185 13.8817 15.6005 14.1161 15.3661C14.3505 15.1317 14.6685 15 15 15C15.3315 15 15.6495 15.1317 15.8839 15.3661C16.1183 15.6005 16.25 15.9185 16.25 16.25ZM22.5 15C22.1685 15 21.8505 15.1317 21.6161 15.3661C21.3817 15.6005 21.25 15.9185 21.25 16.25V28.75C21.25 29.0815 21.3817 29.3995 21.6161 29.6339C21.8505 29.8683 22.1685 30 22.5 30C22.8315 30 23.1495 29.8683 23.3839 29.6339C23.6183 29.3995 23.75 29.0815 23.75 28.75V16.25C23.75 15.9185 23.6183 15.6005 23.3839 15.3661C23.1495 15.1317 22.8315 15 22.5 15ZM37.5 17.5V27.5C37.5 28.4946 37.1049 29.4484 36.4017 30.1517C35.6984 30.8549 34.7446 31.25 33.75 31.25H31.25V32.5C31.25 33.163 30.9866 33.7989 30.5178 34.2678C30.0489 34.7366 29.413 35 28.75 35H8.75C8.08696 35 7.45107 34.7366 6.98223 34.2678C6.51339 33.7989 6.25 33.163 6.25 32.5V11.25C6.25 6.425 10.7359 2.5 16.25 2.5C18.8703 2.5 21.3922 3.40625 23.2531 5H25C26.6576 5 28.2473 5.65848 29.4194 6.83058C30.5915 8.00269 31.25 9.5924 31.25 11.25V13.75H33.75C34.7446 13.75 35.6984 14.1451 36.4017 14.8483C37.1049 15.5516 37.5 16.5054 37.5 17.5ZM8.90625 10H28.5344C28.2759 9.26906 27.7973 8.63618 27.1644 8.18847C26.5314 7.74077 25.7753 7.50024 25 7.5H22.7719C22.4499 7.49996 22.1404 7.37571 21.9078 7.15312C20.4781 5.78125 18.4172 5 16.25 5C12.6281 5 9.59844 7.15 8.90625 10ZM28.75 32.5V12.5H8.75V32.5H28.75ZM35 17.5C35 17.1685 34.8683 16.8505 34.6339 16.6161C34.3995 16.3817 34.0815 16.25 33.75 16.25H31.25V28.75H33.75C34.0815 28.75 34.3995 28.6183 34.6339 28.3839C34.8683 28.1495 35 27.8315 35 27.5V17.5Z" fill="#333232"/>
</svg>
