<svg width="40" height="21" viewBox="0 0 40 21" fill="none" xmlns="http://www.w3.org/2000/svg">
<path d="M19.5784 10.271L18.2373 3.54877C18.2046 3.38491 18.1363 3.22906 18.0367 3.09079C17.9372 2.95252 17.8084 2.83476 17.6584 2.74475C17.5084 2.65474 17.3403 2.59439 17.1644 2.5674C16.9885 2.54041 16.8086 2.54735 16.6357 2.5878L16.6104 2.59468L12.3208 3.77794H8.5882L4.29861 2.5985L4.27329 2.59162C4.10038 2.55117 3.92045 2.54423 3.74457 2.57122C3.56868 2.59821 3.40056 2.65856 3.25054 2.74857C3.10052 2.83858 2.97178 2.95634 2.87222 3.09461C2.77266 3.23288 2.7044 3.38873 2.67163 3.55259L1.33052 10.271C1.27317 10.54 1.31574 10.8193 1.45119 11.0627C1.58664 11.3061 1.80685 11.4989 2.0754 11.6093C2.24738 11.683 2.43424 11.7216 2.62344 11.7223C2.8499 11.7222 3.07218 11.6652 3.26704 11.5573V14.7779C3.26704 15.5882 3.61125 16.3654 4.22393 16.9385C4.83662 17.5115 5.66759 17.8334 6.53406 17.8334H14.3749C15.2414 17.8334 16.0723 17.5115 16.685 16.9385C17.2977 16.3654 17.6419 15.5882 17.6419 14.7779V11.5581C17.8366 11.6658 18.0585 11.7228 18.2847 11.7231C18.4741 11.7226 18.6612 11.6843 18.8336 11.6108C19.1024 11.5003 19.3229 11.3073 19.4584 11.0636C19.5938 10.8199 19.6362 10.5402 19.5784 10.271ZM2.61364 10.5001L3.95557 3.77794L7.39165 4.72286L2.61364 10.5001ZM14.3749 16.6112H11.1079V15.6418L12.2236 14.5991C12.3462 14.4845 12.4151 14.3289 12.4151 14.1668C12.4151 14.0046 12.3462 13.8491 12.2236 13.7344C12.101 13.6197 11.9347 13.5553 11.7613 13.5553C11.5879 13.5553 11.4216 13.6197 11.299 13.7344L10.4545 14.525L9.60996 13.7344C9.48735 13.6197 9.32106 13.5553 9.14768 13.5553C8.97429 13.5553 8.808 13.6197 8.68539 13.7344C8.56279 13.8491 8.49391 14.0046 8.49391 14.1668C8.49391 14.3289 8.56279 14.4845 8.68539 14.5991L9.80108 15.6418V16.6112H6.53406C6.01418 16.6112 5.51559 16.418 5.14798 16.0742C4.78037 15.7304 4.57385 15.2641 4.57385 14.7779V10.1266L8.81444 5.00015H12.0937L16.3351 10.1266V14.7779C16.3351 15.2641 16.1286 15.7304 15.761 16.0742C15.3934 16.418 14.8948 16.6112 14.3749 16.6112ZM18.2953 10.5001L13.5173 4.72286L16.9534 3.77794L18.2953 10.5001ZM8.49427 11.4168C8.49427 11.5981 8.43679 11.7753 8.32909 11.926C8.2214 12.0768 8.06833 12.1943 7.88924 12.2637C7.71015 12.333 7.51308 12.3512 7.32296 12.3158C7.13284 12.2805 6.9582 12.1932 6.82113 12.065C6.68406 11.9368 6.59071 11.7734 6.55289 11.5956C6.51508 11.4178 6.53449 11.2335 6.60867 11.066C6.68285 10.8985 6.80847 10.7553 6.96965 10.6546C7.13083 10.5539 7.32032 10.5001 7.51417 10.5001C7.77411 10.5001 8.0234 10.5967 8.20721 10.7686C8.39101 10.9405 8.49427 11.1737 8.49427 11.4168ZM14.3749 11.4168C14.3749 11.5981 14.3174 11.7753 14.2097 11.926C14.102 12.0768 13.949 12.1943 13.7699 12.2637C13.5908 12.333 13.3937 12.3512 13.2036 12.3158C13.0135 12.2805 12.8388 12.1932 12.7018 12.065C12.5647 11.9368 12.4713 11.7734 12.4335 11.5956C12.3957 11.4178 12.4151 11.2335 12.4893 11.066C12.5635 10.8985 12.6891 10.7553 12.8503 10.6546C13.0115 10.5539 13.201 10.5001 13.3948 10.5001C13.6547 10.5001 13.904 10.5967 14.0878 10.7686C14.2716 10.9405 14.3749 11.1737 14.3749 11.4168Z" fill="#343330"/>
<path d="M26.9314 11.4164C26.9314 11.5977 26.8739 11.7749 26.7662 11.9256C26.6585 12.0764 26.5055 12.1939 26.3264 12.2633C26.1473 12.3326 25.9502 12.3508 25.7601 12.3154C25.57 12.2801 25.3953 12.1928 25.2583 12.0646C25.1212 11.9364 25.0279 11.773 24.99 11.5952C24.9522 11.4174 24.9716 11.2331 25.0458 11.0656C25.12 10.8981 25.2456 10.7549 25.4068 10.6542C25.568 10.5535 25.7575 10.4997 25.9513 10.4997C26.2112 10.4997 26.4605 10.5963 26.6443 10.7682C26.8282 10.9401 26.9314 11.1733 26.9314 11.4164ZM33.1387 10.4997C32.9449 10.4997 32.7554 10.5535 32.5942 10.6542C32.433 10.7549 32.3074 10.8981 32.2332 11.0656C32.1591 11.2331 32.1397 11.4174 32.1775 11.5952C32.2153 11.773 32.3086 11.9364 32.4457 12.0646C32.5828 12.1928 32.7574 12.2801 32.9475 12.3154C33.1377 12.3508 33.3347 12.3326 33.5138 12.2633C33.6929 12.1939 33.846 12.0764 33.9537 11.9256C34.0614 11.7749 34.1188 11.5977 34.1188 11.4164C34.1188 11.1733 34.0156 10.9401 33.8318 10.7682C33.648 10.5963 33.3987 10.4997 33.1387 10.4997ZM38.0393 4.38864V11.1108C38.0393 15.1541 34.2291 18.4441 29.545 18.4441C24.8609 18.4441 21.0508 15.1541 21.0508 11.1108V4.38864C21.0509 4.14699 21.1276 3.9108 21.2712 3.70991C21.4148 3.50902 21.6189 3.35246 21.8576 3.26C22.0963 3.16754 22.359 3.14333 22.6124 3.19045C22.8658 3.23756 23.0986 3.35387 23.2813 3.52469C23.2928 3.53538 23.3026 3.54531 23.3124 3.55601L24.7262 5.07614C26.1718 4.22905 27.8432 3.77979 29.5491 3.77979C31.255 3.77979 32.9264 4.22905 34.372 5.07614L35.7777 3.55601C35.7875 3.54531 35.7973 3.53538 35.8087 3.52469C35.9915 3.35387 36.2243 3.23756 36.4777 3.19045C36.7311 3.14333 36.9938 3.16754 37.2325 3.26C37.4712 3.35246 37.6752 3.50902 37.8188 3.70991C37.9624 3.9108 38.0391 4.14699 38.0393 4.38864ZM36.7325 4.38864L34.9715 6.28307C34.8638 6.39962 34.713 6.47382 34.5493 6.49082C34.3856 6.50782 34.2211 6.46636 34.0886 6.37474C33.69 6.09905 33.2623 5.86228 32.812 5.66815V7.44418C32.812 7.60625 32.7432 7.76169 32.6207 7.8763C32.4981 7.9909 32.3319 8.05529 32.1586 8.05529C31.9853 8.05529 31.8191 7.9909 31.6966 7.8763C31.5741 7.76169 31.5052 7.60625 31.5052 7.44418V5.23273C31.0766 5.1296 30.6395 5.0601 30.1984 5.02496V7.44418C30.1984 7.60625 30.1296 7.76169 30.0071 7.8763C29.8845 7.9909 29.7183 8.05529 29.545 8.05529C29.3717 8.05529 29.2055 7.9909 29.083 7.8763C28.9605 7.76169 28.8916 7.60625 28.8916 7.44418V5.02496C28.4506 5.0601 28.0135 5.1296 27.5848 5.23273V7.44418C27.5848 7.60625 27.516 7.76169 27.3934 7.8763C27.2709 7.9909 27.1047 8.05529 26.9314 8.05529C26.7581 8.05529 26.5919 7.9909 26.4694 7.8763C26.3468 7.76169 26.278 7.60625 26.278 7.44418V5.66815C25.8278 5.86228 25.4 6.09905 25.0014 6.37474C24.8693 6.46663 24.7049 6.50847 24.5412 6.4919C24.3775 6.47533 24.2266 6.40157 24.1185 6.28537L22.3576 4.38864V11.1108C22.3576 14.2932 25.2334 16.9163 28.8916 17.1967V15.6414L27.7759 14.598C27.7153 14.5412 27.6672 14.4738 27.6344 14.3996C27.6016 14.3255 27.5847 14.246 27.5847 14.1657C27.5848 14.0854 27.6017 14.006 27.6346 13.9318C27.6675 13.8577 27.7156 13.7903 27.7763 13.7336C27.8989 13.6191 28.0652 13.5547 28.2385 13.5548C28.3243 13.5548 28.4093 13.5707 28.4886 13.6014C28.5678 13.6322 28.6398 13.6772 28.7005 13.734L29.545 14.5239L30.3895 13.734C30.4502 13.6772 30.5222 13.6322 30.6015 13.6014C30.6808 13.5707 30.7657 13.5548 30.8515 13.5548C30.9374 13.5548 31.0223 13.5705 31.1016 13.6012C31.1809 13.6319 31.253 13.6769 31.3137 13.7336C31.3744 13.7903 31.4226 13.8577 31.4555 13.9318C31.4883 14.006 31.5053 14.0854 31.5053 14.1657C31.5053 14.246 31.4885 14.3255 31.4557 14.3996C31.4229 14.4738 31.3748 14.5412 31.3141 14.598L30.1984 15.6414V17.1967C33.8567 16.9148 36.7325 14.2939 36.7325 11.1108V4.38864Z" fill="#343330"/>
</svg>
