<svg width="40" height="40" viewBox="0 0 40 40" fill="none" xmlns="http://www.w3.org/2000/svg">
<path d="M12.5 8.75V3.75C12.5 3.41848 12.6317 3.10054 12.8661 2.86612C13.1005 2.6317 13.4185 2.5 13.75 2.5C14.0815 2.5 14.3995 2.6317 14.6339 2.86612C14.8683 3.10054 15 3.41848 15 3.75V8.75C15 9.08152 14.8683 9.39946 14.6339 9.63388C14.3995 9.8683 14.0815 10 13.75 10C13.4185 10 13.1005 9.8683 12.8661 9.63388C12.6317 9.39946 12.5 9.08152 12.5 8.75ZM18.75 10C19.0815 10 19.3995 9.8683 19.6339 9.63388C19.8683 9.39946 20 9.08152 20 8.75V3.75C20 3.41848 19.8683 3.10054 19.6339 2.86612C19.3995 2.6317 19.0815 2.5 18.75 2.5C18.4185 2.5 18.1005 2.6317 17.8661 2.86612C17.6317 3.10054 17.5 3.41848 17.5 3.75V8.75C17.5 9.08152 17.6317 9.39946 17.8661 9.63388C18.1005 9.8683 18.4185 10 18.75 10ZM23.75 10C24.0815 10 24.3995 9.8683 24.6339 9.63388C24.8683 9.39946 25 9.08152 25 8.75V3.75C25 3.41848 24.8683 3.10054 24.6339 2.86612C24.3995 2.6317 24.0815 2.5 23.75 2.5C23.4185 2.5 23.1005 2.6317 22.8661 2.86612C22.6317 3.10054 22.5 3.41848 22.5 3.75V8.75C22.5 9.08152 22.6317 9.39946 22.8661 9.63388C23.1005 9.8683 23.4185 10 23.75 10ZM38.75 18.75V20C38.7495 21.5899 38.1431 23.1199 37.0542 24.2784C35.9654 25.437 34.4759 26.137 32.8891 26.2359C32.0364 28.6478 30.5847 30.8033 28.6703 32.5H32.5C32.8315 32.5 33.1495 32.6317 33.3839 32.8661C33.6183 33.1005 33.75 33.4185 33.75 33.75C33.75 34.0815 33.6183 34.3995 33.3839 34.6339C33.1495 34.8683 32.8315 35 32.5 35H5C4.66848 35 4.35054 34.8683 4.11612 34.6339C3.8817 34.3995 3.75 34.0815 3.75 33.75C3.75 33.4185 3.8817 33.1005 4.11612 32.8661C4.35054 32.6317 4.66848 32.5 5 32.5H8.83438C7.23953 31.091 5.96171 29.3597 5.08528 27.4205C4.20884 25.4812 3.75374 23.3781 3.75 21.25V13.75C3.75 13.4185 3.8817 13.1005 4.11612 12.8661C4.35054 12.6317 4.66848 12.5 5 12.5H32.5C34.1576 12.5 35.7473 13.1585 36.9194 14.3306C38.0915 15.5027 38.75 17.0924 38.75 18.75ZM31.25 15H6.25V21.25C6.25482 23.597 6.91808 25.8956 8.16438 27.8843C9.41067 29.8731 11.19 31.4723 13.3 32.5H24.2C26.31 31.4723 28.0893 29.8731 29.3356 27.8843C30.5819 25.8956 31.2452 23.597 31.25 21.25V15ZM36.25 18.75C36.2498 17.9747 36.0092 17.2186 35.5615 16.5856C35.1138 15.9527 34.4809 15.4741 33.75 15.2156V21.25C33.7491 22.035 33.6864 22.8186 33.5625 23.5938C34.3381 23.3646 35.0188 22.8909 35.5031 22.2432C35.9875 21.5956 36.2494 20.8087 36.25 20V18.75Z" fill="#343330"/>
</svg>
