<svg width="40" height="40" viewBox="0 0 40 40" fill="none" xmlns="http://www.w3.org/2000/svg">
<path d="M21.2501 18.7501V27.5001C21.2501 27.8316 21.1184 28.1495 20.884 28.3839C20.6495 28.6184 20.3316 28.7501 20.0001 28.7501C19.6686 28.7501 19.3506 28.6184 19.1162 28.3839C18.8818 28.1495 18.7501 27.8316 18.7501 27.5001V18.7501C18.7501 18.4185 18.8818 18.1006 19.1162 17.8662C19.3506 17.6318 19.6686 17.5001 20.0001 17.5001C20.3316 17.5001 20.6495 17.6318 20.884 17.8662C21.1184 18.1006 21.2501 18.4185 21.2501 18.7501ZM27.0063 18.6251L26.1313 27.3751C26.114 27.5389 26.1293 27.7045 26.1762 27.8624C26.2232 28.0203 26.3009 28.1674 26.4048 28.2952C26.5088 28.4229 26.637 28.5289 26.7821 28.607C26.9271 28.685 27.0862 28.7337 27.2501 28.7501C27.2922 28.7524 27.3345 28.7524 27.3766 28.7501C27.6863 28.7497 27.9847 28.6344 28.2142 28.4266C28.4437 28.2187 28.5879 27.9331 28.6188 27.6251L29.4938 18.8751C29.527 18.5452 29.4277 18.2157 29.2179 17.959C29.0081 17.7023 28.7049 17.5395 28.3751 17.5063C28.0452 17.4732 27.7157 17.5724 27.459 17.7822C27.2023 17.992 27.0395 18.2952 27.0063 18.6251ZM12.9938 18.6251C12.9607 18.2952 12.7978 17.992 12.5412 17.7822C12.2845 17.5724 11.9549 17.4732 11.6251 17.5063C11.2952 17.5395 10.992 17.7023 10.7822 17.959C10.5724 18.2157 10.4732 18.5452 10.5063 18.8751L11.3813 27.6251C11.4124 27.9345 11.5577 28.2212 11.7889 28.4292C12.02 28.6372 12.3204 28.7516 12.6313 28.7501C12.6735 28.7524 12.7157 28.7524 12.7579 28.7501C12.9212 28.7336 13.0797 28.6852 13.2243 28.6076C13.369 28.5299 13.4969 28.4245 13.6008 28.2974C13.7046 28.1703 13.7825 28.024 13.8298 27.8668C13.8771 27.7096 13.8931 27.5446 13.8766 27.3813L12.9938 18.6251ZM37.4891 13.9157L35.1345 31.5813C35.0523 32.1808 34.7563 32.7305 34.3009 33.129C33.8455 33.5276 33.2615 33.7481 32.6563 33.7501H7.34383C6.73869 33.7481 6.15464 33.5276 5.69926 33.129C5.24388 32.7305 4.94785 32.1808 4.86571 31.5813L2.51102 13.9157C2.48742 13.7391 2.50183 13.5595 2.55329 13.389C2.60475 13.2184 2.69208 13.0608 2.80941 12.9268C2.92674 12.7927 3.07137 12.6853 3.23361 12.6117C3.39584 12.5381 3.57194 12.5 3.75008 12.5001H10.6829L19.0626 2.92662C19.1799 2.79361 19.3241 2.68709 19.4858 2.61412C19.6474 2.54115 19.8227 2.50342 20.0001 2.50342C20.1774 2.50342 20.3527 2.54115 20.5144 2.61412C20.676 2.68709 20.8203 2.79361 20.9376 2.92662L29.3173 12.5001H36.2501C36.4282 12.5 36.6043 12.5381 36.7666 12.6117C36.9288 12.6853 37.0734 12.7927 37.1908 12.9268C37.3081 13.0608 37.3954 13.2184 37.4469 13.389C37.4983 13.5595 37.5127 13.7391 37.4891 13.9157ZM14.0048 12.5001H25.9954L20.0001 5.6485L14.0048 12.5001ZM34.822 15.0001H5.17821L7.34383 31.2501H32.6563L34.822 15.0001Z" fill="#343330"/>
</svg>
