<svg width="40" height="40" viewBox="0 0 40 40" fill="none" xmlns="http://www.w3.org/2000/svg">
<path d="M39.3371 13.8967L20.5871 3.89667C20.4063 3.80037 20.2045 3.75 19.9996 3.75C19.7947 3.75 19.593 3.80037 19.4121 3.89667L0.662109 13.8967C0.462116 14.0033 0.29486 14.1622 0.178234 14.3565C0.0616083 14.5508 0 14.7732 0 14.9998C0 15.2264 0.0616083 15.4488 0.178234 15.6431C0.29486 15.8374 0.462116 15.9963 0.662109 16.1029L4.99961 18.417V25.9826C4.99831 26.5966 5.22428 27.1894 5.63398 27.6467C7.68086 29.9264 12.2668 33.7498 19.9996 33.7498C22.5636 33.771 25.1084 33.3066 27.4996 32.381V37.4998C27.4996 37.8313 27.6313 38.1493 27.8657 38.3837C28.1001 38.6181 28.4181 38.7498 28.7496 38.7498C29.0811 38.7498 29.3991 38.6181 29.6335 38.3837C29.8679 38.1493 29.9996 37.8313 29.9996 37.4998V31.1732C31.6296 30.2323 33.1026 29.0424 34.3652 27.6467C34.7749 27.1894 35.0009 26.5966 34.9996 25.9826V18.417L39.3371 16.1029C39.5371 15.9963 39.7044 15.8374 39.821 15.6431C39.9376 15.4488 39.9992 15.2264 39.9992 14.9998C39.9992 14.7732 39.9376 14.5508 39.821 14.3565C39.7044 14.1622 39.5371 14.0033 39.3371 13.8967ZM19.9996 31.2498C13.2387 31.2498 9.26211 27.9467 7.49961 25.9826V19.7498L19.4121 26.1029C19.593 26.1992 19.7947 26.2496 19.9996 26.2496C20.2045 26.2496 20.4063 26.1992 20.5871 26.1029L27.4996 22.417V29.6576C25.5309 30.5764 23.0496 31.2498 19.9996 31.2498ZM32.4996 25.9764C31.7503 26.8078 30.9119 27.5545 29.9996 28.2029V21.0826L32.4996 19.7498V25.9764ZM29.3746 18.5842L29.3402 18.5639L20.5902 13.8967C20.2983 13.7476 19.9595 13.7191 19.6468 13.8174C19.334 13.9157 19.0725 14.1329 18.9184 14.4223C18.7643 14.7116 18.73 15.0499 18.8229 15.3643C18.9159 15.6786 19.1286 15.9439 19.4152 16.1029L26.7184 19.9998L19.9996 23.5826L3.90586 14.9998L19.9996 6.41698L36.0934 14.9998L29.3746 18.5842Z" fill="#343330"/>
</svg>
