<svg width="40" height="40" viewBox="0 0 40 40" fill="none" xmlns="http://www.w3.org/2000/svg">
<path d="M32.5 7.5H7.5C6.50544 7.5 5.55161 7.89509 4.84835 8.59835C4.14509 9.30161 3.75 10.2554 3.75 11.25V28.75C3.75 29.7446 4.14509 30.6984 4.84835 31.4017C5.55161 32.1049 6.50544 32.5 7.5 32.5H32.5C33.4946 32.5 34.4484 32.1049 35.1517 31.4017C35.8549 30.6984 36.25 29.7446 36.25 28.75V11.25C36.25 10.2554 35.8549 9.30161 35.1517 8.59835C34.4484 7.89509 33.4946 7.5 32.5 7.5ZM6.25 15H33.75V17.5H25C24.6685 17.5 24.3505 17.6317 24.1161 17.8661C23.8817 18.1005 23.75 18.4185 23.75 18.75C23.75 19.7446 23.3549 20.6984 22.6517 21.4017C21.9484 22.1049 20.9946 22.5 20 22.5C19.0054 22.5 18.0516 22.1049 17.3483 21.4017C16.6451 20.6984 16.25 19.7446 16.25 18.75C16.25 18.4185 16.1183 18.1005 15.8839 17.8661C15.6495 17.6317 15.3315 17.5 15 17.5H6.25V15ZM7.5 10H32.5C32.8315 10 33.1495 10.1317 33.3839 10.3661C33.6183 10.6005 33.75 10.9185 33.75 11.25V12.5H6.25V11.25C6.25 10.9185 6.3817 10.6005 6.61612 10.3661C6.85054 10.1317 7.16848 10 7.5 10ZM32.5 30H7.5C7.16848 30 6.85054 29.8683 6.61612 29.6339C6.3817 29.3995 6.25 29.0815 6.25 28.75V20H13.875C14.1619 21.4129 14.9284 22.6831 16.0447 23.5955C17.1609 24.5079 18.5583 25.0063 20 25.0063C21.4417 25.0063 22.8391 24.5079 23.9553 23.5955C25.0716 22.6831 25.8381 21.4129 26.125 20H33.75V28.75C33.75 29.0815 33.6183 29.3995 33.3839 29.6339C33.1495 29.8683 32.8315 30 32.5 30Z" fill="#343330"/>
</svg>
