<svg width="40" height="40" viewBox="0 0 40 40" fill="none" xmlns="http://www.w3.org/2000/svg">
<path d="M27.6562 20.0002H26.1448L27.6159 16.3771C27.6461 16.31 27.6624 16.2375 27.6639 16.164C27.6654 16.0904 27.6521 16.0174 27.6247 15.9491C27.5973 15.8808 27.5564 15.8188 27.5044 15.7667C27.4525 15.7146 27.3906 15.6735 27.3224 15.6459C27.2542 15.6183 27.1811 15.6048 27.1076 15.606C27.034 15.6073 26.9615 15.6234 26.8943 15.6534C26.8271 15.6834 26.7667 15.7266 26.7166 15.7805C26.6665 15.8344 26.6278 15.8978 26.6028 15.967L24.9622 20.0002H22.1451L20.5045 15.967C20.4635 15.8662 20.3934 15.78 20.3032 15.7193C20.213 15.6586 20.1067 15.6262 19.9979 15.6262C19.8892 15.6262 19.7829 15.6586 19.6927 15.7193C19.6025 15.78 19.5324 15.8662 19.4914 15.967L17.8508 20.0002H15.0357L13.3951 15.967C13.3371 15.838 13.2314 15.7364 13.1001 15.6837C12.9688 15.631 12.8222 15.6313 12.6911 15.6843C12.56 15.7374 12.4546 15.8392 12.3969 15.9684C12.3393 16.0976 12.334 16.2441 12.382 16.3771L13.8531 20.0002H12.3438C12.1987 20.0002 12.0596 20.0578 11.9571 20.1603C11.8545 20.2629 11.7969 20.402 11.7969 20.547C11.7969 20.6921 11.8545 20.8312 11.9571 20.9337C12.0596 21.0363 12.1987 21.0939 12.3438 21.0939H14.2995L15.9401 25.1271C15.9811 25.2278 16.0512 25.3141 16.1414 25.3748C16.2317 25.4355 16.3379 25.4679 16.4467 25.4679C16.5554 25.4679 16.6617 25.4355 16.7519 25.3748C16.8422 25.3141 16.9122 25.2278 16.9532 25.1271L18.5938 21.0939H21.413L23.0536 25.1271C23.0946 25.2278 23.1647 25.3141 23.2549 25.3748C23.3451 25.4355 23.4514 25.4679 23.5602 25.4679C23.6689 25.4679 23.7752 25.4355 23.8654 25.3748C23.9556 25.3141 24.0257 25.2278 24.0667 25.1271L25.7073 21.0939H27.6562C27.8013 21.0939 27.9404 21.0363 28.0429 20.9337C28.1455 20.8312 28.2031 20.6921 28.2031 20.547C28.2031 20.402 28.1455 20.2629 28.0429 20.1603C27.9404 20.0578 27.8013 20.0002 27.6562 20.0002ZM16.4453 23.4694L15.4801 21.0939H17.4105L16.4453 23.4694ZM19.0348 20.0002L20 17.6254L20.9652 20.0002H19.0348ZM23.5547 23.4694L22.5895 21.0939H24.5199L23.5547 23.4694Z" fill="#343330"/>
<path d="M32.5 6.25H7.5C6.83696 6.25 6.20107 6.51339 5.73223 6.98223C5.26339 7.45107 5 8.08696 5 8.75V17.5C5 25.7375 8.9875 30.7297 12.3328 33.4672C15.9359 36.4141 19.5203 37.4156 19.6766 37.4562C19.8914 37.5147 20.118 37.5147 20.3328 37.4562C20.4891 37.4156 24.0688 36.4141 27.6766 33.4672C31.0125 30.7297 35 25.7375 35 17.5V8.75C35 8.08696 34.7366 7.45107 34.2678 6.98223C33.7989 6.51339 33.163 6.25 32.5 6.25ZM32.5 17.5C32.5 23.2922 30.3656 27.9937 26.1562 31.4719C24.3239 32.9808 22.2399 34.155 20 34.9406C17.7894 34.1687 15.7312 33.0153 13.9188 31.5328C9.65938 28.0484 7.5 23.3281 7.5 17.5V8.75H32.5V17.5Z" fill="#343330"/>
</svg>
