<svg width="40" height="40" viewBox="0 0 40 40" fill="none" xmlns="http://www.w3.org/2000/svg">
<path d="M26.7188 16.7967V19.8436C26.7188 19.9783 26.6652 20.1075 26.57 20.2027C26.4748 20.2979 26.3456 20.3514 26.2109 20.3514H23.1641C23.0294 20.3514 22.9002 20.2979 22.805 20.2027C22.7098 20.1075 22.6562 19.9783 22.6562 19.8436C22.6562 19.7089 22.7098 19.5798 22.805 19.4845C22.9002 19.3893 23.0294 19.3358 23.1641 19.3358H24.9852L24.0565 18.4072C23.1128 17.4591 21.8314 16.9242 20.4936 16.9199H20.465C19.1385 16.9168 17.864 17.436 16.9173 18.3653C16.8204 18.4558 16.6918 18.5048 16.5592 18.5017C16.4265 18.4987 16.3004 18.4439 16.2076 18.349C16.1149 18.2541 16.063 18.1267 16.063 17.994C16.063 17.8614 16.1149 17.734 16.2077 17.6391C17.355 16.5177 18.8983 15.894 20.5026 15.9034C22.107 15.9128 23.6428 16.5545 24.777 17.6892L25.7031 18.6179V16.7967C25.7031 16.6621 25.7566 16.5329 25.8519 16.4377C25.9471 16.3424 26.0763 16.2889 26.2109 16.2889C26.3456 16.2889 26.4748 16.3424 26.57 16.4377C26.6652 16.5329 26.7188 16.6621 26.7188 16.7967ZM24.3327 25.3845C23.3766 26.3184 22.0909 26.8377 20.7545 26.8299C19.418 26.822 18.1385 26.2876 17.1935 25.3426L16.2648 24.4139H18.0859C18.2206 24.4139 18.3498 24.3604 18.445 24.2652C18.5402 24.17 18.5938 24.0408 18.5938 23.9061C18.5938 23.7714 18.5402 23.6423 18.445 23.547C18.3498 23.4518 18.2206 23.3983 18.0859 23.3983H15.0391C14.9044 23.3983 14.7752 23.4518 14.68 23.547C14.5848 23.6423 14.5312 23.7714 14.5312 23.9061V26.953C14.5312 27.0877 14.5848 27.2168 14.68 27.3121C14.7752 27.4073 14.9044 27.4608 15.0391 27.4608C15.1737 27.4608 15.3029 27.4073 15.3981 27.3121C15.4934 27.2168 15.5469 27.0877 15.5469 26.953V25.1319L16.4755 26.0605C17.6081 27.1988 19.1462 27.8408 20.752 27.8455H20.7856C22.3776 27.8496 23.9072 27.2263 25.043 26.1107C25.1357 26.0158 25.1876 25.8884 25.1876 25.7557C25.1876 25.6231 25.1357 25.4957 25.043 25.4008C24.9503 25.3059 24.8241 25.2511 24.6915 25.248C24.5588 25.245 24.4303 25.294 24.3333 25.3845H24.3327Z" fill="#343330"/>
<path d="M37.4829 30.9562L35.2547 12.2063C35.1825 11.5953 34.8875 11.0325 34.4263 10.6255C33.965 10.2184 33.3699 9.99574 32.7547 10H27.5C27.5 8.01088 26.7099 6.10322 25.3034 4.6967C23.8968 3.29018 21.9892 2.5 20 2.5C18.0109 2.5 16.1033 3.29018 14.6967 4.6967C13.2902 6.10322 12.5 8.01088 12.5 10H7.23911C6.62396 9.99574 6.02883 10.2184 5.56759 10.6255C5.10635 11.0325 4.81138 11.5953 4.73911 12.2063L2.51099 30.9562C2.47015 31.3062 2.50375 31.6608 2.60958 31.9969C2.7154 32.3329 2.89107 32.6428 3.12505 32.9063C3.36072 33.1708 3.64952 33.3826 3.97259 33.528C4.29567 33.6734 4.64577 33.749 5.00005 33.75H34.9875C35.3439 33.7508 35.6964 33.676 36.0218 33.5306C36.3472 33.3851 36.638 33.1723 36.875 32.9063C37.1079 32.6423 37.2824 32.3322 37.3872 31.9962C37.4919 31.6601 37.5245 31.3058 37.4829 30.9562ZM20 5C21.3261 5 22.5979 5.52678 23.5356 6.46447C24.4733 7.40215 25 8.67392 25 10H15C15 8.67392 15.5268 7.40215 16.4645 6.46447C17.4022 5.52678 18.674 5 20 5ZM5.00005 31.25L7.23911 12.5H32.7735L34.9875 31.25H5.00005Z" fill="#343330"/>
</svg>
