<svg width="40" height="34" viewBox="0 0 40 34" fill="none" xmlns="http://www.w3.org/2000/svg">
<path d="M40 3.07692V32.3077C39.9999 32.5699 39.9327 32.8277 39.8049 33.0567C39.6771 33.2857 39.4929 33.4782 39.2698 33.6159C39.0467 33.7537 38.7921 33.8321 38.5301 33.8438C38.2682 33.8555 38.0076 33.8 37.7731 33.6827L32.3077 30.95L26.8423 33.6827C26.6286 33.7896 26.3929 33.8453 26.1538 33.8453C25.9148 33.8453 25.6791 33.7896 25.4654 33.6827L20 30.95L14.5346 33.6827C14.3209 33.7896 14.0852 33.8453 13.8462 33.8453C13.6071 33.8453 13.3714 33.7896 13.1577 33.6827L7.69231 30.95L2.22692 33.6827C1.99243 33.8 1.73184 33.8555 1.46988 33.8438C1.20793 33.8321 0.953314 33.7537 0.730203 33.6159C0.507092 33.4782 0.322894 33.2857 0.195096 33.0567C0.0672972 32.8277 0.000139985 32.5699 0 32.3077V3.07692C0 2.26087 0.324175 1.47824 0.90121 0.90121C1.47824 0.324175 2.26087 0 3.07692 0H36.9231C37.7391 0 38.5218 0.324175 39.0988 0.90121C39.6758 1.47824 40 2.26087 40 3.07692ZM36.9231 3.07692H3.07692V29.8192L7.00385 27.8538C7.21758 27.7469 7.4533 27.6912 7.69231 27.6912C7.93131 27.6912 8.16703 27.7469 8.38077 27.8538L13.8462 30.5885L19.3115 27.8538C19.5253 27.7469 19.761 27.6912 20 27.6912C20.239 27.6912 20.4747 27.7469 20.6885 27.8538L26.1538 30.5885L31.6192 27.8538C31.833 27.7469 32.0687 27.6912 32.3077 27.6912C32.5467 27.6912 32.7824 27.7469 32.9962 27.8538L36.9231 29.8192V3.07692Z" fill="#343330"/>
<path d="M12.3968 20.9336H11.2369V11.4491L8.57576 12.6364V11.5037L11.4006 10.2346H12.3968V20.9336ZM21.2571 8.96544L16.2624 22.3529H15.1161L20.1108 8.96544H21.2571ZM29.6947 20.9336H28.5074L23.4718 12.3908V20.9336H22.2845V10.2346H23.4718L28.5074 18.7774V10.2346H29.6947V20.9336Z" fill="#555555"/>
</svg>
