<svg width="40" height="40" viewBox="0 0 40 40" fill="none" xmlns="http://www.w3.org/2000/svg">
<path d="M36.25 15C36.2507 14.8838 36.2349 14.7681 36.2031 14.6563L33.9609 6.8125C33.8102 6.29205 33.4952 5.83432 33.0629 5.50765C32.6307 5.18097 32.1043 5.0029 31.5625 5H8.4375C7.89568 5.0029 7.36933 5.18097 6.93706 5.50765C6.50478 5.83432 6.18977 6.29205 6.03906 6.8125L3.79844 14.6563C3.76616 14.768 3.74985 14.8837 3.75 15V17.5C3.75 18.4703 3.97591 19.4272 4.40983 20.2951C4.84375 21.1629 5.47378 21.9178 6.25 22.5V33.75C6.25 34.0815 6.3817 34.3995 6.61612 34.6339C6.85054 34.8683 7.16848 35 7.5 35H32.5C32.8315 35 33.1495 34.8683 33.3839 34.6339C33.6183 34.3995 33.75 34.0815 33.75 33.75V22.5C34.5262 21.9178 35.1562 21.1629 35.5902 20.2951C36.0241 19.4272 36.25 18.4703 36.25 17.5V15ZM8.4375 7.5H31.5625L33.3469 13.75H6.65781L8.4375 7.5ZM16.25 16.25H23.75V17.5C23.75 18.4946 23.3549 19.4484 22.6517 20.1517C21.9484 20.8549 20.9946 21.25 20 21.25C19.0054 21.25 18.0516 20.8549 17.3483 20.1517C16.6451 19.4484 16.25 18.4946 16.25 17.5V16.25ZM13.75 16.25V17.5C13.7498 18.1449 13.5833 18.7787 13.2665 19.3405C12.9498 19.9022 12.4936 20.3727 11.942 20.7067C11.3903 21.0406 10.7619 21.2267 10.1173 21.2468C9.47281 21.267 8.83396 21.1207 8.2625 20.8219C8.17555 20.7542 8.0799 20.6985 7.97813 20.6562C7.44856 20.3172 7.01274 19.8505 6.71076 19.2989C6.40878 18.7474 6.25034 18.1288 6.25 17.5V16.25H13.75ZM31.25 32.5H8.75V23.625C9.1615 23.708 9.58022 23.7498 10 23.75C10.9703 23.75 11.9272 23.5241 12.7951 23.0902C13.6629 22.6562 14.4178 22.0262 15 21.25C15.5822 22.0262 16.3371 22.6562 17.2049 23.0902C18.0728 23.5241 19.0297 23.75 20 23.75C20.9703 23.75 21.9272 23.5241 22.7951 23.0902C23.6629 22.6562 24.4178 22.0262 25 21.25C25.5822 22.0262 26.3371 22.6562 27.2049 23.0902C28.0728 23.5241 29.0297 23.75 30 23.75C30.4198 23.7498 30.8385 23.708 31.25 23.625V32.5ZM32.0203 20.6562C31.9199 20.6986 31.8253 20.7537 31.7391 20.8203C31.1677 21.1194 30.5288 21.2661 29.8842 21.2461C29.2395 21.2262 28.6109 21.0404 28.0591 20.7066C27.5073 20.3728 27.0508 19.9023 26.7339 19.3406C26.417 18.7789 26.2504 18.1449 26.25 17.5V16.25H33.75V17.5C33.7495 18.1289 33.5908 18.7476 33.2886 19.2992C32.9863 19.8507 32.5502 20.3174 32.0203 20.6562Z" fill="#343330"/>
</svg>
