<svg width="40" height="40" viewBox="0 0 40 40" fill="none" xmlns="http://www.w3.org/2000/svg">
<path d="M20.625 3.75C16.4824 3.75455 12.5108 5.40221 9.58148 8.33148C6.65221 11.2608 5.00455 15.2324 5 19.375V32.5C5 33.163 5.26339 33.7989 5.73223 34.2678C6.20107 34.7366 6.83696 35 7.5 35H20.625C24.769 35 28.7433 33.3538 31.6735 30.4235C34.6038 27.4933 36.25 23.519 36.25 19.375C36.25 15.231 34.6038 11.2567 31.6735 8.32646C28.7433 5.3962 24.769 3.75 20.625 3.75ZM20.625 32.5H7.5V19.375C7.5 16.7791 8.26977 14.2415 9.71196 12.0831C11.1542 9.92475 13.204 8.24248 15.6023 7.24908C18.0006 6.25568 20.6396 5.99576 23.1856 6.50219C25.7316 7.00862 28.0702 8.25866 29.9058 10.0942C31.7413 11.9298 32.9914 14.2684 33.4978 16.8144C34.0042 19.3604 33.7443 21.9994 32.7509 24.3977C31.7575 26.796 30.0753 28.8458 27.9169 30.288C25.7585 31.7302 23.2209 32.5 20.625 32.5ZM22.5 20C22.5 20.3708 22.39 20.7334 22.184 21.0417C21.978 21.35 21.6851 21.5904 21.3425 21.7323C20.9999 21.8742 20.6229 21.9113 20.2592 21.839C19.8955 21.7666 19.5614 21.588 19.2992 21.3258C19.037 21.0636 18.8584 20.7295 18.786 20.3658C18.7137 20.0021 18.7508 19.6251 18.8927 19.2825C19.0346 18.9399 19.275 18.647 19.5833 18.441C19.8916 18.235 20.2542 18.125 20.625 18.125C21.1223 18.125 21.5992 18.3225 21.9508 18.6742C22.3025 19.0258 22.5 19.5027 22.5 20ZM15.625 20C15.625 20.3708 15.515 20.7334 15.309 21.0417C15.103 21.35 14.8101 21.5904 14.4675 21.7323C14.1249 21.8742 13.7479 21.9113 13.3842 21.839C13.0205 21.7666 12.6864 21.588 12.4242 21.3258C12.162 21.0636 11.9834 20.7295 11.911 20.3658C11.8387 20.0021 11.8758 19.6251 12.0177 19.2825C12.1596 18.9399 12.4 18.647 12.7083 18.441C13.0166 18.235 13.3792 18.125 13.75 18.125C14.2473 18.125 14.7242 18.3225 15.0758 18.6742C15.4275 19.0258 15.625 19.5027 15.625 20ZM29.375 20C29.375 20.3708 29.265 20.7334 29.059 21.0417C28.853 21.35 28.5601 21.5904 28.2175 21.7323C27.8749 21.8742 27.4979 21.9113 27.1342 21.839C26.7705 21.7666 26.4364 21.588 26.1742 21.3258C25.912 21.0636 25.7334 20.7295 25.661 20.3658C25.5887 20.0021 25.6258 19.6251 25.7677 19.2825C25.9096 18.9399 26.15 18.647 26.4583 18.441C26.7666 18.235 27.1292 18.125 27.5 18.125C27.9973 18.125 28.4742 18.3225 28.8258 18.6742C29.1775 19.0258 29.375 19.5027 29.375 20Z" fill="#343330"/>
</svg>
