<svg width="40" height="40" viewBox="0 0 40 40" fill="none" xmlns="http://www.w3.org/2000/svg">
<path d="M35 10H27.5V8.75C27.5 7.75544 27.1049 6.80161 26.4017 6.09835C25.6984 5.39509 24.7446 5 23.75 5H16.25C15.2554 5 14.3016 5.39509 13.5983 6.09835C12.8951 6.80161 12.5 7.75544 12.5 8.75V10H5C4.33696 10 3.70107 10.2634 3.23223 10.7322C2.76339 11.2011 2.5 11.837 2.5 12.5V30C2.5 30.663 2.76339 31.2989 3.23223 31.7678C3.70107 32.2366 4.33696 32.5 5 32.5H35C35.663 32.5 36.2989 32.2366 36.7678 31.7678C37.2366 31.2989 37.5 30.663 37.5 30V12.5C37.5 11.837 37.2366 11.2011 36.7678 10.7322C36.2989 10.2634 35.663 10 35 10ZM15 8.75C15 8.41848 15.1317 8.10054 15.3661 7.86612C15.6005 7.6317 15.9185 7.5 16.25 7.5H23.75C24.0815 7.5 24.3995 7.6317 24.6339 7.86612C24.8683 8.10054 25 8.41848 25 8.75V10H15V8.75ZM35 12.5V17.5H30V16.25C30 15.9185 29.8683 15.6005 29.6339 15.3661C29.3995 15.1317 29.0815 15 28.75 15C28.4185 15 28.1005 15.1317 27.8661 15.3661C27.6317 15.6005 27.5 15.9185 27.5 16.25V17.5H12.5V16.25C12.5 15.9185 12.3683 15.6005 12.1339 15.3661C11.8995 15.1317 11.5815 15 11.25 15C10.9185 15 10.6005 15.1317 10.3661 15.3661C10.1317 15.6005 10 15.9185 10 16.25V17.5H5V12.5H35ZM35 30H5V20H10V21.25C10 21.5815 10.1317 21.8995 10.3661 22.1339C10.6005 22.3683 10.9185 22.5 11.25 22.5C11.5815 22.5 11.8995 22.3683 12.1339 22.1339C12.3683 21.8995 12.5 21.5815 12.5 21.25V20H27.5V21.25C27.5 21.5815 27.6317 21.8995 27.8661 22.1339C28.1005 22.3683 28.4185 22.5 28.75 22.5C29.0815 22.5 29.3995 22.3683 29.6339 22.1339C29.8683 21.8995 30 21.5815 30 21.25V20H35V30Z" fill="#343330"/>
</svg>
