<svg width="40" height="40" viewBox="0 0 40 40" fill="none" xmlns="http://www.w3.org/2000/svg">
<path d="M20.9085 1.81787C17.4923 1.81787 14.1527 2.8309 11.3123 4.72885C8.47178 6.6268 6.25789 9.32443 4.95056 12.4806C3.64323 15.6368 3.30117 19.1098 3.96764 22.4603C4.63411 25.8109 6.27918 28.8886 8.69481 31.3043C11.1104 33.7199 14.1882 35.365 17.5387 36.0314C20.8893 36.6979 24.3623 36.3558 27.5185 35.0485C30.6746 33.7412 33.3723 31.5273 35.2702 28.6868C37.1682 25.8463 38.1812 22.5068 38.1812 19.0906C38.1764 14.5111 36.355 10.1205 33.1168 6.88228C29.8786 3.64406 25.488 1.82271 20.9085 1.81787ZM20.9085 33.706C18.0178 33.706 15.1921 32.8488 12.7886 31.2428C10.3851 29.6369 8.51183 27.3543 7.40562 24.6837C6.29942 22.0131 6.00998 19.0744 6.57392 16.2393C7.13786 13.4042 8.52984 10.8 10.5738 8.75596C12.6178 6.71196 15.222 5.31998 18.0572 4.75604C20.8923 4.19211 23.8309 4.48154 26.5015 5.58774C29.1722 6.69395 31.4548 8.56724 33.0607 10.9707C34.6667 13.3742 35.5239 16.1999 35.5239 19.0906C35.5195 22.9655 33.9782 26.6804 31.2383 29.4204C28.4983 32.1603 24.7834 33.7016 20.9085 33.706Z" fill="#343330"/>
<path d="M29.0803 20.0205H27.4785L29.0375 16.181C29.0695 16.1099 29.0868 16.0331 29.0884 15.9551C29.09 15.8772 29.0758 15.7997 29.0468 15.7274C29.0177 15.6551 28.9744 15.5893 28.9193 15.5341C28.8643 15.4789 28.7987 15.4354 28.7264 15.4061C28.6542 15.3769 28.5768 15.3625 28.4988 15.3639C28.4209 15.3652 28.344 15.3823 28.2728 15.4141C28.2016 15.4458 28.1376 15.4916 28.0845 15.5487C28.0314 15.6058 27.9904 15.673 27.9639 15.7463L26.2253 20.0205H23.2399L21.5012 15.7463C21.4578 15.6396 21.3835 15.5482 21.2879 15.4839C21.1923 15.4196 21.0797 15.3852 20.9644 15.3852C20.8492 15.3852 20.7366 15.4196 20.641 15.4839C20.5453 15.5482 20.4711 15.6396 20.4276 15.7463L18.689 20.0205H15.7058L13.9672 15.7463C13.9057 15.6096 13.7936 15.502 13.6545 15.4462C13.5154 15.3904 13.3601 15.3906 13.2211 15.4468C13.0822 15.5031 12.9704 15.611 12.9093 15.7479C12.8483 15.8848 12.8426 16.04 12.8936 16.181L14.4525 20.0205H12.853C12.6993 20.0205 12.5519 20.0815 12.4432 20.1902C12.3345 20.2989 12.2734 20.4463 12.2734 20.6C12.2734 20.7537 12.3345 20.9011 12.4432 21.0098C12.5519 21.1185 12.6993 21.1796 12.853 21.1796H14.9256L16.6642 25.4537C16.7077 25.5605 16.7819 25.6518 16.8775 25.7162C16.9732 25.7805 17.0858 25.8148 17.201 25.8148C17.3163 25.8148 17.4289 25.7805 17.5245 25.7162C17.6201 25.6518 17.6944 25.5605 17.7378 25.4537L19.4765 21.1796H22.464L24.2027 25.4537C24.2461 25.5605 24.3204 25.6518 24.416 25.7162C24.5116 25.7805 24.6242 25.8148 24.7395 25.8148C24.8547 25.8148 24.9673 25.7805 25.0629 25.7162C25.1586 25.6518 25.2328 25.5605 25.2763 25.4537L27.0149 21.1796H29.0803C29.234 21.1796 29.3814 21.1185 29.4901 21.0098C29.5987 20.9011 29.6598 20.7537 29.6598 20.6C29.6598 20.4463 29.5987 20.2989 29.4901 20.1902C29.3814 20.0815 29.234 20.0205 29.0803 20.0205ZM17.1996 23.697L16.1767 21.1796H18.2225L17.1996 23.697ZM19.9437 20.0205L20.9666 17.5038L21.9895 20.0205H19.9437ZM24.7337 23.697L23.7108 21.1796H25.7566L24.7337 23.697Z" fill="#343330"/>
</svg>
