<svg width="40" height="40" viewBox="0 0 40 40" fill="none" xmlns="http://www.w3.org/2000/svg">
<path d="M32.9688 16.1609L22.011 20.5359L29.7407 30.475C29.8442 30.6043 29.9209 30.7529 29.9665 30.9122C30.0121 31.0714 30.0255 31.2381 30.0061 31.4026C29.9867 31.5671 29.9348 31.7261 29.8534 31.8703C29.772 32.0146 29.6628 32.1412 29.532 32.2429C29.4013 32.3446 29.2516 32.4192 29.0917 32.4626C28.9319 32.5059 28.765 32.517 28.6008 32.4953C28.4366 32.4735 28.2783 32.4194 28.1352 32.336C27.9921 32.2526 27.8671 32.1416 27.7672 32.0094L20 22.0312L12.2375 32.0172C12.0323 32.2736 11.7343 32.439 11.4081 32.4775C11.0819 32.516 10.7537 32.4245 10.4944 32.2229C10.235 32.0213 10.0655 31.7257 10.0224 31.4001C9.97934 31.0744 10.0662 30.7449 10.2641 30.4828L17.9938 20.5437L7.0313 16.1609C6.7234 16.0366 6.47749 15.7951 6.34768 15.4895C6.21787 15.1838 6.21479 14.8391 6.33911 14.5312C6.46343 14.2234 6.70497 13.9774 7.0106 13.8476C7.31622 13.7178 7.6609 13.7147 7.9688 13.8391L18.75 18.1531V6.25C18.75 5.91848 18.8817 5.60054 19.1162 5.36612C19.3506 5.1317 19.6685 5 20 5C20.3316 5 20.6495 5.1317 20.8839 5.36612C21.1184 5.60054 21.25 5.91848 21.25 6.25V18.1531L32.0313 13.8391C32.1838 13.7775 32.3468 13.7466 32.5113 13.7481C32.6757 13.7495 32.8382 13.7834 32.9895 13.8476C33.1408 13.9119 33.278 14.0054 33.3932 14.1227C33.5084 14.24 33.5994 14.3788 33.661 14.5312C33.7225 14.6837 33.7535 14.8468 33.752 15.0112C33.7505 15.1756 33.7167 15.3381 33.6524 15.4895C33.5881 15.6408 33.4947 15.778 33.3774 15.8932C33.2601 16.0084 33.1213 16.0994 32.9688 16.1609Z" fill="#343330"/>
</svg>
