<svg width="12" height="12" viewBox="0 0 12 12" fill="none" xmlns="http://www.w3.org/2000/svg">
<path d="M9.64034 9.1099C9.67518 9.14474 9.70282 9.1861 9.72167 9.23162C9.74053 9.27714 9.75023 9.32594 9.75023 9.37521C9.75023 9.42448 9.74053 9.47327 9.72167 9.51879C9.70282 9.56432 9.67518 9.60568 9.64034 9.64052C9.6055 9.67536 9.56413 9.703 9.51861 9.72186C9.47309 9.74071 9.4243 9.75042 9.37503 9.75042C9.32575 9.75042 9.27696 9.74071 9.23144 9.72186C9.18592 9.703 9.14455 9.67536 9.10971 9.64052L6.00003 6.53036L2.89034 9.64052C2.81997 9.71089 2.72454 9.75042 2.62503 9.75042C2.52551 9.75042 2.43008 9.71089 2.35971 9.64052C2.28935 9.57016 2.24982 9.47472 2.24982 9.37521C2.24982 9.2757 2.28935 9.18026 2.35971 9.1099L5.46987 6.00021L2.35971 2.89052C2.28935 2.82016 2.24982 2.72472 2.24982 2.62521C2.24982 2.5257 2.28935 2.43026 2.35971 2.3599C2.43008 2.28953 2.52551 2.25 2.62503 2.25C2.72454 2.25 2.81997 2.28953 2.89034 2.3599L6.00003 5.47005L9.10971 2.3599C9.18008 2.28953 9.27551 2.25 9.37503 2.25C9.47454 2.25 9.56997 2.28953 9.64034 2.3599C9.7107 2.43026 9.75023 2.5257 9.75023 2.62521C9.75023 2.72472 9.7107 2.82016 9.64034 2.89052L6.53018 6.00021L9.64034 9.1099Z" fill="#7C7C7C"/>
</svg>
