<svg width="39" height="40" viewBox="0 0 39 40" fill="none" xmlns="http://www.w3.org/2000/svg">
<rect x="1.09082" y="1.54541" width="36.9091" height="36.9091" rx="18.4545" fill="black" stroke="black" stroke-width="2"/>
<path fill-rule="evenodd" clip-rule="evenodd" d="M21.8756 15.6266C23.7537 17.5046 23.7537 20.5496 21.8756 22.4276C19.9976 24.3057 16.9526 24.3057 15.0746 22.4276C13.1965 20.5496 13.1965 17.5046 15.0746 15.6266C16.9526 13.7485 19.9976 13.7485 21.8756 15.6266ZM23.7556 23.3268C25.9387 20.6524 25.7834 16.7059 23.2899 14.2124C20.6307 11.5532 16.3195 11.5532 13.6604 14.2124C11.0012 16.8715 11.0012 21.1827 13.6604 23.8419C16.0035 26.185 19.6295 26.4634 22.2775 24.6772L25.5987 27.9984C25.9892 28.3889 26.6224 28.3889 27.0129 27.9984C27.4034 27.6079 27.4034 26.9747 27.0129 26.5842L23.7556 23.3268Z" fill="white"/>
</svg>
