<svg width="40" height="40" viewBox="0 0 40 40" fill="none" xmlns="http://www.w3.org/2000/svg">
<rect x="0.25" y="0.25" width="39.5" height="39.5" rx="9.75" fill="white"/>
<rect x="0.25" y="0.25" width="39.5" height="39.5" rx="9.75" stroke="#E4E9F1" stroke-width="0.5"/>
<g clip-path="url(#clip0_1090_17438)">
<path d="M29.6781 20.1818L29.5041 20.0762C28.9136 19.5044 28.0904 19.2561 26.9943 19.3174C26.0808 19.3723 25.3555 19.7242 24.802 20.0571C24.802 20.0487 24.802 20.0402 24.802 20.0318C24.8083 19.7399 24.8297 19.4486 24.8662 19.1589C24.9038 18.8643 24.9256 18.568 24.9314 18.2711C24.9414 17.9961 24.8944 17.7219 24.7933 17.4648C24.7809 17.4347 24.7592 17.409 24.7312 17.3914C24.7031 17.3738 24.6701 17.3651 24.6367 17.3665C24.341 17.3729 23.7668 17.5694 23.6243 17.6889L23.5482 17.8505C23.5482 18.1676 23.4721 19.0564 23.3992 19.1641L23.3601 19.2698C23.2365 20.3795 23.2325 21.4988 23.3481 22.6093C23.3612 22.7044 23.5504 22.8492 23.6972 22.901C23.844 22.9528 24.3594 22.8281 24.6487 22.7213L24.7574 22.7055C24.7794 22.7025 24.8005 22.6953 24.8196 22.6843C24.8386 22.6733 24.8552 22.6587 24.8684 22.6414C24.8816 22.6241 24.891 22.6043 24.8963 22.5834C24.9015 22.5625 24.9023 22.5407 24.8988 22.5195C24.8988 22.5195 24.9042 22.2436 24.9042 22.2436C25.1141 21.4172 25.9612 20.4334 26.9617 20.2843C27.5282 20.1977 27.9751 20.3372 28.3275 20.7071C28.3753 20.7736 28.4786 21.3676 28.11 22.0513C27.8316 22.5575 27.277 22.9824 26.5463 23.2497C25.8547 23.5044 25.0935 23.608 24.1539 23.5752L23.2698 22.9971C22.526 22.4888 21.6006 21.8558 20.76 21.5462C20.6132 21.4923 20.3479 21.2788 20.1902 21.1509L20.1032 21.0822C19.6193 20.7039 18.6983 20.1079 17.9577 19.6291L17.5587 19.3692V19.2878C17.5793 19.2656 18.0436 18.9951 18.0436 18.9951C18.6961 18.6252 18.9951 18.4434 19.0593 18.3494C19.0463 18.3641 19.1463 18.2997 19.1463 18.2997L20.759 17.413C22.3064 16.5856 24.0615 15.6471 24.9836 14.7203L25.0282 14.5787L25.0478 14.4529C25.1084 14.2824 25.1133 14.0979 25.0619 13.9245C25.0538 13.8957 25.038 13.8694 25.016 13.8484C24.994 13.8274 24.9667 13.8125 24.9369 13.8051C24.2181 13.7364 23.2894 14.1549 22.4445 14.9243C22.2892 15.064 22.1142 15.1814 21.9247 15.273L21.7953 15.3428C20.8644 15.8574 18.7657 17.1224 17.663 17.8062C17.7673 16.4163 17.9543 15.0334 18.2231 13.6646L18.1926 13.5018L18.0839 13.2905L17.998 13.1436L17.973 13.1372C17.8913 13.0978 17.8024 13.0748 17.7114 13.0695C17.6204 13.0643 17.5293 13.0769 17.4434 13.1066L17.2259 13.1837L16.9345 13.2894C16.9063 13.2948 16.8801 13.3074 16.8586 13.326C16.8372 13.3446 16.8213 13.3685 16.8127 13.3951C16.2885 14.6273 15.8514 16.6564 15.7535 18.2754C14.9466 17.7834 14.1116 17.3363 13.2524 16.9364L13.2383 16.929L13.1807 16.9174C13.011 16.8952 12.8022 16.7737 12.6011 16.6553L12.2031 16.4048L11.5974 16.0223C11.6039 16.0223 11.4375 15.9874 11.4375 15.9874C11.1754 16.0307 10.6763 16.3594 10.5252 16.5813C10.5063 16.61 10.4968 16.6435 10.498 16.6775C10.5005 16.725 10.5097 16.7719 10.5252 16.817L10.5523 16.9375L10.5806 17.0104C10.8721 17.301 11.6082 17.7861 12.3314 18.1644L13.1687 18.5956L14.4486 19.2793C14.4486 19.2846 14.6661 19.4474 14.6661 19.4474L14.8172 19.5319L14.8433 19.5478L12.5162 21.0611L11.2951 21.8505C11.0663 21.9731 10.8307 22.0832 10.5893 22.1802C10.3563 22.2573 10.1603 22.4144 10.038 22.622L10.0054 22.6907L10.0391 22.7361L10.1315 22.8048L10.2587 22.8851L10.3925 22.975L10.5208 22.994C10.7383 23.0024 11.0558 22.883 11.6528 22.6294C12.1965 22.3927 13.6896 21.5208 14.3257 21.1499L14.5976 20.9913C14.7063 20.9998 14.8336 20.9079 14.9434 20.8265C15.1232 20.6961 15.3159 20.5836 15.5186 20.4904C15.5186 20.4904 15.6209 20.4365 15.71 20.3847C15.71 20.4133 15.71 20.4566 15.71 20.4566C15.7383 22.3483 15.8514 23.7232 16.0634 24.7831V24.8032L16.0841 24.8455C16.1928 24.9955 16.3081 25.4436 16.4103 25.8389L16.6528 26.6283C16.6528 26.6378 16.7224 26.7033 16.7224 26.7033C16.8605 26.7932 17.2814 26.9506 17.5641 26.9147L17.6337 26.9062L17.6783 26.8101C17.7014 26.6909 17.7123 26.5699 17.7109 26.4486C17.7109 26.3039 17.7 26.1443 17.6859 25.9498L17.6674 25.6645C17.5782 24.3488 17.4934 22.4402 17.4934 21.1721C17.4934 21.1372 17.4934 21.1055 17.4934 21.0664C17.7229 21.208 18.7342 21.8262 18.7342 21.8262C20.4534 22.9094 23.0502 24.5475 24.6193 24.9808C24.6584 24.9927 24.7001 24.9943 24.7401 24.9854C24.78 24.9765 24.8168 24.9574 24.8466 24.93C24.8466 24.93 25.0891 24.7789 25.0891 24.7789L25.1326 24.7609C25.2239 24.7197 25.2848 24.5718 25.2946 24.4111C26.618 24.3477 28.4634 23.8521 29.4497 22.6463C29.8039 22.2096 29.9989 21.671 30.0043 21.115C30.0043 20.7145 29.889 20.3668 29.6781 20.1766" fill="#F8B500"/>
</g>
<defs>
<clipPath id="clip0_1090_17438">
<rect width="20" height="13.8462" fill="white" transform="translate(10 13.0771)"/>
</clipPath>
</defs>
</svg>
