<svg width="40" height="40" viewBox="0 0 40 40" fill="none" xmlns="http://www.w3.org/2000/svg">
<rect x="0.25" y="0.25" width="39.5" height="39.5" rx="9.75" fill="white"/>
<rect x="0.25" y="0.25" width="39.5" height="39.5" rx="9.75" stroke="#E4E9F1" stroke-width="0.5"/>
<g clip-path="url(#clip0_1090_17410)">
<path d="M23.7028 11L20.1135 12.7832L16.5293 11L20.1135 17.7491L23.7028 11Z" fill="#FDB913"/>
<path d="M24.9576 16.214L24.9018 16.1689L27.462 15.1055V11.5566L23.0286 13.4201C23.0286 13.4201 20.618 17.9345 20.5647 18.0373C21.5124 18.148 22.3815 18.6128 22.9943 19.3366C23.6071 20.0603 23.9172 20.9884 23.8612 21.931C23.8051 22.8735 23.3872 23.7592 22.6929 24.407C21.9987 25.0547 21.0805 25.4155 20.1262 25.4155C19.172 25.4155 18.2538 25.0547 17.5595 24.407C16.8652 23.7592 16.4473 22.8735 16.3913 21.931C16.3353 20.9884 16.6454 20.0603 17.2581 19.3366C17.8709 18.6128 18.74 18.148 19.6877 18.0373L17.2289 13.4201L12.7727 11.5566V15.118L15.3303 16.1814L15.2746 16.2266C14.1451 17.2017 13.3434 18.4947 12.9764 19.9328C12.6095 21.3708 12.6949 22.8854 13.2212 24.2741C13.7475 25.6629 14.6896 26.8596 15.9217 27.7044C17.1538 28.5493 18.6171 29.0019 20.1161 29.0019C21.6151 29.0019 23.0784 28.5493 24.3105 27.7044C25.5425 26.8596 26.4847 25.6629 27.0109 24.2741C27.5372 22.8854 27.6226 21.3708 27.2557 19.9328C26.8888 18.4947 26.087 17.2017 24.9576 16.2266V16.214Z" fill="#FDB913"/>
</g>
<defs>
<clipPath id="clip0_1090_17410">
<rect width="14.7273" height="18" fill="white" transform="translate(12.75 11)"/>
</clipPath>
</defs>
</svg>
