<svg width="40" height="40" viewBox="0 0 40 40" fill="none" xmlns="http://www.w3.org/2000/svg">
<rect x="0.25" y="0.25" width="39.5" height="39.5" rx="7.75" fill="white"/>
<rect x="0.25" y="0.25" width="39.5" height="39.5" rx="7.75" stroke="#E4E9F1" stroke-width="0.5"/>
<path d="M28.9995 20.001C28.9995 21.7804 28.472 23.52 27.4837 24.9997C26.4953 26.4794 25.0906 27.633 23.4468 28.3146C21.8031 28.9962 19.9942 29.1752 18.2487 28.829C16.5033 28.4829 14.8996 27.6271 13.6404 26.3698C12.3812 25.1125 11.5229 23.5101 11.1741 21.7652C10.8253 20.0203 11.0016 18.2111 11.6807 16.5663C12.3598 14.9216 13.5112 13.515 14.9894 12.5244C16.4676 11.5339 18.2064 11.0037 19.9858 11.001C21.1688 10.9992 22.3406 11.2306 23.4341 11.6821C24.5277 12.1336 25.5214 12.7963 26.3586 13.6322C27.1958 14.4681 27.86 15.4608 28.3131 16.5537C28.7663 17.6465 28.9995 18.8179 28.9995 20.001Z" fill="white"/>
<path d="M19.9852 28.5827C21.6828 28.584 23.3427 28.0819 24.7549 27.1397C26.1671 26.1975 27.2681 24.8577 27.9187 23.2897C28.5693 21.7217 28.7402 19.9959 28.4098 18.3308C28.0795 16.6656 27.2627 15.1358 26.0628 13.9349C24.8628 12.7341 23.3337 11.916 21.6688 11.5844C20.0039 11.2527 18.278 11.4222 16.7095 12.0715C15.141 12.7209 13.8002 13.8208 12.857 15.2323C11.9137 16.6437 11.4102 18.3032 11.4102 20.0008C11.4093 21.1275 11.6304 22.2433 12.0609 23.2844C12.4915 24.3256 13.1229 25.2717 13.9193 26.0687C14.7156 26.8657 15.6613 27.4979 16.7021 27.9293C17.7429 28.3607 18.8585 28.5827 19.9852 28.5827Z" fill="#0083CA"/>
<mask id="mask0_1090_17338" style="mask-type:luminance" maskUnits="userSpaceOnUse" x="11" y="11" width="18" height="18">
<path d="M19.9857 28.5846C21.6816 28.5846 23.3395 28.0817 24.7497 27.1394C26.1599 26.1972 27.2589 24.858 27.908 23.2911C28.557 21.7242 28.7268 20.0001 28.3959 18.3367C28.065 16.6733 27.2484 15.1454 26.0491 13.9461C24.8499 12.7469 23.322 11.9302 21.6586 11.5993C19.9952 11.2685 18.271 11.4383 16.7041 12.0873C15.1373 12.7363 13.798 13.8354 12.8558 15.2456C11.9136 16.6557 11.4106 18.3136 11.4106 20.0096C11.4125 22.2833 12.3165 24.4633 13.9242 26.071C15.5319 27.6788 17.712 28.5828 19.9857 28.5846Z" fill="white"/>
</mask>
<g mask="url(#mask0_1090_17338)">
<path d="M20.0814 24.1417C23.8582 24.1417 27.0799 25.1973 28.4713 26.6847C28.9337 25.5874 29.167 24.4071 29.1568 23.2163C29.0917 20.8463 28.1045 18.5951 26.4051 16.9417C24.7058 15.2884 22.4284 14.3633 20.0574 14.3633C17.6864 14.3633 15.409 15.2884 13.7097 16.9417C12.0103 18.5951 11.0231 20.8463 10.958 23.2163C10.9635 24.3957 11.2083 25.5617 11.6777 26.6436C13.0898 25.1973 16.3183 24.1417 20.0814 24.1417Z" fill="#0083CA"/>
<path d="M20.0813 24.1492C23.8445 24.1492 27.0592 25.1979 28.4507 26.6716C28.9089 25.5874 29.1421 24.4214 29.1361 23.2444C29.1361 20.8374 28.18 18.529 26.478 16.8271C24.7761 15.1251 22.4677 14.1689 20.0607 14.1689C17.6538 14.1689 15.3454 15.1251 13.6435 16.8271C11.9415 18.529 10.9854 20.8374 10.9854 23.2444C10.9863 24.4242 11.2314 25.5911 11.7051 26.6716C13.1308 25.1979 16.325 24.1492 20.0813 24.1492Z" fill="#0085CB"/>
<path d="M20.0817 24.1627C23.8311 24.1627 27.0459 25.1978 28.4237 26.6646C28.8877 25.5822 29.1211 24.415 29.1091 23.2374C29.0442 20.8799 28.0621 18.6408 26.3718 16.9963C24.6814 15.3518 22.4161 14.4316 20.0577 14.4316C17.6994 14.4316 15.434 15.3518 13.7437 16.9963C12.0533 18.6408 11.0712 20.8799 11.0063 23.2374C10.9943 24.415 11.2277 25.5822 11.6918 26.6646C13.1312 25.1978 16.3323 24.1627 20.0817 24.1627Z" fill="#0086CD"/>
<path d="M20.0815 24.1693C23.8241 24.1693 27.0251 25.1974 28.4029 26.6506C28.8619 25.5811 29.0953 24.4283 29.0883 23.2644C28.9974 20.9311 28.0065 18.7236 26.3235 17.1049C24.6405 15.4862 22.396 14.582 20.0609 14.582C17.7258 14.582 15.4814 15.4862 13.7984 17.1049C12.1154 18.7236 11.1245 20.9311 11.0335 23.2644C11.0234 24.4264 11.2569 25.5776 11.719 26.6437C13.131 25.1974 16.3458 24.1693 20.0815 24.1693Z" fill="#0088CE"/>
<path d="M20.0814 24.1832C23.8103 24.1832 27.0045 25.1977 28.3823 26.644C28.8406 25.5839 29.074 24.4402 29.0677 23.2853C28.9769 20.9573 27.9882 18.755 26.309 17.14C24.6298 15.5251 22.3906 14.623 20.0609 14.623C17.7311 14.623 15.4919 15.5251 13.8127 17.14C12.1335 18.755 11.1449 20.9573 11.054 23.2853C11.0441 24.4406 11.2776 25.585 11.7395 26.644C13.1309 25.1977 16.3526 24.1832 20.0814 24.1832Z" fill="#008ACF"/>
<path d="M20.0745 24.1898C23.8034 24.1898 26.9838 25.1975 28.3548 26.6301C28.8168 25.5807 29.0504 24.4452 29.0402 23.2987C29.0402 18.576 25.0166 14.6895 20.0539 14.6895C15.0913 14.6895 11.0745 18.576 11.0745 23.3056C11.0651 24.4498 11.2987 25.5829 11.7599 26.6301C13.172 25.1975 16.3593 24.1898 20.0745 24.1898Z" fill="#008CD0"/>
<path d="M20.0748 24.1974C23.7899 24.1974 26.9704 25.2051 28.3345 26.6171C28.7925 25.5786 29.0261 24.4551 29.0199 23.3201C29.0199 18.6316 25.0032 14.7656 20.0542 14.7656C15.1052 14.7656 11.1022 18.6384 11.1022 23.3201C11.0952 24.4552 11.3288 25.5788 11.7877 26.6171C13.186 25.2051 16.3665 24.1974 20.0748 24.1974Z" fill="#008ED2"/>
<path d="M20.0745 24.2109C23.7828 24.2109 26.929 25.2049 28.2999 26.61C28.7587 25.579 28.9924 24.462 28.9854 23.3336C28.9854 18.6862 24.9823 14.8477 20.0745 14.8477C15.1666 14.8477 11.1636 18.693 11.1636 23.3404C11.1607 24.4662 11.3942 25.5802 11.8491 26.61C13.2063 25.2049 16.3799 24.2109 20.0745 24.2109Z" fill="#008FD3"/>
<path d="M20.0745 24.2176C23.7691 24.2176 26.929 25.2046 28.2999 26.5961C28.7586 25.5771 28.9924 24.4713 28.9854 23.3539C28.9854 18.7477 24.9892 14.9229 20.0745 14.9229C15.1598 14.9229 11.1636 18.7477 11.1636 23.3539C11.1606 24.4709 11.3942 25.5759 11.8491 26.5961C13.22 25.2046 16.3868 24.2176 20.0745 24.2176Z" fill="#0091D4"/>
<path d="M20.0746 24.2311C23.7555 24.2311 26.9291 25.2044 28.2657 26.5891C28.7238 25.5771 28.9576 24.4782 28.9512 23.3674C28.9512 18.8023 24.9687 14.998 20.0403 14.998C15.1119 14.998 11.1294 18.8023 11.1294 23.3674C11.1264 24.4778 11.3601 25.5761 11.8149 26.5891C13.2406 25.2044 16.3937 24.2311 20.0746 24.2311Z" fill="#0093D5"/>
<path d="M20.0744 24.2387C23.7484 24.2387 26.8947 25.2052 28.245 26.5761C28.6997 25.5752 28.9334 24.4881 28.9304 23.3888C28.9304 18.8579 24.9548 15.0742 20.0607 15.0742C15.1666 15.0742 11.1909 18.8648 11.1909 23.3888C11.188 24.4881 11.4217 25.5752 11.8764 26.5761C13.2542 25.2052 16.4004 24.2387 20.0744 24.2387Z" fill="#0095D7"/>
<path d="M20.0675 24.2453C23.7347 24.2453 26.874 25.2049 28.2175 26.5621C28.6754 25.572 28.9095 24.4931 28.903 23.4022C28.903 18.9125 24.9411 15.1768 20.0538 15.1768C15.1665 15.1768 11.2183 18.9467 11.2183 23.4022C11.2156 24.4927 11.4494 25.5708 11.9037 26.5621C13.2746 25.2049 16.414 24.2453 20.0675 24.2453Z" fill="#0097D8"/>
<path d="M20.0679 24.259C23.7282 24.259 26.8539 25.2049 28.1974 26.5552C28.6513 25.5735 28.8853 24.5043 28.8828 23.4227C28.8828 18.9741 24.9346 15.1973 20.061 15.1973C15.1875 15.1973 11.2461 18.9467 11.2461 23.4227C11.2437 24.5043 11.4776 25.5735 11.9316 26.5552C13.2888 25.2049 16.4213 24.259 20.0679 24.259Z" fill="#0099D9"/>
<path d="M20.0678 24.2655C23.7145 24.2655 26.8333 25.2114 28.1768 26.5412C28.6313 25.5694 28.8654 24.509 28.8622 23.4361C28.8622 19.0287 24.9208 15.2998 20.061 15.2998C15.2011 15.2998 11.2666 19.0287 11.2666 23.4361C11.2635 24.509 11.4976 25.5694 11.9521 26.5412C13.3093 25.2114 16.4281 24.2655 20.0678 24.2655Z" fill="#009BDA"/>
<path d="M20.0678 24.279C23.7007 24.279 26.8195 25.2112 28.1493 26.5342C28.603 25.5693 28.8371 24.5158 28.8347 23.4496C28.8347 19.0833 24.9071 15.375 20.0609 15.375C15.2148 15.375 11.2871 19.0833 11.2871 23.4565C11.2855 24.5204 11.5196 25.5715 11.9726 26.5342C13.3229 25.2112 16.4349 24.279 20.0678 24.279Z" fill="#009DDC"/>
<path d="M20.0677 24.2866C23.6937 24.2866 26.7988 25.212 28.1286 26.5212C28.5822 25.5685 28.8164 24.5262 28.8141 23.471C28.8141 19.1389 24.8933 15.4512 20.0608 15.4512C15.2284 15.4512 11.3145 19.1458 11.3145 23.471C11.3151 24.5258 11.5492 25.5675 11.9999 26.5212C13.3434 25.212 16.4485 24.2866 20.0677 24.2866Z" fill="#009FDD"/>
<path d="M20.0676 24.2943C23.6799 24.2943 26.7782 25.2128 28.108 26.5083C28.5624 25.5656 28.7968 24.532 28.7934 23.4855C28.7934 19.2014 24.8863 15.5273 20.0676 15.5273C15.2489 15.5273 11.3418 19.2014 11.3418 23.4855C11.3417 24.5316 11.5759 25.5645 12.0272 26.5083C13.357 25.2128 16.4553 24.2943 20.0676 24.2943Z" fill="#00A1DE"/>
<path d="M20.0607 24.3068C23.673 24.3068 26.7576 25.2116 28.0805 26.5003C28.5327 25.5665 28.7671 24.5423 28.766 23.5048C28.766 19.255 24.8657 15.6084 20.0539 15.6084C15.242 15.6084 11.3555 19.255 11.3555 23.5048C11.3569 24.542 11.5912 25.5657 12.0409 26.5003C13.3707 25.2116 16.4621 24.3068 20.0607 24.3068Z" fill="#00A3DF"/>
<path d="M20.0611 24.3134C23.6597 24.3134 26.7374 25.2114 28.0604 26.4863C28.5138 25.5628 28.7484 24.5472 28.7458 23.5183C28.7458 19.3096 24.8593 15.6836 20.0611 15.6836C15.2629 15.6836 11.3833 19.3096 11.3833 23.5183C11.3842 24.5468 11.6185 25.5616 12.0688 26.4863C13.3917 25.2114 16.4762 24.3134 20.0611 24.3134Z" fill="#00A5E1"/>
<path d="M20.0606 24.3279C23.6455 24.3279 26.7232 25.2122 28.0393 26.4803C28.4888 25.5651 28.7233 24.5593 28.7247 23.5397C28.7247 19.3653 24.845 15.7598 20.0606 15.7598C15.2761 15.7598 11.4033 19.3721 11.4033 23.5397C11.4047 24.5593 11.6392 25.5651 12.0888 26.4803C13.4048 25.2122 16.4825 24.3279 20.0606 24.3279Z" fill="#00A7E2"/>
<path d="M20.0605 24.3336C23.6386 24.3336 26.7025 25.2178 28.0186 26.4653C28.468 25.5599 28.7026 24.563 28.7041 23.5522C28.7041 19.4395 24.8381 15.834 20.0673 15.834C15.2966 15.834 11.4375 19.4257 11.4375 23.5522C11.439 24.563 11.6735 25.5599 12.123 26.4653C13.4253 25.2521 16.4893 24.3336 20.0605 24.3336Z" fill="#00A9E3"/>
<path d="M20.0609 24.3412C23.6253 24.3412 26.6824 25.2186 27.9916 26.4524C28.4411 25.5592 28.6758 24.5734 28.6771 23.5735C28.6771 19.4608 24.8248 15.9102 20.0678 15.9102C15.3107 15.9102 11.4585 19.4814 11.4585 23.5735C11.4598 24.5734 11.6945 25.5592 12.1439 26.4524C13.4395 25.2529 16.4966 24.3412 20.0609 24.3412Z" fill="#00ABE5"/>
<path d="M20.0604 24.3547C23.6179 24.3547 26.6613 25.2184 27.9705 26.4453C28.4197 25.5594 28.6545 24.5803 28.656 23.587C28.656 19.536 24.8106 15.9854 20.0672 15.9854C15.3239 15.9854 11.4785 19.536 11.4785 23.587C11.4799 24.5803 11.7147 25.5594 12.164 26.4453C13.4595 25.2527 16.5097 24.3547 20.0604 24.3547Z" fill="#00ADE6"/>
<path d="M20.0539 24.3614C23.6046 24.3614 26.648 25.2182 27.9504 26.4178C28.3966 25.5406 28.6314 24.5711 28.6358 23.5869C28.6358 19.577 24.8041 16.0469 20.0676 16.0469C15.3312 16.0469 11.5063 19.5838 11.5063 23.5869C11.511 24.571 11.7458 25.5405 12.1918 26.4178C13.4736 25.2525 16.517 24.3614 20.0539 24.3614Z" fill="#00AFE7"/>
<path d="M20.0539 24.3748C23.5977 24.3748 26.6274 25.218 27.9229 26.4312C28.3718 25.5672 28.6068 24.6082 28.6084 23.6346C28.6084 19.6658 24.7835 16.1494 20.0608 16.1494C15.338 16.1494 11.52 19.6658 11.52 23.6346C11.5247 24.6078 11.7596 25.5661 12.2055 26.4312C13.4941 25.2522 16.5581 24.3748 20.0539 24.3748Z" fill="#00B2E9"/>
<path d="M20.0543 24.3815C23.5844 24.3815 26.6072 25.2177 27.9027 26.4378C28.3487 25.5801 28.5836 24.6284 28.5882 23.6617C28.5882 19.7341 24.7771 16.2383 20.068 16.2383C15.3589 16.2383 11.5547 19.7341 11.5547 23.6617C11.5592 24.6284 11.7942 25.5801 12.2401 26.4378C13.5082 25.252 16.5585 24.3815 20.0543 24.3815Z" fill="#00B4EA"/>
<path d="M20.0538 24.3891C23.5701 24.3891 26.5861 25.2186 27.8816 26.3975C28.3265 25.5517 28.5616 24.6114 28.5671 23.6557C28.5671 19.7624 24.7628 16.2871 20.0675 16.2871C15.3721 16.2871 11.5747 19.7624 11.5747 23.6557C11.5802 24.6114 11.8153 25.5517 12.2602 26.3975C13.5282 25.2528 16.5579 24.3891 20.0538 24.3891Z" fill="#00B6EB"/>
<path d="M20.0537 24.4027C23.5632 24.4027 26.5655 25.2252 27.8542 26.3905C28.3055 25.5472 28.541 24.6052 28.5396 23.6487C28.5396 19.7965 24.7422 16.3486 20.0674 16.3486C15.3926 16.3486 11.5952 19.7759 11.5952 23.6487C11.5972 24.6048 11.8325 25.546 12.2807 26.3905C13.5419 25.2527 16.5579 24.4027 20.0537 24.4027Z" fill="#00B8ED"/>
<path d="M20.0473 24.4103C23.5499 24.4103 26.5522 25.226 27.834 26.3775C28.2788 25.5514 28.5141 24.6288 28.5195 23.6906C28.5195 19.8794 24.7289 16.4453 20.061 16.4453C15.393 16.4453 11.6162 19.8726 11.6162 23.6906C11.6215 24.6288 11.8569 25.5514 12.3017 26.3775C13.556 25.2534 16.5583 24.4103 20.0473 24.4103Z" fill="#01BBEE"/>
<path d="M20.0472 24.4228C23.543 24.4228 26.5316 25.2248 27.8134 26.3626C28.258 25.5463 28.4935 24.6326 28.4988 23.7031C28.4988 19.9331 24.722 16.5195 20.0678 16.5195C15.4135 16.5195 11.6504 19.9468 11.6504 23.7031C11.6557 24.6326 11.8912 25.5463 12.3358 26.3626C13.5765 25.2522 16.5582 24.4228 20.0472 24.4228Z" fill="#11BDF0"/>
<path d="M20.0471 24.4294C23.5292 24.4294 26.511 25.2246 27.7859 26.3556C28.2296 25.5488 28.4652 24.6441 28.4714 23.7234C28.4714 19.9877 24.7082 16.5947 20.0677 16.5947C15.4272 16.5947 11.6709 19.9877 11.6709 23.7166C11.6762 24.6396 11.9118 25.5467 12.3564 26.3556C13.5902 25.252 16.5582 24.4294 20.0471 24.4294Z" fill="#1AC0F1"/>
<path d="M20.0471 24.4371C23.5155 24.4371 26.4903 25.2253 27.7653 26.3426C28.2089 25.5458 28.4447 24.65 28.4507 23.7379C28.4507 20.0433 24.6944 16.6709 20.0676 16.6709C15.4408 16.6709 11.6914 20.0433 11.6914 23.7379C11.6966 24.6501 11.9324 25.5461 12.3769 26.3426C13.6107 25.2528 16.5581 24.4371 20.0471 24.4371Z" fill="#1FC4F4"/>
<path d="M20.047 24.4653C23.5154 24.4653 26.4834 25.2467 27.7515 26.3571C28.1952 25.5652 28.431 24.6738 28.437 23.7661C28.437 20.099 24.6875 16.7402 20.0676 16.7402C15.4476 16.7402 11.7051 20.099 11.7051 23.7661C11.7157 24.6732 11.9513 25.5635 12.3905 26.3571C13.6175 25.2536 16.5581 24.4653 20.047 24.4653Z" fill="#32C5F4"/>
<path d="M20.0475 24.4847C23.509 24.4847 26.4771 25.2593 27.7452 26.3628C28.1855 25.577 28.4212 24.6931 28.4306 23.7924C28.4306 20.1458 24.688 16.8076 20.0681 16.8076C15.4481 16.8076 11.7124 20.1458 11.7124 23.7924C11.7218 24.6931 11.9576 25.577 12.3979 26.3628C13.6248 25.2524 16.5928 24.4847 20.0475 24.4847Z" fill="#3FC7F4"/>
<path d="M20.0475 24.506C23.4747 24.506 26.4701 25.2737 27.7314 26.3705C28.1745 25.5932 28.4105 24.7152 28.4168 23.8206C28.4168 20.1945 24.6811 16.8838 20.068 16.8838C15.4549 16.8838 11.7261 20.1945 11.7261 23.8206C11.7354 24.7148 11.9713 25.5921 12.4115 26.3705C13.6385 25.2532 16.5996 24.506 20.0475 24.506Z" fill="#4AC8F5"/>
<path d="M20.0469 24.5264C23.4742 24.5264 26.4559 25.2941 27.724 26.384C28.1634 25.6102 28.3993 24.7376 28.4094 23.8478C28.4094 20.2492 24.6806 16.9521 20.0743 16.9521C15.4681 16.9521 11.7461 20.2492 11.7461 23.8409C11.7554 24.733 11.9913 25.6081 12.4315 26.384C13.6448 25.2941 16.6059 24.5264 20.0469 24.5264Z" fill="#54CAF5"/>
<path d="M20.0469 24.5673C23.4742 24.5673 26.449 25.3282 27.7102 26.4112C28.1534 25.6439 28.3896 24.7747 28.3957 23.8887C28.3957 20.3175 24.6668 17.0342 20.0674 17.0342C15.4681 17.0342 11.7598 20.2969 11.7598 23.8818C11.7722 24.767 12.008 25.6346 12.4452 26.4043C13.6516 25.3076 16.6059 24.5673 20.0469 24.5673Z" fill="#5CCCF5"/>
<path d="M20.0469 24.5672C23.4742 24.5672 26.4422 25.328 27.7034 26.4042C28.1426 25.6403 28.3786 24.7765 28.3889 23.8954C28.3889 20.3448 24.6668 17.0889 20.0743 17.0889C15.4818 17.0889 11.7598 20.3448 11.7598 23.8817C11.7701 24.7628 12.0061 25.6265 12.4452 26.3905C13.6585 25.328 16.6128 24.5672 20.0469 24.5672Z" fill="#64CDF6"/>
<path d="M20.0468 24.5671C23.4741 24.5671 26.4352 25.3142 27.6896 26.3835C28.1288 25.6271 28.365 24.7699 28.3751 23.8953C28.3751 20.3721 24.6599 17.1299 20.0743 17.1299C15.4886 17.1299 11.7803 20.3721 11.7803 23.8953C11.7821 24.7666 12.0062 25.623 12.4315 26.3835C13.6653 25.3416 16.6196 24.5671 20.0468 24.5671Z" fill="#6CCFF6"/>
<path d="M20.0469 24.6157C23.4742 24.6157 26.4216 25.3629 27.6828 26.4185C28.1218 25.6695 28.3581 24.819 28.3683 23.9508C28.3683 20.4482 24.6531 17.2334 20.0743 17.2334C15.4955 17.2334 11.7598 20.455 11.7598 23.9508C11.7691 24.8191 12.0054 25.6698 12.4452 26.4185C13.679 25.3629 16.6196 24.6157 20.0469 24.6157Z" fill="#73D1F6"/>
<path d="M20.0469 24.6351C23.4742 24.6351 26.4147 25.3754 27.6691 26.431C28.1079 25.6869 28.3442 24.8409 28.3546 23.9771C28.3546 20.495 24.6463 17.3008 20.0743 17.3008C15.5023 17.3008 11.7598 20.495 11.7598 23.9771C11.7702 24.8409 12.0065 25.6869 12.4452 26.431C13.6859 25.3754 16.6265 24.6351 20.0469 24.6351Z" fill="#7AD2F7"/>
<path d="M20.0467 24.6565C23.474 24.6565 26.4077 25.3968 27.6621 26.4387C28.086 25.6975 28.3104 24.8591 28.3133 24.0053C28.3133 20.578 24.6118 17.3701 20.0467 17.3701C15.4816 17.3701 11.8213 20.5506 11.8213 24.0053C11.8242 24.8591 12.0486 25.6975 12.4725 26.4387C13.6926 25.3968 16.6332 24.6565 20.0467 24.6565Z" fill="#81D4F7"/>
<path d="M20.0471 24.6769C23.4744 24.6769 26.4013 25.4103 27.6488 26.4453C28.0872 25.7161 28.3237 24.8833 28.3343 24.0325C28.3343 20.6053 24.6328 17.4385 20.0746 17.4385C15.5163 17.4385 11.8491 20.5984 11.8491 24.0257C11.8595 24.8808 12.096 25.718 12.5346 26.4522C13.6998 25.4103 16.6336 24.6769 20.0471 24.6769Z" fill="#88D6F8"/>
<path d="M20.0472 24.7051C23.4744 24.7051 26.3876 25.4316 27.642 26.4598C28.0657 25.7286 28.2902 24.899 28.2932 24.0539C28.2932 20.6266 24.5986 17.5078 20.0677 17.5078C15.5369 17.5078 11.8423 20.6472 11.8423 24.0539C11.8452 24.899 12.0698 25.7286 12.4935 26.4598C13.7136 25.4316 16.6405 24.7051 20.0472 24.7051Z" fill="#8ED8F8"/>
<path d="M20.0471 24.7245C23.4744 24.7245 26.3807 25.4099 27.6282 26.4655C28.0637 25.745 28.3003 24.9219 28.3137 24.0801C28.3137 20.7008 24.6259 17.582 20.0882 17.582C15.5505 17.582 11.8628 20.7008 11.8628 24.0801C11.8729 24.9224 12.1096 25.7464 12.5482 26.4655C13.7204 25.4442 16.6473 24.7245 20.0471 24.7245Z" fill="#94DAF8"/>
<path d="M20.0467 24.7448C23.474 24.7448 26.3735 25.4303 27.5867 26.479C28.0239 25.7643 28.2607 24.9451 28.2722 24.1073C28.2722 20.7486 24.5844 17.6504 20.0467 17.6504C15.509 17.6504 11.8213 20.7486 11.8213 24.1073C11.8254 24.9415 12.0501 25.7597 12.4725 26.479C13.7269 25.4577 16.6469 24.7448 20.0467 24.7448Z" fill="#9BDCF9"/>
<path d="M20.0473 24.7662C23.4746 24.7662 26.3672 25.4516 27.5873 26.4867C28.0095 25.7748 28.2343 24.9632 28.2385 24.1356C28.2385 20.7974 24.5576 17.7197 20.013 17.7197C15.4685 17.7197 11.7876 20.8043 11.7876 24.1356C11.7917 24.9632 12.0165 25.7748 12.4388 26.4867C13.7343 25.479 16.6543 24.7662 20.0473 24.7662Z" fill="#A1DDF9"/>
<path d="M20.0473 24.7866C23.4746 24.7866 26.3535 25.472 27.5873 26.4933C28.0094 25.7889 28.2343 24.984 28.2385 24.1628C28.2385 20.8521 24.5644 17.7881 20.013 17.7881C15.4616 17.7881 11.7876 20.8521 11.7876 24.1628C11.7925 24.986 12.0173 25.793 12.4388 26.5002C13.748 25.4926 16.6612 24.7866 20.0473 24.7866Z" fill="#A7DFF9"/>
<path d="M20.0471 24.806C23.4744 24.806 26.3464 25.4914 27.5871 26.5059C28.0204 25.8096 28.2573 25.009 28.2725 24.1891C28.2725 20.8989 24.6054 17.8555 20.0471 17.8555C15.4888 17.8555 11.8628 20.8989 11.8628 24.1891C11.8774 25.0092 12.1143 25.8099 12.5482 26.5059C13.7546 25.512 16.661 24.8128 20.0471 24.806Z" fill="#ADE1FA"/>
<path d="M20.047 24.8342C23.4332 24.8342 26.3395 25.5196 27.587 26.5135C28.0089 25.8215 28.234 25.0276 28.2382 24.2172C28.2382 20.9476 24.5779 17.9316 20.0607 17.9316C15.5436 17.9316 11.8901 20.9545 11.8901 24.2104C11.891 25.0225 12.1138 25.8189 12.5345 26.5135C13.7614 25.5265 16.6677 24.8342 20.047 24.8342Z" fill="#B3E3FA"/>
<path d="M20.047 24.8555C23.4263 24.8555 26.3326 25.541 27.587 26.5212C28.0064 25.836 28.2293 25.0487 28.2313 24.2454C28.2313 21.0032 24.5778 18.001 20.0676 18.001C15.5573 18.001 11.9038 21.0032 11.9038 24.2386C11.9082 25.0468 12.1334 25.8384 12.555 26.528C13.7682 25.5478 16.6746 24.8555 20.047 24.8555Z" fill="#B8E5FA"/>
<path d="M20.0469 24.8758C23.4262 24.8758 26.3188 25.5613 27.5869 26.5346C28.0085 25.8526 28.2338 25.0675 28.2381 24.2658C28.2381 21.051 24.5846 18.0967 20.0812 18.0967C15.5778 18.0967 11.9312 21.0784 11.9312 24.2658C11.9365 25.0664 12.1592 25.8506 12.5755 26.5346C13.8161 25.5613 16.6745 24.8758 20.0469 24.8758Z" fill="#BEE7FB"/>
<path d="M20.0475 24.8963C23.4199 24.8963 26.3125 25.5817 27.5463 26.5414C27.9625 25.8649 28.1853 25.0873 28.1906 24.2931C28.1906 21.0989 24.544 18.124 20.0475 18.124C15.5509 18.124 11.9111 21.092 11.9111 24.2931C11.9132 25.0878 12.1363 25.8662 12.5555 26.5414C13.8167 25.5817 16.6819 24.8963 20.0475 24.8963Z" fill="#C4E9FB"/>
<path d="M20.0469 24.9166C23.4125 24.9166 26.3051 25.6021 27.5321 26.5549C27.9505 25.8844 28.1736 25.1106 28.1764 24.3203C28.1764 21.1535 24.5367 18.2061 20.0469 18.2061C15.5572 18.2061 11.9175 21.1535 11.9175 24.3203C11.9239 25.1101 12.1467 25.8829 12.5618 26.5549C13.8162 25.5952 16.6882 24.9235 20.0469 24.9166Z" fill="#CAEBFC"/>
<path d="M20.0469 24.9439C23.4125 24.9439 26.2982 25.6293 27.5252 26.5615C27.9402 25.8972 28.1633 25.1308 28.1695 24.3475C28.1695 21.2013 24.5298 18.2744 20.0469 18.2744C15.564 18.2744 11.9312 21.2013 11.9312 24.3475C11.9374 25.1308 12.1604 25.8972 12.5755 26.5615C13.8161 25.6156 16.6882 24.9439 20.0469 24.9439Z" fill="#CFEDFC"/>
<path d="M20.0474 24.9652C23.4061 24.9652 26.285 25.6507 27.512 26.5692C27.9267 25.9122 28.1498 25.1526 28.1563 24.3757C28.1563 21.2501 24.5234 18.3506 20.0474 18.3506C15.5714 18.3506 11.9453 21.2569 11.9453 24.3757C11.9503 25.154 12.171 25.9156 12.5828 26.576C13.8166 25.6301 16.6955 24.9652 20.0474 24.9652Z" fill="#D5EFFC"/>
<path d="M20.0469 24.9846C23.3987 24.9846 26.2776 25.6701 27.5046 26.5817C27.9174 25.9294 28.1384 25.174 28.1421 24.402C28.1421 21.3037 24.516 18.418 20.0469 18.418C15.5777 18.418 11.9517 21.3037 11.9517 24.402C11.9574 25.1747 12.1807 25.9301 12.596 26.5817C13.8161 25.6426 16.7018 24.9846 20.0469 24.9846Z" fill="#DAF1FD"/>
<path d="M20.0468 25.006C23.3987 25.006 26.2708 25.6914 27.4909 26.5894C27.9052 25.9449 28.1285 25.1963 28.1352 24.4302C28.1352 21.3525 24.5091 18.4873 20.0468 18.4873C15.5845 18.4873 11.9653 21.3525 11.9653 24.4233C11.9686 25.1911 12.1897 25.9422 12.6028 26.5894C13.8161 25.664 16.7087 25.006 20.0468 25.006Z" fill="#E0F3FD"/>
<path d="M20.0468 25.0263C23.3918 25.0263 26.257 25.6775 27.4839 26.6029C27.8919 25.9584 28.1126 25.2132 28.1214 24.4505C28.1214 21.4071 24.5022 18.5557 20.0468 18.5557C15.5913 18.5557 11.979 21.4071 11.979 24.4505C11.9834 25.2139 12.2044 25.9603 12.6165 26.6029C13.816 25.6775 16.7086 25.0332 20.0468 25.0263Z" fill="#E6F5FD"/>
<path d="M20.0473 25.0546C23.3854 25.0546 26.2506 25.6989 27.4707 26.6105C27.8825 25.9754 28.1037 25.2357 28.1082 24.4788C28.1082 21.4559 24.4958 18.625 20.0473 18.625C15.5987 18.625 11.9863 21.4559 11.9863 24.4788C11.9938 25.2352 12.2148 25.9742 12.6238 26.6105C13.8508 25.6989 16.716 25.0546 20.0473 25.0546Z" fill="#EBF7FE"/>
<path d="M20.0472 25.0739C23.3854 25.0739 26.2163 25.7114 27.457 26.6162C27.8705 25.9892 28.0943 25.2561 28.1013 24.505C28.1013 21.5027 24.4889 18.6992 20.0472 18.6992C15.6055 18.6992 12 21.5027 12 24.505C12.0052 25.2575 12.2265 25.9927 12.6375 26.6231C13.8576 25.7114 16.7228 25.0739 20.0472 25.0739Z" fill="#F1FAFE"/>
<path d="M20.0472 25.0953C23.3785 25.0953 26.2163 25.7328 27.4501 26.6307C27.8577 26.0064 28.0788 25.2788 28.0875 24.5332C28.0875 21.5584 24.4821 18.7686 20.0472 18.7686C15.6123 18.7686 12.0137 21.5584 12.0137 24.5332C12.02 25.2781 12.2388 26.0058 12.6443 26.6307C13.8644 25.7328 16.7227 25.0953 20.0472 25.0953Z" fill="#F7FCFE"/>
<path d="M20.0472 25.1156C23.3716 25.1156 26.2162 25.7462 27.4363 26.6373C27.8427 26.0277 28.0641 25.3135 28.0738 24.5809C28.0738 21.6266 24.4752 18.8574 20.0472 18.8574C15.6191 18.8574 12.0205 21.5992 12.0205 24.5809C12.0302 25.3135 12.2516 26.0277 12.658 26.6373C13.8712 25.7462 16.7296 25.1156 20.0472 25.1156Z" fill="white"/>
</g>
<path d="M19.9856 22.1669C17.3159 22.1432 14.6632 22.5934 12.1509 23.4967C12.8249 25.0117 13.9237 26.2989 15.3142 27.2022C16.7048 28.1055 18.3274 28.5863 19.9856 28.5863C21.6438 28.5863 23.2664 28.1055 24.657 27.2022C26.0475 26.2989 27.1463 25.0117 27.8203 23.4967C25.308 22.5934 22.6553 22.1432 19.9856 22.1669Z" fill="#0083CA"/>
</svg>
