<svg width="40" height="40" viewBox="0 0 40 40" fill="none" xmlns="http://www.w3.org/2000/svg">
<rect x="0.25" y="0.25" width="39.5" height="39.5" rx="9.75" fill="white"/>
<rect x="0.25" y="0.25" width="39.5" height="39.5" rx="9.75" stroke="#E4E9F1" stroke-width="0.5"/>
<path d="M23.9873 14.1348C23.2608 14.1348 20.8369 15.9161 20.8369 15.9161C20.8369 15.9161 23.2608 17.698 23.9873 17.698C24.9998 17.698 25.8439 17.0132 25.8439 15.9161C25.8439 14.819 24.9998 14.1348 23.9873 14.1348Z" fill="#38D200"/>
<path d="M15.746 29.9998C16.4725 29.9998 18.8963 28.2185 18.8963 28.2185C18.8963 28.2185 16.4746 26.4365 15.746 26.4365C14.7334 26.4365 13.8896 27.1213 13.8896 28.2185C13.8896 29.3156 14.7349 29.9998 15.746 29.9998Z" fill="#0473EA"/>
<path d="M24.6203 20.1242L18.3462 15.9533L21.9718 13.4143C22.8091 12.8279 23.0692 11.6703 22.4964 10.8219C22.2221 10.4131 21.7965 10.1301 21.3134 10.035C20.8304 9.93987 20.3293 10.0406 19.9204 10.3149L19.8914 10.3346L15.5597 13.3964C15.1508 13.6853 14.8185 14.0694 14.5915 14.5156C14.3646 14.9619 14.2498 15.4567 14.2572 15.9572C14.2645 16.4578 14.3938 16.949 14.6338 17.3884C14.8737 17.8277 15.2172 18.202 15.6344 18.4787L25.4403 24.9778C26.5554 23.2607 26.3393 21.2396 24.6203 20.1242Z" fill="#0473EA"/>
<path d="M14.5953 19.5605L25.4088 26.5127C25.822 26.7789 26.1126 27.1982 26.2168 27.6785C26.3209 28.1588 26.2301 28.6608 25.9644 29.0742V29.0742C25.6982 29.4874 25.2789 29.778 24.7986 29.8822C24.3183 29.9863 23.8162 29.8956 23.4028 29.6298L15.7091 24.6845C14.8822 24.1527 14.3004 23.3143 14.0915 22.3536C13.8826 21.3929 14.0638 20.3886 14.5953 19.5615V19.5605Z" fill="#38D200"/>
</svg>
