<svg width="40" height="40" viewBox="0 0 40 40" fill="none" xmlns="http://www.w3.org/2000/svg">
<rect x="0.25" y="0.25" width="39.5" height="39.5" rx="9.75" fill="white"/>
<rect x="0.25" y="0.25" width="39.5" height="39.5" rx="9.75" stroke="#E4E9F1" stroke-width="0.5"/>
<g clip-path="url(#clip0_1090_17440)">
<path fill-rule="evenodd" clip-rule="evenodd" d="M27.9587 16.7458C27.2802 15.7432 26.3788 14.9249 25.3307 14.3599C24.2826 13.795 23.1187 13.5 21.9374 13.5C20.7561 13.5 19.5922 13.795 18.5441 14.3599C17.4961 14.9249 16.5946 15.7432 15.9162 16.7458L15.8457 16.8508H17.5885L17.6083 16.829C18.1639 16.2161 18.8347 15.7276 19.5793 15.3937C20.324 15.0598 21.1267 14.8875 21.9381 14.8875C22.7494 14.8875 23.5521 15.0598 24.2968 15.3937C25.0414 15.7276 25.7122 16.2161 26.2678 16.829L26.2864 16.8508H28.0292L27.9587 16.7458Z" fill="#E60012"/>
<path d="M15.1536 23.507L15.1215 23.5416C14.5851 24.1067 13.9658 24.4066 13.328 24.4066C11.9956 24.4066 11.0278 23.3699 11.0278 21.9412C11.0278 20.5124 11.9956 19.4719 13.328 19.4719C13.9658 19.4719 14.5851 19.7717 15.1215 20.3381L15.1536 20.3727L16.0102 19.2989L15.9879 19.2694C15.2748 18.3968 14.4194 17.9727 13.3688 17.9727C12.3182 17.9727 11.3491 18.3404 10.6496 18.9978C9.89435 19.7166 9.49512 20.7302 9.49512 21.9322C9.49512 23.1341 9.89435 24.1477 10.6496 24.8666C11.3442 25.5329 12.3083 25.8994 13.3688 25.8994C14.4293 25.8994 15.2748 25.474 15.9879 24.6013L16.0102 24.5732L15.1536 23.507Z" fill="#004187"/>
<path d="M18.3898 18.1016H16.877V25.7631H18.3898V18.1016Z" fill="#004187"/>
<path d="M24.3213 24.0953C23.9913 24.3263 23.6066 24.4592 23.2089 24.4798C22.7145 24.4798 22.4982 24.2119 22.4982 23.6161V19.5502H24.0407V18.1073H22.4932V15.7227L21.01 16.5466V18.1073H19.7295V19.5502H21.01V23.8749C21.01 25.0525 21.6836 25.8585 22.6885 25.879C23.1601 25.903 23.6278 25.7808 24.0321 25.5279L24.0469 25.5164L24.4115 24.0402L24.3213 24.0953Z" fill="#004187"/>
<path d="M27.0883 18.1016H25.5742V25.7631H27.0883V18.1016Z" fill="#004187"/>
<path d="M30.3702 17.1493C30.3702 17.2879 30.3305 17.4235 30.2561 17.5388C30.1818 17.6541 30.0761 17.7439 29.9525 17.7969C29.8289 17.85 29.6929 17.8638 29.5617 17.8366C29.4305 17.8095 29.3101 17.7426 29.2156 17.6444C29.1211 17.5463 29.0568 17.4213 29.0308 17.2852C29.0049 17.1492 29.0184 17.0082 29.0698 16.8801C29.1211 16.7521 29.208 16.6427 29.3193 16.5658C29.4307 16.489 29.5615 16.4481 29.6953 16.4483C29.7845 16.4466 29.8731 16.4635 29.9558 16.4982C30.0386 16.5328 30.1137 16.5844 30.1767 16.6498C30.2397 16.7153 30.2893 16.7932 30.3226 16.8791C30.3558 16.9649 30.372 17.0568 30.3702 17.1493V17.1493ZM30.5 17.1493C30.5002 16.9839 30.4531 16.8222 30.3647 16.6846C30.2762 16.547 30.1503 16.4397 30.003 16.3763C29.8557 16.3129 29.6936 16.2963 29.5372 16.3285C29.3807 16.3607 29.237 16.4403 29.1242 16.5572C29.0114 16.6741 28.9347 16.8231 28.9036 16.9853C28.8726 17.1475 28.8886 17.3156 28.9498 17.4683C29.0109 17.621 29.1144 17.7515 29.2471 17.8432C29.3798 17.9349 29.5358 17.9837 29.6953 17.9834C29.8015 17.9855 29.9071 17.9654 30.0056 17.9242C30.1041 17.883 30.1936 17.8216 30.2688 17.7438C30.3439 17.6659 30.4031 17.5731 30.4428 17.4709C30.4825 17.3688 30.502 17.2594 30.5 17.1493V17.1493ZM30.0624 16.9519C30.0637 16.9135 30.057 16.8753 30.0428 16.8399C30.0285 16.8044 30.007 16.7726 29.9798 16.7465C29.9526 16.7205 29.9202 16.7008 29.885 16.689C29.8497 16.6771 29.8124 16.6732 29.7756 16.6777H29.39V17.5875H29.5383V17.2364H29.7077L29.8795 17.5875H30.0562L29.8758 17.2197C29.9323 17.2051 29.9821 17.1702 30.0163 17.1212C30.0504 17.0722 30.0668 17.0122 30.0624 16.9519V16.9519ZM29.9116 16.9519C29.9116 17.0429 29.851 17.0801 29.7707 17.0801H29.5383V16.8238H29.7707C29.7883 16.8212 29.8063 16.8226 29.8233 16.8279C29.8404 16.8331 29.8561 16.8422 29.8695 16.8543C29.8829 16.8665 29.8936 16.8815 29.9009 16.8984C29.9081 16.9152 29.9118 16.9335 29.9116 16.9519Z" fill="#004187"/>
</g>
<defs>
<clipPath id="clip0_1090_17440">
<rect width="21" height="12.4091" fill="white" transform="translate(9.5 13.5)"/>
</clipPath>
</defs>
</svg>
