<svg width="40" height="40" viewBox="0 0 40 40" fill="none" xmlns="http://www.w3.org/2000/svg">
<rect x="0.25" y="0.25" width="39.5" height="39.5" rx="9.75" fill="white"/>
<rect x="0.25" y="0.25" width="39.5" height="39.5" rx="9.75" stroke="#E4E9F1" stroke-width="0.5"/>
<path d="M11.6133 18.1133H7V26.4977H11.6133V18.1133Z" fill="#00C4A6"/>
<mask id="mask0_1093_14289" style="mask-type:luminance" maskUnits="userSpaceOnUse" x="11" y="13" width="14" height="14">
<path d="M11.6133 18.1133C13.8362 18.1157 15.9674 18.9999 17.5393 20.5717C19.1112 22.1436 19.9953 24.2748 19.9977 26.4977H24.611C24.611 24.7909 24.2748 23.1007 23.6216 21.5237C22.9684 19.9468 22.011 18.5139 20.8041 17.3069C19.5971 16.1 18.1643 15.1426 16.5873 14.4894C15.0103 13.8362 13.3202 13.5 11.6133 13.5V18.1133Z" fill="white"/>
</mask>
<g mask="url(#mask0_1093_14289)">
<path d="M24.611 13.501H11.6133V26.4987H24.611V13.501Z" fill="url(#paint0_linear_1093_14289)"/>
</g>
<path d="M33.0003 13.5V18.1133C30.7774 18.1157 28.6462 18.9999 27.0743 20.5717C25.5025 22.1436 24.6183 24.2748 24.6159 26.4977H19.998C19.998 24.7905 20.3344 23.0999 20.9879 21.5227C21.6414 19.9454 22.5992 18.5123 23.8066 17.3053C25.014 16.0983 26.4474 15.141 28.0249 14.4881C29.6024 13.8352 31.2931 13.4994 33.0003 13.5Z" fill="#00C4A6"/>
<defs>
<linearGradient id="paint0_linear_1093_14289" x1="11.6471" y1="20.2121" x2="24.6303" y2="20.2121" gradientUnits="userSpaceOnUse">
<stop stop-color="#00C4A6"/>
<stop offset="0.11" stop-color="#0FC7A1"/>
<stop offset="0.31" stop-color="#38CE94"/>
<stop offset="0.6" stop-color="#78DB7F"/>
<stop offset="0.95" stop-color="#D1EB63"/>
<stop offset="1" stop-color="#DFEE5E"/>
</linearGradient>
</defs>
</svg>
