<svg width="40" height="40" viewBox="0 0 40 40" fill="none" xmlns="http://www.w3.org/2000/svg">
<rect x="0.25" y="0.25" width="39.5" height="39.5" rx="9.75" fill="white"/>
<rect x="0.25" y="0.25" width="39.5" height="39.5" rx="9.75" stroke="#E4E9F1" stroke-width="0.5"/>
<path d="M28.5 11.5H11.5V28.5H28.5V11.5Z" fill="#0091D0"/>
<path d="M11.5 11.5L15.7491 15.7527L19.9982 11.5H11.5Z" fill="#0091D0"/>
<path d="M11.5 11.5V19.9982L15.7491 15.7527L11.5 11.5Z" fill="#009CD8"/>
<path d="M19.9982 19.9981L15.7527 15.749L11.5 19.9981H19.9982Z" fill="#0091D0"/>
<path d="M19.9984 19.9982V11.5L15.7529 15.7491L19.9984 19.9982Z" fill="#0082C9"/>
<path d="M19.998 11.5V19.9982L24.2471 15.7527L19.998 11.5Z" fill="#0070BB"/>
<path d="M28.5002 19.9981L24.2511 15.749L20.002 19.9981H28.5002Z" fill="#004C98"/>
<path d="M11.5 20.002L15.7491 24.2511L19.9982 20.002H11.5Z" fill="#0082C9"/>
<path d="M11.5 20.002V28.5002L15.7491 24.2511L11.5 20.002Z" fill="#0070BB"/>
<path d="M19.9982 28.4998L15.7527 24.2471L11.5 28.4998H19.9982Z" fill="#0060AF"/>
<path d="M19.9984 28.5002V20.002L15.7529 24.2475L19.9984 28.5002Z" fill="#00529C"/>
<path d="M19.998 20.002L24.2471 24.2511L28.4998 20.002H19.998Z" fill="#1C378A"/>
<path d="M19.998 20.002V28.5002L24.2471 24.2511L19.998 20.002Z" fill="#004C98"/>
<path d="M28.5002 28.4998L24.2511 24.2471L20.002 28.4998H28.5002Z" fill="#1C378A"/>
<path d="M28.5001 28.5002V20.002L24.251 24.2475L28.5001 28.5002Z" fill="#1C378A"/>
<path d="M19.998 11.5L24.2471 15.7527L28.4998 11.5H19.998Z" fill="#0060AF"/>
<path d="M28.5001 19.9982V11.5L24.251 15.7491L28.5001 19.9982Z" fill="#00529C"/>
<path d="M28.4999 22.1261L23.0573 16.9424L14.7964 25.2213L17.8089 28.2374L23.0573 23.068L28.4999 28.4818V22.1261Z" fill="white"/>
</svg>
