<svg width="40" height="40" viewBox="0 0 40 40" fill="none" xmlns="http://www.w3.org/2000/svg">
<rect x="0.25" y="0.25" width="39.5" height="39.5" rx="9.75" fill="white"/>
<rect x="0.25" y="0.25" width="39.5" height="39.5" rx="9.75" stroke="#E4E9F1" stroke-width="0.5"/>
<path d="M13.5853 20.001C14.1412 19.7689 14.6026 19.2478 14.6026 18.3861C14.6026 17.1034 13.5019 16.3252 12.1747 16.3252H8.07228C8.05311 16.3252 8.03473 16.3328 8.02118 16.3464C8.00763 16.3599 8.00001 16.3783 8.00001 16.3975V17.5634C7.99983 17.573 8.00156 17.5826 8.00511 17.5915C8.00866 17.6004 8.01395 17.6086 8.02068 17.6154C8.02741 17.6223 8.03544 17.6277 8.0443 17.6315C8.05316 17.6352 8.06267 17.6371 8.07228 17.6371H11.8912C12.5069 17.6371 12.9238 18.0137 12.9238 18.4709C12.9238 18.9281 12.5069 19.3117 11.8912 19.3117H9.62182V18.4487C9.62201 18.439 9.62023 18.4293 9.6166 18.4203C9.61296 18.4113 9.60754 18.4031 9.60067 18.3962C9.59379 18.3893 9.58559 18.3839 9.57657 18.3803C9.56755 18.3766 9.55789 18.3748 9.54816 18.375H8.07228C8.06267 18.375 8.05316 18.3769 8.0443 18.3807C8.03544 18.3844 8.02741 18.3898 8.02068 18.3967C8.01395 18.4035 8.00866 18.4117 8.00511 18.4206C8.00156 18.4295 7.99983 18.4391 8.00001 18.4487V23.6004C8.00001 23.6195 8.00763 23.6379 8.02118 23.6515C8.03473 23.665 8.05311 23.6726 8.07228 23.6726H12.1164C13.6284 23.6726 14.711 22.9681 14.711 21.5297C14.7141 21.1874 14.606 20.8533 14.403 20.5777C14.2 20.302 13.9131 20.0997 13.5853 20.001ZM11.9704 22.3955H9.62182V20.6722H11.9704C12.6014 20.6722 13.0294 21.0586 13.0294 21.5339C13.0294 22.0092 12.6014 22.3955 11.9704 22.3955Z" fill="#D7191F"/>
<path d="M30.5509 17.6381H31.1693C31.1889 17.6381 31.2076 17.6303 31.2214 17.6165C31.2352 17.6027 31.243 17.584 31.243 17.5644V16.3984C31.243 16.3888 31.2411 16.3793 31.2374 16.3705C31.2336 16.3616 31.2282 16.3536 31.2213 16.3469C31.2145 16.3401 31.2064 16.3348 31.1974 16.3313C31.1885 16.3277 31.1789 16.326 31.1693 16.3262H30.3008C29.296 16.3262 28.7637 16.6472 28.4594 17.3296L26.5708 21.9559C26.5328 22.0834 26.4518 22.1938 26.3415 22.2683C26.2313 22.3428 26.0987 22.3768 25.9662 22.3645V16.3984C25.9662 16.3888 25.9643 16.3793 25.9606 16.3705C25.9569 16.3616 25.9514 16.3536 25.9446 16.3469C25.9377 16.3401 25.9296 16.3348 25.9207 16.3313C25.9117 16.3277 25.9022 16.326 25.8926 16.3262H24.5029C24.4932 16.326 24.4837 16.3277 24.4748 16.3313C24.4658 16.3348 24.4577 16.3401 24.4509 16.3469C24.444 16.3536 24.4385 16.3616 24.4348 16.3705C24.4311 16.3793 24.4292 16.3888 24.4292 16.3984V23.5486C24.4296 23.5826 24.4433 23.6151 24.4675 23.6391C24.4917 23.663 24.5244 23.6764 24.5584 23.6764H26.1163C27.1197 23.6764 27.5797 23.3554 27.8827 22.673L29.7477 18.1036C29.8977 17.7798 30.1132 17.6381 30.5509 17.6381Z" fill="#D7191F"/>
<path d="M31.9878 23.5922L29.6072 20.5487C29.6062 20.547 29.6048 20.5455 29.6031 20.5445C29.6014 20.5435 29.5994 20.543 29.5975 20.543C29.5955 20.543 29.5935 20.5435 29.5918 20.5445C29.5901 20.5455 29.5887 20.547 29.5877 20.5487L28.9471 22.1163C28.9446 22.1208 28.9434 22.1258 28.9434 22.1309C28.9434 22.136 28.9446 22.141 28.9471 22.1455L29.988 23.5352C30.0181 23.5807 30.0596 23.6175 30.1084 23.6419C30.1571 23.6663 30.2115 23.6774 30.2659 23.6742H31.9419C31.952 23.6758 31.9624 23.6743 31.9716 23.6698C31.9808 23.6653 31.9885 23.6581 31.9935 23.6492C31.9985 23.6403 32.0006 23.63 31.9996 23.6198C31.9986 23.6096 31.9945 23.6 31.9878 23.5922Z" fill="#D7191F"/>
<path d="M17.3164 18.3789H15.9267C15.9071 18.3789 15.8884 18.3867 15.8746 18.4005C15.8608 18.4143 15.853 18.433 15.853 18.4526V23.6043C15.853 23.6139 15.8549 23.6234 15.8587 23.6322C15.8624 23.6411 15.8678 23.6491 15.8747 23.6559C15.8815 23.6626 15.8897 23.6679 15.8986 23.6714C15.9075 23.675 15.9171 23.6767 15.9267 23.6765H17.3164C17.3357 23.6765 17.3542 23.669 17.368 23.6554C17.3818 23.6419 17.3897 23.6235 17.3901 23.6043V18.4498C17.3893 18.4307 17.3813 18.4127 17.3675 18.3995C17.3538 18.3863 17.3355 18.3789 17.3164 18.3789Z" fill="#D7191F"/>
<path d="M23.0352 16.3262H21.6455C21.636 16.3262 21.6266 16.3281 21.6178 16.3317C21.609 16.3353 21.6011 16.3406 21.5944 16.3474C21.5876 16.3541 21.5823 16.362 21.5787 16.3708C21.5751 16.3796 21.5732 16.389 21.5732 16.3984V22.3645C21.4407 22.3768 21.3081 22.3428 21.1979 22.2683C21.0877 22.1938 21.0067 22.0834 20.9687 21.9559L19.0773 17.3296C18.7743 16.6472 18.2434 16.3262 17.2373 16.3262H15.9281C15.9185 16.326 15.909 16.3277 15.9001 16.3313C15.8911 16.3348 15.883 16.3401 15.8761 16.3469C15.8693 16.3536 15.8638 16.3616 15.8601 16.3705C15.8564 16.3793 15.8545 16.3888 15.8545 16.3984V17.5644C15.8545 17.584 15.8623 17.6027 15.8761 17.6165C15.8899 17.6303 15.9086 17.6381 15.9281 17.6381H16.9857C17.4249 17.6381 17.6389 17.7771 17.789 18.1036L19.654 22.673C19.9583 23.3554 20.4169 23.6764 21.4217 23.6764H22.9782C23.0122 23.6764 23.0449 23.663 23.0691 23.6391C23.0933 23.6151 23.1071 23.5826 23.1074 23.5486V16.3984C23.1074 16.3793 23.0998 16.3609 23.0863 16.3474C23.0727 16.3338 23.0543 16.3262 23.0352 16.3262Z" fill="#D7191F"/>
</svg>
