<svg width="40" height="40" viewBox="0 0 40 40" fill="none" xmlns="http://www.w3.org/2000/svg">
<circle cx="20" cy="20" r="19.9" fill="white" stroke="black" stroke-width="0.2"/>
<g clip-path="url(#clip0_606_14113)">
<path d="M30.8719 16.9966C31.0794 16.37 31.0297 15.6867 30.7336 15.0967C30.4376 14.5068 29.9194 14.0585 29.293 13.8504L16.2555 9.47364C15.9452 9.36833 15.617 9.32589 15.2901 9.34882C14.9632 9.37174 14.6441 9.45957 14.3516 9.60716" fill="white"/>
<path d="M14.352 9.60645C13.7616 9.9019 13.3127 10.4197 13.1039 11.046L9.12769 22.998C8.92177 23.6246 8.97225 24.3073 9.26809 24.8968C9.56394 25.4863 10.0811 25.9348 10.7066 26.1442L23.7499 30.521C24.0604 30.625 24.3884 30.6668 24.7151 30.6438C25.0418 30.6209 25.3608 30.5338 25.6538 30.3874C25.9462 30.2421 26.2066 30.04 26.4199 29.7928C26.6332 29.5456 26.7951 29.2584 26.896 28.9479L30.8781 16.9959" fill="white"/>
<path d="M20.7314 21.0891C20.0136 21.8935 19.1168 22.5178 18.1134 22.9118L17.533 23.1382V17.6005L18.1134 17.8269C19.1181 18.2188 20.0168 18.8411 20.7372 19.6438C21.1931 18.8979 21.4805 18.0615 21.5795 17.193C21.6784 16.3245 21.5865 15.4448 21.31 14.6155C21.0336 13.7862 20.5794 13.0273 19.9791 12.3919C19.3788 11.7565 18.647 11.2598 17.8348 10.9366L15.9308 10.2865C15.7292 10.2203 15.5165 10.1946 15.305 10.2107C15.0934 10.2269 14.8871 10.2846 14.6978 10.3805C14.5086 10.4765 14.3401 10.6089 14.2021 10.77C14.064 10.9312 13.9591 11.118 13.8934 11.3198L9.90551 23.2833C9.77531 23.6952 9.81256 24.1418 10.0092 24.5264C10.2058 24.911 10.5461 25.2026 10.9562 25.3382L20.0058 28.3567C20.9083 27.3929 21.4676 26.1582 21.5967 24.8441C21.7258 23.5301 21.4175 22.2101 20.7198 21.0891H20.7314ZM15.4955 17.2696V23.4807H14.5957V17.287L15.4955 17.2696Z" fill="#2293C8"/>
<path d="M20.2094 20.3633C19.6997 19.768 19.0811 19.2755 18.3867 18.9121V21.8145C19.084 21.4482 19.7032 20.9493 20.2094 20.3459" fill="#E43D30"/>
<path d="M29.0087 14.6458L20.7021 11.8711C21.7456 13.0121 22.3711 14.4733 22.4765 16.0158C22.582 17.5584 22.1611 19.0911 21.2826 20.3634C22.1362 21.5978 22.56 23.0787 22.4887 24.5777C22.4173 26.0768 21.8548 27.5107 20.8879 28.6584L24.0109 29.6975C24.2124 29.7644 24.4253 29.7908 24.6371 29.775C24.8489 29.7593 25.0555 29.7017 25.245 29.6056C25.4344 29.5095 25.603 29.3769 25.7408 29.2153C25.8787 29.0537 25.9832 28.8664 26.0483 28.6642L30.0536 16.7065C30.1856 16.2954 30.1499 15.8488 29.9542 15.4639C29.7585 15.079 29.4187 14.7871 29.0087 14.6516V14.6458ZM26.8087 23.469H25.6826L23.3607 20.3634L25.6826 17.2637H26.8436L24.5217 20.3751L26.8087 23.469Z" fill="#215C9C"/>
</g>
<defs>
<clipPath id="clip0_606_14113">
<rect width="22" height="21.3092" fill="white" transform="translate(9 9.3457)"/>
</clipPath>
</defs>
</svg>
