<svg width="40" height="40" viewBox="0 0 40 40" fill="none" xmlns="http://www.w3.org/2000/svg">
<rect x="0.25" y="0.25" width="39.5" height="39.5" rx="9.75" fill="white"/>
<rect x="0.25" y="0.25" width="39.5" height="39.5" rx="9.75" stroke="#E4E9F1" stroke-width="0.5"/>
<path d="M16.5888 25.027C15.0856 25.027 13.8671 23.8085 13.8671 22.3053C13.8671 21.5925 14.1409 20.9436 14.59 20.458C14.1209 19.5973 13.8543 18.6107 13.8543 17.562C13.8543 17.3995 13.8607 17.2389 13.8735 17.0801C11.6137 17.9024 10 20.0701 10 22.6138C10 25.8639 12.6359 28.4998 15.886 28.4998C16.9274 28.4998 17.9049 28.2288 18.7537 27.7551V23.9555C18.2563 24.6071 17.4714 25.0279 16.5888 25.0279V25.027Z" fill="url(#paint0_linear_1090_17335)"/>
<path d="M16.589 19.5838C16.8965 19.5838 17.1913 19.6349 17.467 19.7289C17.1612 19.2653 16.9823 18.7104 16.9823 18.1135C16.9823 16.4925 18.2957 15.1791 19.9167 15.1791C21.0995 15.1791 22.1181 15.8782 22.5827 16.8859C23.0208 16.7818 23.4771 16.7261 23.9472 16.7261C24.6545 16.7261 25.3327 16.8512 25.9606 17.0794C25.7151 13.9579 23.1029 11.5 19.9158 11.5C16.5689 11.5 13.8545 14.2144 13.8545 17.5622C13.8545 18.6109 14.121 19.5975 14.5901 20.4582C15.0876 19.9206 15.7986 19.5838 16.589 19.5838V19.5838Z" fill="url(#paint1_linear_1090_17335)"/>
<path d="M23.9458 16.7266C23.4758 16.7266 23.0194 16.7822 22.5813 16.8863C22.7538 17.2596 22.8497 17.6758 22.8497 18.1139C22.8497 18.7108 22.6717 19.2657 22.365 19.7284C22.6407 19.6344 22.9355 19.5842 23.2431 19.5842C24.7463 19.5842 25.9647 20.8027 25.9647 22.3059C25.9647 23.8091 24.7463 25.0276 23.2431 25.0276C22.3605 25.0276 21.5755 24.6078 21.0781 23.9561V27.7548C21.9269 28.2294 22.9044 28.4995 23.9458 28.4995C27.196 28.4995 29.8319 25.8636 29.8319 22.6135C29.8319 19.3634 27.196 16.7266 23.9458 16.7266V16.7266Z" fill="url(#paint2_linear_1090_17335)"/>
<defs>
<linearGradient id="paint0_linear_1090_17335" x1="15.2617" y1="28.5619" x2="13.2355" y2="17.07" gradientUnits="userSpaceOnUse">
<stop offset="0.15" stop-color="#54C3F1"/>
<stop offset="0.3" stop-color="#4EBDED"/>
<stop offset="0.5" stop-color="#3FACE2"/>
<stop offset="0.73" stop-color="#2691D1"/>
<stop offset="0.97" stop-color="#036CB9"/>
<stop offset="1" stop-color="#0068B7"/>
</linearGradient>
<linearGradient id="paint1_linear_1090_17335" x1="13.4575" y1="17.5457" x2="24.8544" y2="13.3975" gradientUnits="userSpaceOnUse">
<stop offset="0.15" stop-color="#54C3F1"/>
<stop offset="0.3" stop-color="#4EBDED"/>
<stop offset="0.5" stop-color="#3FACE2"/>
<stop offset="0.73" stop-color="#2691D1"/>
<stop offset="0.97" stop-color="#036CB9"/>
<stop offset="1" stop-color="#0068B7"/>
</linearGradient>
<linearGradient id="paint2_linear_1090_17335" x1="26.5644" y1="17.2541" x2="24.5455" y2="28.7076" gradientUnits="userSpaceOnUse">
<stop offset="0.15" stop-color="#54C3F1"/>
<stop offset="0.3" stop-color="#4EBDED"/>
<stop offset="0.5" stop-color="#3FACE2"/>
<stop offset="0.73" stop-color="#2691D1"/>
<stop offset="0.97" stop-color="#036CB9"/>
<stop offset="1" stop-color="#0068B7"/>
</linearGradient>
</defs>
</svg>
