<svg width="40" height="40" viewBox="0 0 40 40" fill="none" xmlns="http://www.w3.org/2000/svg">
<circle cx="20" cy="20" r="19.9" fill="white" stroke="black" stroke-width="0.2"/>
<path d="M30.892 20.2172L30.6984 20.0834C30.3199 19.7111 29.8704 19.4332 29.3817 19.2694C28.893 19.1056 28.377 19.0599 27.8702 19.1354C26.9879 19.2143 26.1377 19.5301 25.3968 20.0543V20.0078C25.4038 19.6421 25.4289 19.2772 25.4721 18.9144C25.5044 18.5364 25.542 18.1584 25.542 17.7978C25.5534 17.4526 25.5004 17.1084 25.3861 16.7858C25.3724 16.7477 25.3478 16.7153 25.3159 16.6933C25.284 16.6713 25.2464 16.6609 25.2086 16.6637C24.8052 16.7048 24.4155 16.8439 24.0687 17.0708L23.9827 17.2686C23.9813 17.822 23.9254 18.3737 23.816 18.9144C23.8041 18.9618 23.7898 19.0084 23.773 19.054C23.6387 20.446 23.6387 21.8494 23.773 23.2414C23.773 23.3577 24.0042 23.538 24.1655 23.6078C24.535 23.6176 24.9019 23.5402 25.2409 23.381H25.3646C25.3892 23.3775 25.413 23.3686 25.4343 23.3548C25.4557 23.3411 25.4742 23.3227 25.4888 23.301C25.5034 23.2792 25.5138 23.2544 25.5192 23.2282C25.5247 23.2019 25.5251 23.1748 25.5205 23.1483V22.8052C25.6676 22.2082 25.9603 21.6649 26.368 21.2322C26.7757 20.7994 27.2833 20.493 27.8379 20.3451C28.1151 20.2802 28.4032 20.2955 28.6732 20.3894C28.9432 20.4834 29.1855 20.6526 29.3757 20.8802C29.4988 21.4584 29.4081 22.0657 29.123 22.5726C28.7214 23.2838 28.0977 23.816 27.3648 24.073C26.5035 24.405 25.5887 24.5435 24.6763 24.4801C24.6279 24.4511 23.6816 23.759 23.6816 23.759C22.8069 23.0364 21.8578 22.4255 20.8534 21.9386C20.6225 21.7993 20.4062 21.6336 20.2081 21.4443L20.1167 21.3571C19.5791 20.8802 18.5306 20.1357 17.6972 19.5367L17.2509 19.2052V19.1064C17.2509 19.0773 17.7886 18.74 17.7886 18.74C18.1974 18.5215 18.5802 18.2501 18.9285 17.9316L19.0306 17.8676L20.848 16.7509C22.5901 15.7157 24.5688 14.5409 25.6065 13.3778L25.6549 13.1975V13.0405C25.7165 12.8265 25.7165 12.5973 25.6549 12.3833C25.6481 12.3459 25.6312 12.3116 25.6063 12.2847C25.5814 12.2577 25.5497 12.2394 25.5151 12.2321C24.7032 12.1448 23.6601 12.6683 22.7084 13.6337C22.5324 13.809 22.3352 13.9576 22.1223 14.0757L21.9771 14.1571C20.9018 14.8027 18.5628 16.3904 17.3261 17.2511C17.443 15.5063 17.6531 13.7703 17.9552 12.0518L17.923 11.8482L17.7939 11.5923L17.6972 11.4062C17.511 11.308 17.2964 11.2934 17.1003 11.3655L16.853 11.4644L16.525 11.5923C16.4937 11.5995 16.4646 11.615 16.4402 11.6373C16.4158 11.6596 16.3969 11.6881 16.3852 11.7203C15.7154 13.6867 15.3116 15.7473 15.1861 17.8385C14.2796 17.2233 13.3427 16.6622 12.3794 16.1577V16.1577H12.3149C12.0794 16.0942 11.857 15.9838 11.6589 15.8321L11.2126 15.518L10.5244 15.0411L10.3416 14.9946C9.94063 15.1317 9.58428 15.39 9.31461 15.739C9.29408 15.7759 9.28295 15.8181 9.28235 15.8611C9.28738 15.9204 9.29819 15.9788 9.31461 16.0356L9.34687 16.1868L9.37913 16.2799C9.98893 16.833 10.6588 17.3037 11.3739 17.6815L12.3149 18.2223L13.7613 19.0715L14.0086 19.2866L14.1753 19.3913H14.2076C13.8204 19.6647 11.5836 21.2873 11.5836 21.2873L10.1749 22.3341C9.91673 22.4872 9.65108 22.625 9.37913 22.747C9.1176 22.8461 8.89674 23.0417 8.75541 23.2995L8.71777 23.3868L8.75541 23.4449L8.86295 23.5322L9.00275 23.631L9.15868 23.7415L9.29848 23.7706C9.74607 23.705 10.1783 23.5491 10.5728 23.3112C11.1911 23.0146 12.8687 21.9212 13.5892 21.4559L13.8957 21.2524C14.0416 21.2311 14.1772 21.1597 14.2828 21.0488C14.4857 20.8866 14.7016 20.7445 14.9281 20.6243C14.9281 20.6243 15.0464 20.5545 15.1485 20.4963V20.5894C15.136 22.4091 15.2691 24.2265 15.5464 26.0213V26.0213V26.0795C15.7125 26.4781 15.8369 26.8956 15.9174 27.3241L16.1862 28.3128L16.2669 28.4058C16.5525 28.5909 16.8804 28.6856 17.2132 28.6792H17.2939L17.3423 28.557C17.3689 28.4076 17.3815 28.2556 17.3799 28.1034C17.3799 27.9231 17.3799 27.7254 17.3799 27.4811V27.1263C17.2778 25.4688 17.181 23.0553 17.181 21.485V21.3571L18.579 22.3108C20.5146 23.6659 23.4181 25.7247 25.2086 26.2656C25.2531 26.2799 25.3002 26.2816 25.3455 26.2704C25.3907 26.2591 25.4325 26.2355 25.4667 26.2016L25.7409 26.0155H25.7893C25.8498 25.9626 25.8979 25.895 25.9296 25.8182C25.9614 25.7414 25.976 25.6576 25.9722 25.5735C27.4615 25.4979 29.5424 24.8756 30.6554 23.3635C31.053 22.8155 31.2722 22.1409 31.2791 21.4443C31.3029 21.0197 31.1716 20.602 30.9135 20.2811" fill="#FCAF17"/>
</svg>
