<svg width="41" height="40" viewBox="0 0 41 40" fill="none" xmlns="http://www.w3.org/2000/svg">
<rect x="0.75" y="0.25" width="39.5" height="39.5" rx="9.75" fill="white"/>
<rect x="0.75" y="0.25" width="39.5" height="39.5" rx="9.75" stroke="#E4E9F1" stroke-width="0.5"/>
<path d="M23.5722 22.2741C23.5279 21.9998 23.4495 21.7322 23.3387 21.4774C23.022 20.7148 22.4703 20.0732 21.7637 19.646C21.2098 19.3134 20.5751 19.1396 19.929 19.1436C19.283 19.1477 18.6505 19.3294 18.1009 19.6689C17.5895 19.9762 17.174 20.4202 16.9013 20.9509C16.8112 21.1321 16.7362 21.3205 16.6769 21.514C16.5093 22.0172 16.4448 22.5489 16.4873 23.0776C16.5298 23.6062 16.6784 24.1209 16.9242 24.5908C17.0929 24.8795 17.3519 25.1047 17.6613 25.2318C17.8147 25.2951 17.9808 25.3215 18.1462 25.3088C18.3117 25.296 18.4718 25.2446 18.6136 25.1585C18.7721 25.036 18.8906 24.8692 18.9541 24.6793C19.0177 24.4894 19.0235 24.2849 18.9708 24.0917C18.8458 23.6018 18.8585 23.0869 19.0074 22.6037C19.0626 22.4459 19.1517 22.3022 19.2684 22.1825C19.3424 22.1113 19.4274 22.0525 19.5202 22.0085C19.7151 21.9096 19.9361 21.8744 20.152 21.9078C20.3366 21.9478 20.5091 22.0309 20.6555 22.1503C20.8019 22.2696 20.918 22.4218 20.9945 22.5945C21.1439 22.9433 21.2217 23.3186 21.2234 23.698C21.2294 25.3692 20.9824 27.0317 20.4908 28.629C20.4496 28.7939 20.4038 28.9541 20.3581 29.1144C20.3123 29.2746 20.2573 29.3982 20.3581 29.5218C20.396 29.5711 20.4467 29.609 20.5046 29.6317C20.7518 29.7325 20.9624 29.5814 21.1135 29.4165C22.0461 28.4197 22.7329 27.2187 23.1189 25.9094C23.2792 25.4285 23.4077 24.9375 23.5035 24.4397C23.6522 23.7227 23.677 22.9856 23.5768 22.2603" fill="#008485"/>
<path d="M30.4817 14.6692C30.4794 14.6122 30.4656 14.5563 30.4411 14.5048C30.4166 14.4533 30.3819 14.4073 30.3391 14.3697C30.2963 14.332 30.2462 14.3034 30.1921 14.2856C30.1379 14.2679 30.0806 14.2613 30.0238 14.2663C29.7877 14.3002 29.5587 14.3729 29.3462 14.4815C25.1019 16.0931 20.3174 16.3999 15.8442 15.7543C15.0796 15.6444 14.3058 15.4933 13.5549 15.3697C13.0971 15.2964 12.598 15.1866 12.1127 15.1499C11.6759 15.0654 11.2234 15.1523 10.849 15.3926C10.6557 15.6035 10.5357 15.8712 10.5068 16.1558C10.4779 16.4404 10.5417 16.7268 10.6888 16.9722C11.0164 17.5322 11.4916 17.9914 12.0623 18.3C12.5895 18.6755 13.2149 18.8888 13.8617 18.9135C15.5695 18.8082 17.2772 18.6388 18.9759 18.419C21.8741 18.0436 24.9279 17.6864 27.6293 16.5647C28.5335 16.2082 29.3852 15.7307 30.1612 15.1454C30.2985 15.04 30.5 14.8661 30.5 14.6875" fill="#008485"/>
<path d="M18.3076 13.2137C18.33 13.6412 18.5156 14.0438 18.8261 14.3384C19.1366 14.6331 19.5484 14.7974 19.9765 14.7974C20.4046 14.7974 20.8163 14.6331 21.1268 14.3384C21.4374 14.0438 21.623 13.6412 21.6454 13.2137C21.6467 13.076 21.6169 12.9399 21.5584 12.8153C21.4164 12.5086 21.2516 12.3575 21.2699 12.0003C21.2699 11.5104 20.661 11.5013 20.3222 11.5013C19.9453 11.489 19.5708 11.5643 19.2279 11.7211C18.9579 11.8583 18.7302 12.0662 18.569 12.3226C18.4078 12.579 18.319 12.8742 18.3122 13.177V13.2137" fill="#E90061"/>
</svg>
