<svg width="40" height="40" viewBox="0 0 40 40" fill="none" xmlns="http://www.w3.org/2000/svg">
<rect x="0.25" y="0.25" width="39.5" height="39.5" rx="9.75" fill="white"/>
<rect x="0.25" y="0.25" width="39.5" height="39.5" rx="9.75" stroke="#E4E9F1" stroke-width="0.5"/>
<rect x="10" y="10" width="20" height="20" rx="5" fill="#FFE300"/>
<path d="M20.405 22.1619H19.5904V17.8374H20.405V22.1619ZM22.5341 19.9997C23.2365 19.5366 23.7001 18.7416 23.7001 17.8375C23.7001 16.4084 22.5412 15.25 21.1121 15.25H16.7748C16.6916 15.25 16.625 15.3166 16.625 15.3998V24.5996C16.625 24.6828 16.6916 24.75 16.7748 24.75H21.1121C22.5412 24.75 23.7001 23.5916 23.7001 22.162C23.7001 21.2578 23.2366 20.4621 22.5341 19.9997Z" fill="#1C1C1C"/>
</svg>
