<svg width="40" height="40" viewBox="0 0 40 40" fill="none" xmlns="http://www.w3.org/2000/svg">
<circle cx="20" cy="20" r="19.9" fill="white" stroke="black" stroke-width="0.2"/>
<g clip-path="url(#clip0_606_13636)">
<path d="M23.9977 9.86621L20.0003 11.8766L16.0029 9.86621L20.0003 17.4636L23.9977 9.86621Z" fill="#FFB71B"/>
<path d="M25.4237 15.712L28.2756 14.5198V10.499L23.3198 12.6263L20.5613 17.8159C21.6225 17.9382 22.5968 18.4618 23.2844 19.2792C23.972 20.0967 24.3209 21.1462 24.2596 22.2127C24.1984 23.2792 23.7316 24.2818 22.9549 25.0152C22.1781 25.7486 21.1504 26.1571 20.0822 26.1571C19.0139 26.1571 17.9862 25.7486 17.2095 25.0152C16.4328 24.2818 15.966 23.2792 15.9047 22.2127C15.8434 21.1462 16.1923 20.0967 16.8799 19.2792C17.5675 18.4618 18.5417 17.9382 19.6029 17.8159L16.8445 12.6263L11.9121 10.499V14.5198L14.8108 15.712C13.5536 16.8109 12.6617 18.2671 12.254 19.8863C11.8463 21.5055 11.9422 23.2105 12.5291 24.7737C13.116 26.3369 14.1658 27.6839 15.5384 28.6347C16.911 29.5855 18.541 30.0949 20.2107 30.0949C21.8804 30.0949 23.5104 29.5855 24.883 28.6347C26.2556 27.6839 27.3054 26.3369 27.8923 24.7737C28.4792 23.2105 28.5752 21.5055 28.1675 19.8863C27.7598 18.2671 26.8678 16.8109 25.6107 15.712H25.4237Z" fill="#FFB71B"/>
</g>
<defs>
<clipPath id="clip0_606_13636">
<rect width="16.4103" height="20.2674" fill="white" transform="translate(11.7949 9.86621)"/>
</clipPath>
</defs>
</svg>
