<svg width="40" height="40" viewBox="0 0 40 40" fill="none" xmlns="http://www.w3.org/2000/svg">
<circle cx="20" cy="20" r="19.9" fill="white" stroke="black" stroke-width="0.2"/>
<g clip-path="url(#clip0_606_13639)">
<path d="M31.1186 19.997C31.1196 22.2055 30.4655 24.3647 29.2392 26.2015C28.0128 28.0382 26.2693 29.47 24.2291 30.3156C22.1888 31.1612 19.9437 31.3828 17.7775 30.9521C15.6114 30.5215 13.6216 29.4581 12.06 27.8965C10.4983 26.3348 9.43492 24.3451 9.00431 22.1789C8.5737 20.0128 8.79522 17.7676 9.64085 15.7274C10.4865 13.6872 11.9182 11.9436 13.755 10.7173C15.5917 9.49091 17.7509 8.83688 19.9594 8.83789C22.9186 8.83925 25.7562 10.0154 27.8486 12.1078C29.9411 14.2003 31.1172 17.0379 31.1186 19.997V19.997Z" fill="white"/>
<path d="M19.9588 30.6286C22.0616 30.6286 24.1171 30.005 25.8654 28.8368C27.6138 27.6686 28.9765 26.0081 29.7812 24.0654C30.5859 22.1228 30.7964 19.9851 30.3862 17.9228C29.976 15.8604 28.9634 13.966 27.4765 12.4792C25.9897 10.9923 24.0953 9.97975 22.0329 9.56952C19.9706 9.1593 17.8329 9.36984 15.8902 10.1745C13.9476 10.9792 12.2871 12.3419 11.1189 14.0903C9.9507 15.8386 9.32715 17.8942 9.32715 19.9969C9.32715 22.8166 10.4473 25.5208 12.4411 27.5146C14.4349 29.5084 17.1391 30.6286 19.9588 30.6286V30.6286Z" fill="#0083CA"/>
<mask id="mask0_606_13639" style="mask-type:alpha" maskUnits="userSpaceOnUse" x="9" y="9" width="22" height="22">
<path d="M19.9588 30.6286C22.0616 30.6286 24.1171 30.005 25.8654 28.8368C27.6138 27.6686 28.9765 26.0081 29.7812 24.0654C30.5859 22.1228 30.7964 19.9851 30.3862 17.9228C29.976 15.8604 28.9634 13.966 27.4765 12.4792C25.9897 10.9923 24.0953 9.97975 22.0329 9.56952C19.9706 9.1593 17.8329 9.36984 15.8902 10.1745C13.9476 10.9792 12.2871 12.3419 11.1189 14.0903C9.9507 15.8386 9.32715 17.8942 9.32715 19.9969C9.32715 22.8166 10.4473 25.5208 12.4411 27.5146C14.4349 29.5084 17.1391 30.6286 19.9588 30.6286V30.6286Z" fill="#0083CA"/>
</mask>
<g mask="url(#mask0_606_13639)">
<path d="M19.9947 25.1338C24.6653 25.1338 28.6701 26.4346 30.3857 28.2782C30.979 26.9218 31.2842 25.4569 31.2819 23.9764C31.2819 20.9842 30.0932 18.1146 27.9775 15.9988C25.8617 13.883 22.992 12.6943 19.9998 12.6943C17.0077 12.6943 14.138 13.883 12.0222 15.9988C9.90643 18.1146 8.71778 20.9842 8.71778 23.9764C8.71565 25.4564 9.01902 26.9209 9.60889 28.2782C11.3194 26.4346 15.319 25.1338 19.9947 25.1338Z" fill="#0083CA"/>
<path d="M19.9947 25.1449C24.655 25.1449 28.6496 26.4354 30.3601 28.2688C30.9493 26.9221 31.2527 25.4677 31.2512 23.9977C31.2512 17.9496 26.2068 13.0332 19.9845 13.0332C13.7622 13.0332 8.71778 17.9496 8.71778 23.9977C8.71575 25.4678 9.01921 26.9222 9.60889 28.2688C11.3399 26.4354 15.319 25.1449 19.9947 25.1449Z" fill="#0085CB"/>
<path d="M19.9943 25.1548C24.6392 25.1548 28.6235 26.4402 30.3289 28.2531C30.9174 26.9187 31.2209 25.4762 31.22 24.0178C31.22 18.0158 26.1858 13.125 19.9943 13.125C13.8027 13.125 8.76857 18.0209 8.76857 24.0178C8.76641 25.4763 9.06998 26.9191 9.65967 28.2531C11.3599 26.4402 15.3442 25.1548 19.9943 25.1548Z" fill="#0086CC"/>
<path d="M19.9895 25.1695C24.6242 25.1695 28.6034 26.4396 30.3036 28.2422C30.8894 26.9268 31.1929 25.5033 31.1947 24.0633C31.1947 18.1125 26.1759 13.2422 19.9946 13.2422C13.8133 13.2422 8.80471 18.1125 8.80471 24.0633C8.80139 25.5099 9.1033 26.9408 9.69069 28.2627C11.3807 26.4396 15.3548 25.1695 19.9895 25.1695Z" fill="#0088CC"/>
<path d="M19.9895 25.1796C24.5986 25.1796 28.5778 26.4394 30.2729 28.2267C30.8592 26.9171 31.1611 25.498 31.1588 24.0632C31.1588 18.1584 26.1554 13.3086 19.9895 13.3086C13.8235 13.3086 8.82521 18.1533 8.82521 24.0632C8.82316 25.4975 9.1233 26.9161 9.70606 28.2267C11.4012 26.4394 15.365 25.1796 19.9895 25.1796Z" fill="#0089CD"/>
<path d="M19.9897 25.1902C24.5988 25.1902 28.5524 26.4398 30.2322 28.2117C30.8143 26.9135 31.1145 25.5067 31.113 24.084C31.113 18.2253 26.1198 13.4062 19.9744 13.4062C13.8289 13.4062 8.84082 18.2304 8.84082 24.084C8.8396 25.5061 9.13798 26.9126 9.71655 28.2117C11.4219 26.4398 15.3806 25.1902 19.9897 25.1902Z" fill="#008BCE"/>
<path d="M19.99 25.2059C24.5991 25.2059 28.5322 26.4401 30.2325 28.2018C30.8139 26.9143 31.1142 25.5176 31.1133 24.1048C31.1133 18.2974 26.1355 13.5039 20.0054 13.5039C13.8753 13.5039 8.89746 18.2974 8.89746 24.1048C8.89687 25.517 9.19534 26.9133 9.7732 28.2018C11.4427 26.4401 15.3912 25.2059 19.99 25.2059Z" fill="#008DCF"/>
<path d="M19.9844 25.2158C24.5935 25.2158 28.5061 26.4449 30.191 28.1861C30.7684 26.91 31.0669 25.5255 31.0667 24.1249C31.0667 18.3687 26.1043 13.5957 19.9844 13.5957C13.8646 13.5957 8.90723 18.3687 8.90723 24.1249C8.90656 25.5256 9.20513 26.9102 9.78295 28.1861C11.4627 26.4449 15.4009 25.2158 19.9844 25.2158Z" fill="#008ED0"/>
<path d="M19.985 25.2264C24.5582 25.2264 28.4862 26.4452 30.1608 28.1711C30.741 26.9086 31.0398 25.5351 31.0366 24.1458C31.0366 18.4356 26.0843 13.6934 19.985 13.6934C13.8856 13.6934 8.9385 18.4407 8.9385 24.1458C8.93562 25.5346 9.23258 26.9076 9.8091 28.1711C11.4837 26.4452 15.4117 25.2264 19.985 25.2264Z" fill="#0090D0"/>
<path d="M19.9847 25.2413C24.5426 25.2413 28.4604 26.4448 30.135 28.1604C30.7104 26.9075 31.0074 25.5447 31.0056 24.1659C31.0056 18.5325 26.0687 13.7852 19.9847 13.7852C13.9007 13.7852 8.96387 18.5069 8.96387 24.1659C8.96396 25.5444 9.2609 26.9068 9.83448 28.1604C11.5091 26.4448 15.4217 25.2413 19.9847 25.2413Z" fill="#0092D1"/>
<path d="M19.9845 25.2512C24.5321 25.2512 28.4345 26.4444 30.1092 28.1447C30.6815 26.9034 30.9785 25.5529 30.9798 24.186C30.9798 18.5526 26.0532 13.877 19.9845 13.877C13.9159 13.877 8.98926 18.5782 8.98926 24.186C8.98935 25.553 9.28639 26.9037 9.85986 28.1447C11.5294 26.4444 15.4317 25.2512 19.9845 25.2512Z" fill="#0093D2"/>
<path d="M19.9789 25.2623C24.5163 25.2623 28.4136 26.4504 30.078 28.1301C30.6508 26.9016 30.9479 25.5627 30.9486 24.2073C30.9486 18.6456 26.0322 13.9648 19.9789 13.9648C13.9257 13.9648 9.01954 18.6405 9.01954 24.2073C9.01797 25.5624 9.3134 26.9015 9.88503 28.1301C11.5494 26.4504 15.4415 25.2623 19.9789 25.2623Z" fill="#0095D3"/>
<path d="M19.9797 25.2768C24.5018 25.2768 28.3888 26.4495 30.0531 28.119C30.6237 26.9009 30.9192 25.5721 30.9186 24.2269C30.9186 18.7165 26.0176 14.0664 19.9797 14.0664C13.9418 14.0664 9.0459 18.7165 9.0459 24.2269C9.04433 25.5722 9.33987 26.9012 9.91139 28.119C11.5707 26.4495 15.4526 25.2768 19.9797 25.2768Z" fill="#0097D4"/>
<path d="M19.9795 25.2874C24.4913 25.2874 28.3681 26.4499 30.0222 28.104C30.592 26.9001 30.8876 25.5848 30.8877 24.2529C30.8877 18.7885 26.0021 14.1641 19.9795 14.1641C13.9569 14.1641 9.07129 18.7732 9.07129 24.2529C9.07085 25.5849 9.36647 26.9003 9.93678 28.104C11.5909 26.4499 15.4626 25.2874 19.9795 25.2874Z" fill="#0098D5"/>
<path d="M19.9739 25.2972C24.4755 25.2972 28.342 26.4495 29.9962 28.0883C30.5618 26.8959 30.8556 25.5927 30.8565 24.273C30.8565 18.8547 25.9811 14.2559 19.9739 14.2559C13.9667 14.2559 9.10156 18.865 9.10156 24.273C9.10124 25.5929 9.39517 26.8963 9.96194 28.0883C11.611 26.4495 15.4724 25.2972 19.9739 25.2972Z" fill="#009AD5"/>
<path d="M19.9747 25.3078C24.4609 25.3078 28.3171 26.455 29.9662 28.0784C30.5311 26.8966 30.825 25.6037 30.8265 24.2938C30.8265 18.9268 25.9665 14.3535 19.9747 14.3535C13.9828 14.3535 9.12793 18.9268 9.12793 24.2938C9.12822 25.6038 9.42221 26.897 9.98829 28.0784C11.6322 26.455 15.4834 25.3078 19.9747 25.3078Z" fill="#009CD6"/>
<path d="M19.9745 25.3228C24.4504 25.3228 28.2965 26.4546 29.9404 28.0626C30.5013 26.8924 30.7935 25.6116 30.7956 24.3139C30.7956 18.9981 25.9458 14.4453 19.9745 14.4453C14.0031 14.4453 9.17383 18.9981 9.17383 24.3139C9.17476 25.6123 9.46886 26.8938 10.0342 28.0626C11.6525 26.4546 15.4934 25.3228 19.9745 25.3228Z" fill="#009ED7"/>
<path d="M19.9745 25.3336C24.4351 25.3336 28.2709 26.4552 29.9097 28.0479C30.4727 26.8911 30.7651 25.6215 30.7649 24.335C30.7649 19.0652 25.9305 14.5381 19.9745 14.5381C14.0185 14.5381 9.17383 19.0652 9.17383 24.335C9.17235 25.6216 9.46489 26.8916 10.0291 28.0479C11.673 26.4552 15.5037 25.3336 19.9745 25.3336Z" fill="#00A0D8"/>
<path d="M19.9689 25.3437C24.4193 25.3437 28.2499 26.455 29.8836 28.0375C30.4425 26.8904 30.7332 25.6313 30.7337 24.3553C30.7337 19.1368 25.9147 14.625 19.9792 14.625C14.0437 14.625 9.22461 19.1266 9.22461 24.3553C9.22459 25.6313 9.51532 26.8906 10.0747 28.0375C11.693 26.455 15.5135 25.3437 19.9689 25.3437Z" fill="#00A1D9"/>
<path d="M19.9694 25.3592C24.4095 25.3592 28.2248 26.4603 29.8533 28.0222C30.4121 26.8879 30.7029 25.6404 30.7035 24.3759C30.7035 19.2086 25.8946 14.7275 19.9489 14.7275C14.0032 14.7275 9.19434 19.2086 9.19434 24.3759C9.19671 25.6402 9.48746 26.8873 10.0445 28.0222C11.7345 26.4603 15.5293 25.3592 19.9694 25.3592Z" fill="#00A3DA"/>
<path d="M19.969 25.3696C24.3937 25.3696 28.1988 26.4604 29.8273 28.007C30.3803 26.8925 30.6711 25.6663 30.6775 24.4222C30.6775 19.3009 25.8789 14.8506 19.969 14.8506C14.0591 14.8506 9.26562 19.3009 9.26562 24.4222C9.27016 25.6659 9.5592 26.8922 10.1106 28.007C11.7341 26.4604 15.5391 25.3696 19.969 25.3696Z" fill="#00A5DB"/>
<path d="M19.9688 25.3799C24.3781 25.3799 28.1627 26.4605 29.7964 27.9968C30.355 26.8844 30.6461 25.6568 30.6465 24.412C30.6465 19.342 25.8633 14.9121 19.9688 14.9121C14.0742 14.9121 9.29102 19.342 9.29102 24.412C9.29095 25.6563 9.58023 26.8835 10.136 27.9968C11.7338 26.4605 15.5491 25.3799 19.9688 25.3799Z" fill="#00A7DC"/>
<path d="M19.9642 25.3954C24.3684 25.3954 28.1581 26.4606 29.7713 27.9816C30.3249 26.884 30.6143 25.6721 30.6163 24.4428C30.6163 19.4189 25.8433 15.0146 19.9642 15.0146C14.085 15.0146 9.32227 19.4189 9.32227 24.4428C9.32251 25.6718 9.61011 26.8836 10.1621 27.9816C11.7753 26.4606 15.5599 25.3954 19.9642 25.3954Z" fill="#00A9DD"/>
<path d="M19.964 25.4052C24.3528 25.4052 28.1323 26.4653 29.7404 27.9658C30.2939 26.881 30.5835 25.6808 30.5854 24.4629C30.5854 19.4851 25.8278 15.1064 19.964 15.1064C14.1002 15.1064 9.34766 19.4851 9.34766 24.4629C9.34969 25.6802 9.63737 26.88 10.1875 27.9658C11.7956 26.4653 15.5699 25.4052 19.964 25.4052Z" fill="#00ABDE"/>
<path d="M19.9637 25.4158C24.3424 25.4158 28.1065 26.4657 29.694 27.9764C30.243 26.9011 30.5307 25.7116 30.5339 24.5043C30.5339 19.5776 25.7917 15.2246 19.9432 15.2246C14.0948 15.2246 9.35254 19.5776 9.35254 24.5043C9.36055 25.7051 9.64996 26.8873 10.1975 27.956C11.821 26.4657 15.5799 25.4158 19.9637 25.4158Z" fill="#00ADDE"/>
<path d="M19.9589 25.4262C24.3273 25.4262 28.0812 26.4504 29.6892 27.9407C30.2402 26.879 30.5282 25.7005 30.5291 24.5043C30.5291 19.6289 25.7971 15.2861 19.964 15.2861C14.131 15.2861 9.40918 19.6187 9.40918 24.5043C9.41025 25.6999 9.69642 26.8779 10.2439 27.9407C11.8418 26.4658 15.5905 25.4262 19.9589 25.4262Z" fill="#00AFDF"/>
<path d="M19.9589 25.4407C24.312 25.4407 28.0607 26.4649 29.6585 27.9244C30.2053 26.8743 30.4917 25.708 30.4933 24.524C30.4933 19.6946 25.7766 15.3877 19.9589 15.3877C14.1412 15.3877 9.42969 19.6946 9.42969 24.524C9.43071 25.7081 9.71705 26.8745 10.2644 27.9244C11.8623 26.4649 15.6008 25.4407 19.9589 25.4407Z" fill="#00B1E0"/>
<path d="M19.9587 25.4513C24.3015 25.4513 28.0349 26.4755 29.6276 27.9146C30.1742 26.8753 30.4606 25.719 30.4623 24.5448C30.4623 19.7667 25.7611 15.4854 19.9587 15.4854C14.1564 15.4854 9.45508 19.7667 9.45508 24.5448C9.45619 25.7191 9.74266 26.8755 10.2898 27.9146C11.8825 26.4704 15.6108 25.4513 19.9587 25.4513Z" fill="#00B3E1"/>
<path d="M19.9592 25.4611C24.2867 25.4611 28.0149 26.4854 29.6025 27.8988C30.1452 26.8712 30.4299 25.727 30.4321 24.5649C30.4321 19.8329 25.7411 15.5771 19.9592 15.5771C14.1774 15.5771 9.48633 19.838 9.48633 24.5649C9.48859 25.727 9.77333 26.8712 10.316 27.8988C11.9036 26.47 15.6216 25.4611 19.9592 25.4611Z" fill="#0DB5E2"/>
<path d="M19.9539 25.4768C24.2711 25.4768 27.9891 26.4703 29.5715 27.8838C30.1138 26.8689 30.3987 25.7364 30.4012 24.5857C30.4012 19.9049 25.7255 15.6748 19.9539 15.6748C14.1823 15.6748 9.51172 19.9049 9.51172 24.5857C9.51424 25.7364 9.79911 26.8689 10.3414 27.8838C11.9238 26.4703 15.6316 25.4768 19.9539 25.4768Z" fill="#19B7E3"/>
<path d="M19.9537 25.4867C24.2606 25.4867 27.9633 26.47 29.5457 27.8732C30.0866 26.8706 30.3716 25.7501 30.3754 24.611C30.3754 20.0019 25.7099 15.7666 19.9537 15.7666C14.1974 15.7666 9.53711 19.9762 9.53711 24.611C9.54025 25.7502 9.82527 26.8709 10.3667 27.8732C11.9441 26.47 15.6416 25.4867 19.9537 25.4867Z" fill="#21B9E4"/>
<path d="M19.9542 25.4973C24.2458 25.4973 27.9433 26.4754 29.5206 27.8582C30.0572 26.8671 30.3404 25.7588 30.3452 24.6318C30.3452 20.0227 25.69 15.8643 19.9542 15.8643C14.2184 15.8643 9.56836 20.0432 9.56836 24.6318C9.57066 25.7584 9.85219 26.8669 10.3878 27.8582C11.9651 26.4754 15.6524 25.4973 19.9542 25.4973Z" fill="#28BBE5"/>
<path d="M19.9535 25.5235C24.2399 25.5235 27.9324 26.4965 29.5046 27.869C30.0417 26.8855 30.325 25.7837 30.3291 24.6631C30.3291 20.1103 25.6841 15.957 19.9535 15.957C14.2228 15.957 9.58301 20.1206 9.58301 24.6631C9.58462 25.7833 9.8663 26.8854 10.4024 27.869C11.9746 26.4965 15.6619 25.5235 19.9535 25.5235Z" fill="#37BDE6"/>
<path d="M19.954 25.5536C24.2353 25.5536 27.9226 26.5163 29.4897 27.8837C30.0276 26.9061 30.3111 25.809 30.3142 24.6932C30.3142 20.1711 25.6744 16.0332 19.954 16.0332C14.2336 16.0332 9.59375 20.1711 9.59375 24.6932C9.5992 25.808 9.88072 26.9042 10.4131 27.8837C11.9854 26.5163 15.6675 25.5536 19.954 25.5536Z" fill="#43BFE6"/>
<path d="M19.9542 25.5995C24.2305 25.5995 27.9075 26.5572 29.4797 27.9143C30.0137 26.9447 30.2954 25.8564 30.2991 24.7494C30.2991 20.253 25.69 16.1406 19.9542 16.1406C14.2185 16.1406 9.60938 20.2376 9.60938 24.7494C9.61238 25.8564 9.89418 26.9449 10.4288 27.9143C11.9959 26.5367 15.6729 25.5995 19.9542 25.5995Z" fill="#4DC0E7"/>
<path d="M19.9535 25.5996C24.2246 25.5996 27.8965 26.5521 29.4636 27.899C29.9998 26.9374 30.2835 25.8556 30.2882 24.7546C30.2882 20.2889 25.679 16.2021 19.9535 16.2021C14.228 16.2021 9.62402 20.2991 9.62402 24.7546C9.62779 25.8544 9.90779 26.9356 10.4383 27.899C12.0054 26.5573 15.6773 25.5996 19.9535 25.5996Z" fill="#56C2E8"/>
<path d="M19.9538 25.636C24.2198 25.636 27.8866 26.5783 29.4537 27.915C29.9851 26.961 30.2669 25.8882 30.2731 24.7961C30.2731 20.3612 25.6639 16.2949 19.9538 16.2949C14.2436 16.2949 9.63965 20.3612 9.63965 24.7961C9.64106 25.8881 9.92134 26.9617 10.4539 27.915C12.0159 26.5783 15.6827 25.636 19.9538 25.636Z" fill="#5EC4E8"/>
<path d="M19.9533 25.6615C24.209 25.6615 27.8758 26.5987 29.4378 27.9302C29.9714 26.9826 30.2534 25.9142 30.2572 24.8267C30.2572 20.4225 25.6481 16.3818 19.9533 16.3818C14.2585 16.3818 9.64941 20.4225 9.64941 24.8267C9.65388 25.9135 9.93405 26.9813 10.4637 27.9302C12.0308 26.6243 15.6873 25.6615 19.9533 25.6615Z" fill="#65C6E9"/>
<path d="M19.9536 25.6865C24.2042 25.6865 27.8659 26.6185 29.4278 27.9398C29.9556 27.0012 30.2358 25.9438 30.2421 24.8671C30.2421 20.4936 25.633 16.4785 19.9536 16.4785C14.2742 16.4785 9.68555 20.4782 9.68555 24.8568C9.69118 25.9337 9.97144 26.9913 10.4998 27.9296C12.0413 26.6237 15.6979 25.6865 19.9536 25.6865Z" fill="#6DC7EA"/>
<path d="M19.9536 25.7121C24.1991 25.7121 27.8556 26.6391 29.4125 27.9501C29.9443 27.0132 30.2248 25.9547 30.2268 24.8774C30.2268 20.5295 25.6177 16.54 19.9536 16.54C14.2895 16.54 9.68555 20.5448 9.68555 24.8927C9.68572 25.9696 9.96446 27.0282 10.4947 27.9655C12.0515 26.6237 15.703 25.7121 19.9536 25.7121Z" fill="#74C9EA"/>
<path d="M19.9534 25.743C24.1938 25.743 27.8452 26.6597 29.4021 27.9656C29.9283 27.0376 30.2086 25.9904 30.2163 24.9236C30.2163 20.6064 25.6072 16.6426 19.9739 16.6426C14.3405 16.6426 9.73145 20.6115 9.73145 24.9236C9.73436 25.9904 10.0131 27.0383 10.5406 27.9656C12.0616 26.6597 15.7079 25.743 19.9534 25.743Z" fill="#7ACBEB"/>
<path d="M19.9541 25.7685C24.1894 25.7685 27.8357 26.68 29.3874 27.9757C29.9157 27.0578 30.1963 26.0183 30.2017 24.9593C30.2017 20.6728 25.5926 16.7295 19.9592 16.7295C14.3259 16.7295 9.7168 20.6728 9.7168 24.9593C9.72227 26.0177 10.001 27.0567 10.526 27.9757C12.0726 26.68 15.7137 25.7685 19.9541 25.7685Z" fill="#81CDEC"/>
<path d="M19.9539 25.7949C24.184 25.7949 27.8252 26.7013 29.3769 27.9867C29.9013 27.0749 30.1801 26.0427 30.1861 24.9908C30.1861 20.7351 25.6026 16.7969 19.9436 16.7969C14.2847 16.7969 9.70117 20.7197 9.70117 24.9908C9.70408 26.0431 9.98308 27.0761 10.5103 27.9867C12.0825 26.7013 15.7186 25.7949 19.9539 25.7949Z" fill="#87CFEC"/>
<path d="M19.9541 25.8247C24.1791 25.8247 27.8101 26.7209 29.3618 27.9961C29.8865 27.0919 30.1654 26.0661 30.171 25.0207C30.171 20.7957 25.5926 16.8984 19.9541 16.8984C14.3157 16.8984 9.7373 20.7957 9.7373 25.0207C9.74104 26.0657 10.0182 27.0915 10.5413 27.9961C12.0931 26.7209 15.724 25.8247 19.9541 25.8247Z" fill="#8ED1ED"/>
<path d="M19.9534 25.8512C24.1733 25.8512 27.7991 26.7423 29.3509 28.0123C29.8741 27.1149 30.1531 26.0961 30.16 25.0574C30.16 20.858 25.5868 16.9863 19.9534 16.9863C14.3201 16.9863 9.75195 20.8631 9.75195 25.0574C9.7564 26.0958 10.0337 27.1148 10.556 28.0123C12.1026 26.7423 15.7335 25.8512 19.9534 25.8512Z" fill="#94D3EE"/>
<path d="M19.9537 25.8766C24.1685 25.8766 27.7892 26.7626 29.3358 28.0224C29.8685 27.1352 30.1566 26.1227 30.1705 25.0879C30.1705 20.9193 25.6024 17.0732 19.9793 17.0732C14.3562 17.0732 9.78809 20.9244 9.78809 25.0879C9.79251 26.1199 10.0699 27.1323 10.5921 28.0224C12.1131 26.7626 15.7389 25.8766 19.9537 25.8766Z" fill="#9AD5EF"/>
<path d="M19.9542 25.9021C24.1638 25.9021 27.7794 26.7829 29.3209 28.0325C29.8437 27.1518 30.123 26.1479 30.1301 25.1237C30.1301 20.9857 25.5722 17.1602 19.9542 17.1602C14.3362 17.1602 9.77832 20.9857 9.77832 25.1237C9.78286 26.1475 10.0604 27.1517 10.5824 28.0325C12.1238 26.7829 15.7445 25.9021 19.9542 25.9021Z" fill="#A0D7F0"/>
<path d="M19.9535 25.9327C24.158 25.9327 27.7685 26.8033 29.3099 28.0426C29.8293 27.1681 30.1068 26.1713 30.114 25.1542C30.114 21.0573 25.5612 17.2471 19.9535 17.2471C14.3457 17.2471 9.79297 21.047 9.79297 25.1542C9.79587 26.1712 10.0718 27.1687 10.5919 28.0426C12.1334 26.8033 15.7489 25.9327 19.9535 25.9327Z" fill="#A6D9F0"/>
<path d="M19.9537 25.9581C24.1531 25.9581 27.7585 26.8236 29.2949 28.0578C29.818 27.1903 30.0975 26.1978 30.104 25.1848C30.104 21.0878 25.5563 17.334 19.9537 17.334C14.3511 17.334 9.80859 21.1134 9.80859 25.1848C9.81199 26.1969 10.088 27.1893 10.6075 28.0578C12.1439 26.8236 15.7543 25.9581 19.9537 25.9581Z" fill="#ACDCF1"/>
<path d="M19.954 25.9836C24.1432 25.9836 27.7485 26.844 29.2849 28.0679C29.8032 27.208 30.0809 26.2245 30.0889 25.2205C30.0889 21.1696 25.5464 17.4209 19.954 17.4209C14.3616 17.4209 9.82422 21.1748 9.82422 25.2205C9.82864 26.2237 10.1028 27.2072 10.618 28.0679C12.1595 26.844 15.7597 25.9836 19.954 25.9836Z" fill="#B2DEF2"/>
<path d="M19.9535 26.01C24.1375 26.01 27.7378 26.8652 29.269 28.0585C29.7873 27.206 30.0651 26.2292 30.073 25.2316C30.073 21.2165 25.5356 17.4883 19.9535 17.4883C14.3714 17.4883 9.83398 21.2165 9.83398 25.2316C9.83699 26.2292 10.1133 27.2069 10.6329 28.0585C12.1693 26.8652 15.7695 26.01 19.9535 26.01Z" fill="#B8E0F3"/>
<path d="M19.9538 26.0404C24.1327 26.0404 27.7278 26.8854 29.259 28.0888C29.7741 27.2428 30.0502 26.2729 30.0579 25.2824C30.0579 21.293 25.5308 17.6006 19.9538 17.6006C14.3768 17.6006 9.84961 21.3032 9.84961 25.2824C9.85401 26.2734 10.1303 27.2441 10.6485 28.0888C12.1798 26.8854 15.7749 26.0404 19.9538 26.0404Z" fill="#BDE2F4"/>
<path d="M19.954 26.0658C24.1278 26.0658 27.7178 26.9057 29.2439 28.1143C29.7595 27.276 30.0357 26.3125 30.0428 25.3284C30.0428 21.3697 25.5208 17.6875 19.954 17.6875C14.3873 17.6875 9.86523 21.3748 9.86523 25.3284C9.86974 26.3122 10.1443 27.2759 10.659 28.1143C12.1903 26.9057 15.7802 26.0658 19.954 26.0658Z" fill="#C3E5F5"/>
<path d="M19.9533 26.1123C24.122 26.1123 27.7017 26.947 29.233 28.1351C29.7461 27.3033 30.0224 26.3471 30.0319 25.3697C30.0319 21.4417 25.515 17.7852 19.9533 17.7852C14.3917 17.7852 9.87988 21.4468 9.87988 25.3697C9.88264 26.3466 10.1556 27.3037 10.6686 28.1351C12.1998 26.9265 15.7846 26.1123 19.9533 26.1123Z" fill="#C9E7F5"/>
<path d="M19.9538 26.1116C24.1174 26.1116 27.692 26.9361 29.2181 28.114C29.7309 27.2914 30.0073 26.3434 30.017 25.3741C30.017 21.4718 25.5052 17.8408 19.9538 17.8408C14.4024 17.8408 9.89062 21.5025 9.89062 25.3844C9.89536 26.3537 10.1703 27.3025 10.6844 28.1242C12.2105 26.9463 15.7903 26.1116 19.9538 26.1116Z" fill="#CEE9F6"/>
<path d="M19.9541 26.1478C24.1125 26.1478 27.682 26.9672 29.2081 28.14C29.7186 27.3222 29.9933 26.3794 30.0019 25.4155C30.0019 21.5489 25.5004 17.9385 19.9541 17.9385C14.4078 17.9385 9.90625 21.5489 9.90625 25.4155C9.91064 26.3879 10.1893 27.3393 10.7103 28.1604C12.2467 26.9672 15.7957 26.1478 19.9541 26.1478Z" fill="#D4ECF7"/>
<path d="M19.9533 26.1732C24.1066 26.1732 27.671 26.9875 29.1715 28.15C29.6829 27.3421 29.9579 26.4073 29.9653 25.4512C29.9653 21.6102 25.4689 18.0254 19.9329 18.0254C14.3968 18.0254 9.90039 21.6102 9.90039 25.4512C9.90832 26.4126 10.1889 27.352 10.7095 28.1603C12.2459 26.9875 15.8308 26.1732 19.9533 26.1732Z" fill="#DAEEF8"/>
<path d="M19.9539 26.1987C24.102 26.1987 27.6613 27.0079 29.1721 28.1601C29.6836 27.3596 29.9603 26.4317 29.971 25.4817C29.971 21.6716 25.4745 18.1123 19.9487 18.1123C14.423 18.1123 9.93164 21.6972 9.93164 25.4817C9.93533 26.4298 10.205 27.3578 10.7101 28.1601C12.2464 27.0079 15.8313 26.1987 19.9539 26.1987Z" fill="#DFF1F9"/>
<path d="M19.9539 26.2293C24.097 26.2293 27.6357 27.0282 29.1721 28.1702C29.6824 27.377 29.9576 26.4555 29.9659 25.5123C29.9659 21.7329 25.4797 18.1992 19.959 18.1992C14.4383 18.1992 9.95215 21.738 9.95215 25.5123C9.95605 26.4554 10.2297 27.3777 10.7408 28.1702C12.2465 27.0282 15.8313 26.2293 19.9539 26.2293Z" fill="#E5F3FA"/>
<path d="M19.9534 26.2557C24.0914 26.2557 27.6353 27.0495 29.1716 28.1864C29.6803 27.4 29.9556 26.4855 29.9654 25.549C29.9654 21.8003 25.4844 18.2871 19.9739 18.2871C14.4635 18.2871 9.98242 21.8003 9.98242 25.549C9.98868 26.4846 10.2604 27.3992 10.766 28.1864C12.246 27.0495 15.8309 26.2557 19.9534 26.2557Z" fill="#EBF6FB"/>
<path d="M19.9537 26.2812C24.0865 26.2812 27.6355 27.0699 29.1411 28.1965C29.6464 27.4164 29.9198 26.509 29.9298 25.5796C29.9298 21.8616 25.459 18.374 19.9537 18.374C14.4484 18.374 9.97754 21.8616 9.97754 25.6001C9.98315 26.5294 10.2551 27.4375 10.7611 28.217C12.2718 27.0699 15.8311 26.2812 19.9537 26.2812Z" fill="#F1F8FD"/>
<path d="M19.9539 26.3061C24.0816 26.3061 27.6358 27.0897 29.126 28.2061C29.6354 27.4317 29.9094 26.5263 29.9147 25.5994C29.9147 21.907 25.449 18.4297 19.9539 18.4297C14.4589 18.4297 9.99316 21.8968 9.99316 25.5994C9.99783 26.5201 10.2681 27.4199 10.7716 28.1907C12.2875 27.0897 15.8313 26.3061 19.9539 26.3061Z" fill="#F7FBFE"/>
<path d="M19.9535 26.3375C24.0504 26.3375 27.6046 27.1108 29.1153 28.2221C29.6165 27.461 29.8901 26.5727 29.904 25.6615C29.904 21.9998 25.4434 18.5635 19.9535 18.5635C14.4635 18.5635 10.0029 22.0049 10.0029 25.6615C10.0124 26.5726 10.2845 27.4617 10.7865 28.2221C12.2972 27.1364 15.8309 26.3375 19.9535 26.3375Z" fill="white"/>
<path d="M19.954 22.6809C16.6394 22.6503 13.3454 23.2051 10.2236 24.3197C11.0596 26.1973 12.422 27.7923 14.1457 28.9117C15.8695 30.0311 17.8807 30.6268 19.936 30.6268C21.9914 30.6268 24.0026 30.0311 25.7263 28.9117C27.4501 27.7923 28.8124 26.1973 29.6484 24.3197C26.5384 23.2078 23.2567 22.6531 19.954 22.6809V22.6809Z" fill="#0083CA"/>
</g>
</g>
<defs>
<clipPath id="clip0_606_13639">
<rect width="22.5641" height="22.3234" fill="white" transform="translate(8.71777 8.83789)"/>
</clipPath>
</defs>
</svg>
