<svg width="40" height="40" viewBox="0 0 40 40" fill="none" xmlns="http://www.w3.org/2000/svg">
<circle cx="20" cy="20" r="19.9" fill="white" stroke="black" stroke-width="0.2"/>
<g clip-path="url(#clip0_606_13624)">
<path fill-rule="evenodd" clip-rule="evenodd" d="M17.1306 30.5153C16.6285 30.8556 16.0416 31.0495 15.4356 31.0753C14.7299 31.0624 14.055 30.7835 13.5461 30.2943C13.0373 29.8051 12.732 29.1417 12.6914 28.437L15.5365 26.7471L19.9505 28.7245L17.1306 30.5153Z" fill="#72A3B6"/>
<path fill-rule="evenodd" clip-rule="evenodd" d="M18.8103 23.2409L16.7017 22.3127C15.7584 21.8991 14.8705 21.5409 14.8705 20.5068C14.8566 20.3053 14.8863 20.1032 14.9577 19.9142C15.0291 19.7253 15.1405 19.554 15.2842 19.4121L19.7385 21.3694L18.6438 22.0151C18.3361 22.1967 18.1394 22.3632 18.1394 22.6002C18.1394 22.8373 18.4269 23.0694 18.8254 23.2409H18.8103Z" fill="#96CE8E"/>
<path fill-rule="evenodd" clip-rule="evenodd" d="M20.878 13.5099L18.7139 14.8265C18.5222 14.9425 18.2599 15.1242 18.2599 15.4167C18.2599 15.7093 18.7644 15.9918 19.2032 16.2037L16.5044 15.0132C15.7124 14.66 14.9104 14.2666 14.9104 13.3031C14.9049 12.9436 15.0106 12.5913 15.213 12.2942L21.0646 8.72266C21.4742 8.94784 21.8169 9.27739 22.0579 9.67786C22.2989 10.0783 22.4296 10.5355 22.4368 11.0028C22.4403 11.5272 22.2959 12.042 22.0202 12.4882C21.7445 12.9343 21.3486 13.2937 20.878 13.525V13.5099Z" fill="#72A3B6"/>
<path fill-rule="evenodd" clip-rule="evenodd" d="M25.4741 17.727L24.9393 18.0347L20.4648 16.0623L25.6607 12.9297C26.0715 13.1561 26.4157 13.4863 26.6591 13.8872C26.9025 14.2882 27.0366 14.7459 27.0479 15.2149C27.0563 15.7422 26.9122 16.2607 26.633 16.7081C26.3538 17.1555 25.9514 17.5128 25.4741 17.7371V17.727Z" fill="#96CE8E"/>
<path fill-rule="evenodd" clip-rule="evenodd" d="M21.6953 21.5312L24.3436 22.6915C25.3525 23.1354 25.6401 23.66 25.6401 24.3158C25.6313 24.5099 25.5819 24.7001 25.495 24.8739C25.4081 25.0477 25.2857 25.2013 25.1356 25.3247L20.6914 23.3473L21.438 22.9336C22.0736 22.5755 22.2905 22.3686 22.2905 22.1366C22.2905 21.9045 22.1341 21.7381 21.7003 21.5363L21.6953 21.5312Z" fill="#72A3B6"/>
<path fill-rule="evenodd" clip-rule="evenodd" d="M26.4218 31.2818C25.2449 30.4333 23.9715 29.7272 22.6284 29.1783L15.899 26.1869C14.204 25.4302 13.0791 24.4314 13.0791 22.7364C13.0791 21.0415 13.8761 20.2949 14.9103 19.6391L15.2836 19.4121C15.1398 19.554 15.0285 19.7253 14.9571 19.9142C14.8857 20.1032 14.856 20.3053 14.8699 20.5068C14.8699 21.5409 15.7577 21.8991 16.7011 22.3127L24.5302 25.7631C25.9023 26.3534 27.1432 27.3623 27.1432 29.0673C27.1601 29.8658 26.9058 30.6465 26.4218 31.2818V31.2818Z" fill="#4C9847"/>
<path fill-rule="evenodd" clip-rule="evenodd" d="M25.615 25.0115L25.1106 25.3192C25.2606 25.1957 25.3831 25.0421 25.47 24.8683C25.5569 24.6945 25.6063 24.5044 25.615 24.3103C25.615 23.6545 25.3073 23.1299 24.3186 22.686L15.9447 19.0085C14.2497 18.2468 13.1954 17.2833 13.1954 15.5984C13.1899 14.916 13.373 14.2454 13.7247 13.6605C14.0763 13.0756 14.5827 12.5993 15.188 12.2842C14.9856 12.5813 14.8799 12.9336 14.8853 13.2931C14.8853 14.2566 15.6874 14.6501 16.4794 15.0032L24.6162 18.5949C26.1043 19.2557 27.3049 20.2545 27.3049 22.0504C27.3222 22.6532 27.1707 23.2488 26.8677 23.7702C26.5647 24.2916 26.1221 24.718 25.5898 25.0014L25.615 25.0115Z" fill="#296085"/>
</g>
<defs>
<clipPath id="clip0_606_13624">
<rect width="14.6493" height="22.5641" fill="white" transform="translate(12.6758 8.71777)"/>
</clipPath>
</defs>
</svg>
