<svg width="40" height="40" viewBox="0 0 40 40" fill="none" xmlns="http://www.w3.org/2000/svg">
<circle cx="20" cy="20" r="19.9" fill="white" stroke="black" stroke-width="0.2"/>
<g clip-path="url(#clip0_606_14117)">
<path d="M15.7098 23.3552L15.6676 23.3944C15.3985 23.6951 15.0711 23.938 14.7054 24.1085C14.3396 24.2789 13.943 24.3733 13.5396 24.386C11.9602 24.386 10.8119 23.1984 10.8119 21.5618C10.8119 19.9251 11.9602 18.7406 13.5396 18.7406C13.943 18.7532 14.3396 18.8476 14.7054 19.0181C15.0711 19.1885 15.3985 19.4315 15.6676 19.7322L15.7098 19.7744L16.7256 18.5416L16.6984 18.5115C16.33 18.041 15.8579 17.6621 15.3188 17.4044C14.7797 17.1466 14.1883 17.0169 13.5909 17.0255C12.4064 16.9997 11.2557 17.4216 10.3688 18.2071C9.49192 19.1042 9.00098 20.3088 9.00098 21.5633C9.00098 22.8177 9.49192 24.0224 10.3688 24.9195C11.255 25.7063 12.4061 26.1284 13.5909 26.101C14.188 26.1095 14.7791 25.9801 15.3181 25.7229C15.857 25.4657 16.3294 25.0876 16.6984 24.6181L16.7256 24.5849L15.7098 23.3552Z" fill="#004785"/>
<path d="M19.5493 17.1592H17.7529V25.9272H19.5493V17.1592Z" fill="#004785"/>
<path d="M26.5839 24.0154C26.1909 24.2815 25.7319 24.4338 25.2577 24.4554C24.676 24.4554 24.4168 24.154 24.4168 23.4668V18.816H26.2464V17.1643H24.4168V14.4365L22.6535 15.3769V17.1643H21.1465V18.816H22.6535V23.7652C22.6535 25.1125 23.4523 26.0318 24.6459 26.0559C25.2055 26.0851 25.761 25.9454 26.2403 25.6551H26.2584L26.7045 23.9581L26.5839 24.0154Z" fill="#004785"/>
<path d="M29.8667 17.1592H28.0703V25.9272H29.8667V17.1592Z" fill="#004785"/>
<path d="M30.9246 15.6189C30.1205 14.4728 29.0523 13.5372 27.8102 12.8913C26.5681 12.2454 25.1887 11.9082 23.7887 11.9082C22.3887 11.9082 21.0093 12.2454 19.7672 12.8913C18.5251 13.5372 17.4568 14.4728 16.6528 15.6189L16.5684 15.7364H18.633L18.6571 15.7123C19.3158 15.0119 20.1109 14.4537 20.9934 14.0721C21.8759 13.6906 22.8272 13.4938 23.7887 13.4938C24.7501 13.4938 25.7014 13.6906 26.5839 14.0721C27.4665 14.4537 28.2615 15.0119 28.9202 15.7123L28.9443 15.7364H31.009L30.9246 15.6189Z" fill="#ED1C2E"/>
</g>
<defs>
<clipPath id="clip0_606_14117">
<rect width="22" height="14.1844" fill="white" transform="translate(9 11.9082)"/>
</clipPath>
</defs>
</svg>
