<svg width="40" height="40" viewBox="0 0 40 40" fill="none" xmlns="http://www.w3.org/2000/svg">
<circle cx="20" cy="20" r="19.9" fill="white" stroke="black" stroke-width="0.2"/>
<g clip-path="url(#clip0_606_14143)">
<path d="M20.0043 12.2285C13.3737 12.2285 9.00293 15.7083 9.00293 20.0031C9.00293 24.298 13.3709 27.775 20.0043 27.775C26.6378 27.775 31.0029 24.2924 31.0029 20.0031C31.0029 15.7139 26.6322 12.2285 20.0043 12.2285Z" fill="white"/>
<path d="M21.9715 22.9071C23.8604 22.5783 30.238 21.2656 29.451 17.6285C29.1699 16.3215 27.8264 14.8852 25.797 13.8873C23.9611 13.0985 21.9795 12.7058 19.9815 12.7349C13.8287 12.7349 9.54785 15.9898 9.54785 20.0036C9.54785 22.7975 11.625 25.2232 14.967 26.4375C15.6669 24.5711 18.489 23.5086 21.9715 22.9071Z" fill="#007DC5"/>
<path d="M20.0042 24.1944C17.2412 24.5401 15.9764 25.4311 15.1641 26.5133C16.7109 27.0273 18.3321 27.2818 19.9621 27.2666C26.1177 27.2666 30.3985 24.0145 30.3985 20.0035C30.3985 19.6517 30.3655 19.3007 30.3001 18.9551C30.1062 23.666 23.0343 23.8177 20.0042 24.1944Z" fill="url(#paint0_linear_606_14143)"/>
<path d="M14.0338 16.209H11.9707L11.9932 16.268C12.0752 16.59 12.1027 16.9235 12.0747 17.2546C12.0747 17.3389 12.0747 22.0329 12.0747 22.0329H12.114C12.114 22.0329 13.0557 22.0667 13.9383 22.0667C15.7821 22.0667 17.0301 20.8187 17.0301 18.9579C17.0189 17.2827 15.8468 16.209 14.0338 16.209ZM12.9573 16.729C13.0753 16.729 13.4407 16.6924 13.7021 16.6924C15.279 16.6924 16.0126 17.457 16.0126 19.0957C16.0126 20.7821 15.3605 21.6254 14.0198 21.6254C13.036 21.6254 12.9573 21.5776 12.9573 20.9957V16.729Z" fill="white"/>
<path d="M22.5594 21.9793C22.5285 21.6364 22.5144 21.4172 22.5144 21.2064V19.1685H21.5363L21.5672 19.2332C21.6451 19.4315 21.6787 19.6445 21.6656 19.8572C21.6656 19.8712 21.6656 21.2626 21.6318 21.6027C21.3826 21.6574 21.1281 21.6847 20.8729 21.6842C19.3157 21.6842 18.5259 20.7904 18.5259 19.0308C18.5259 17.6873 19.4141 16.6838 20.6874 16.5911C21.3023 16.527 21.9183 16.7022 22.4076 17.0801L22.4779 17.142V16.3184H22.4441C22.0023 16.2228 21.5525 16.1692 21.1006 16.1582C18.852 16.1582 17.5225 17.3359 17.5225 19.3119C17.5225 21.4144 19.1555 22.1648 20.6846 22.1648C21.2999 22.1668 21.9144 22.1217 22.5228 22.0299H22.5622L22.5594 21.9793Z" fill="white"/>
<path d="M26.0584 18.8286C26.3663 18.7544 26.6409 18.5804 26.8397 18.3339C27.0385 18.0873 27.1502 17.782 27.1575 17.4654C27.1575 16.6784 26.4463 16.209 25.2574 16.209H23.4922V16.2596C23.537 16.5137 23.5549 16.7719 23.5456 17.0297V22.0695H23.5878C23.5878 22.0695 24.282 22.0554 25.1337 22.0554C26.6178 22.0554 27.4694 21.4117 27.4694 20.2874C27.4807 19.5932 26.9045 19.0113 26.0584 18.8286ZM24.4366 19.1097H24.892C25.9432 19.1097 26.4772 19.5229 26.4772 20.338C26.4772 21.1532 26.0191 21.6141 25.0718 21.6141C24.6165 21.6141 24.4366 21.4483 24.4366 21.0239V19.1097ZM24.4366 16.6615H25.0128C25.9207 16.6615 26.3086 16.9426 26.3086 17.5806C26.3086 18.3115 25.8336 18.6544 24.8104 18.6544H24.4338L24.4366 16.6615Z" fill="white"/>
</g>
<defs>
<linearGradient id="paint0_linear_606_14143" x1="14.9139" y1="23.1094" x2="30.525" y2="23.1094" gradientUnits="userSpaceOnUse">
<stop offset="0.1" stop-color="#007DC5"/>
<stop offset="0.23" stop-color="#0083CB"/>
<stop offset="0.4" stop-color="#0095DA"/>
<stop offset="0.75" stop-color="#00B49D"/>
<stop offset="1" stop-color="#72BF44"/>
</linearGradient>
<clipPath id="clip0_606_14143">
<rect width="22" height="15.5436" fill="white" transform="translate(9 12.2285)"/>
</clipPath>
</defs>
</svg>
