<svg width="40" height="40" viewBox="0 0 40 40" fill="none" xmlns="http://www.w3.org/2000/svg">
<circle cx="20" cy="20" r="19.9" fill="white" stroke="black" stroke-width="0.2"/>
<g clip-path="url(#clip0_606_14154)">
<path d="M30 10H10V30H30V10Z" fill="#0091D0"/>
<path d="M10 10L14.9985 15.0015L20 10H10Z" fill="#0091D0"/>
<path d="M10 10V20L14.9985 15.0015L10 10Z" fill="#009AD8"/>
<path d="M20 19.9995L15.0015 14.998L10 19.9995H20Z" fill="#0091D0"/>
<path d="M19.9995 20V10L15.001 14.9985L19.9995 20Z" fill="#0082C9"/>
<path d="M20 10V20L24.9985 15.0015L20 10Z" fill="#0071BB"/>
<path d="M30 19.9995L25.0015 14.998L20 19.9995H30Z" fill="#004C98"/>
<path d="M10 20L14.9985 25.0015L20 20H10Z" fill="#0082C9"/>
<path d="M10 20V30L14.9985 25.0015L10 20Z" fill="#0071BB"/>
<path d="M20 29.9995L15.0015 24.998L10 29.9995H20Z" fill="#0066B3"/>
<path d="M19.9995 30V20L15.001 24.9985L19.9995 30Z" fill="#00529C"/>
<path d="M20 20L24.9985 25.0015L30 20H20Z" fill="#1B3281"/>
<path d="M20 20V30L24.9985 25.0015L20 20Z" fill="#004C98"/>
<path d="M30 29.9995L25.0015 24.998L20 29.9995H30Z" fill="#1B3281"/>
<path d="M29.9995 30V20L25.001 24.9985L29.9995 30Z" fill="#1B3281"/>
<path d="M20 10L24.9985 15.0015L30 10H20Z" fill="#0066B3"/>
<path d="M29.9995 20V10L25.001 14.9985L29.9995 20Z" fill="#00529C"/>
<path d="M30.0002 22.5003L23.5965 16.4033L13.8799 26.1433L17.4236 29.687L23.5965 23.6104L30.0002 29.9791V22.5003Z" fill="white"/>
</g>
<defs>
<clipPath id="clip0_606_14154">
<rect width="20" height="20" fill="white" transform="translate(10 10)"/>
</clipPath>
</defs>
</svg>
