<svg width="32" height="32" viewBox="0 0 32 32" fill="none" xmlns="http://www.w3.org/2000/svg">
<path d="M19.5003 26C19.5003 26.2652 19.3949 26.5196 19.2074 26.7071C19.0199 26.8946 18.7655 27 18.5003 27H15.0003C14.7351 27 14.4807 26.8946 14.2932 26.7071C14.1057 26.5196 14.0003 26.2652 14.0003 26V19C14.0003 18.7348 14.1057 18.4804 14.2932 18.2929C14.4807 18.1054 14.7351 18 15.0003 18C15.2655 18 15.5199 18.1054 15.7074 18.2929C15.8949 18.4804 16.0003 18.7348 16.0003 19V25H18.5003C18.7655 25 19.0199 25.1054 19.2074 25.2929C19.3949 25.4804 19.5003 25.7348 19.5003 26ZM11.5816 18.1863C11.4747 18.1099 11.3538 18.0554 11.2259 18.0258C11.098 17.9961 10.9654 17.992 10.8359 18.0136C10.7064 18.0352 10.5823 18.0821 10.4709 18.1516C10.3595 18.2211 10.2629 18.3119 10.1866 18.4188L8.50031 20.78L6.81405 18.4188C6.74044 18.3055 6.64465 18.2083 6.53245 18.1331C6.42025 18.0579 6.29398 18.0062 6.16125 17.9811C6.02852 17.956 5.89208 17.9581 5.76017 17.9872C5.62826 18.0163 5.50362 18.0718 5.39376 18.1504C5.28389 18.229 5.19109 18.329 5.12096 18.4445C5.05082 18.5599 5.00479 18.6884 4.98566 18.8221C4.96653 18.9558 4.97469 19.092 5.00965 19.2225C5.04461 19.353 5.10564 19.475 5.18906 19.5812L7.27155 22.5L5.18656 25.4188C5.04624 25.6346 4.9946 25.8963 5.04241 26.1494C5.09022 26.4024 5.23378 26.6272 5.44319 26.777C5.65261 26.9268 5.91175 26.9901 6.16664 26.9536C6.42154 26.9172 6.65254 26.7838 6.81156 26.5812L8.50031 24.22L10.1866 26.5812C10.3456 26.7838 10.5766 26.9172 10.8315 26.9536C11.0864 26.9901 11.3455 26.9268 11.5549 26.777C11.7643 26.6272 11.9079 26.4024 11.9557 26.1494C12.0035 25.8963 11.9519 25.6346 11.8116 25.4188L9.72906 22.5L11.8141 19.5812C11.8904 19.4744 11.9449 19.3535 11.9746 19.2256C12.0042 19.0977 12.0083 18.9651 11.9867 18.8356C11.9651 18.7061 11.9182 18.582 11.8487 18.4706C11.7792 18.3592 11.6884 18.2626 11.5816 18.1863ZM23.9491 21.4137C23.4491 21.2687 22.9316 21.12 22.6428 20.9338C22.4866 20.8313 22.4891 20.8088 22.5028 20.6963C22.5047 20.6054 22.5284 20.5162 22.5719 20.4364C22.6154 20.3566 22.6774 20.2883 22.7528 20.2375C23.3278 19.8475 24.6703 20.0225 25.2303 20.1675C25.4869 20.235 25.7598 20.1977 25.9889 20.064C26.2181 19.9303 26.3847 19.711 26.4522 19.4544C26.5196 19.1978 26.4824 18.9249 26.3487 18.6957C26.2149 18.4666 25.9957 18.3 25.7391 18.2325C25.4753 18.1638 23.1141 17.58 21.6353 18.5775C21.3235 18.7882 21.0617 19.0647 20.8684 19.3876C20.6751 19.7105 20.555 20.0719 20.5166 20.4463C20.2666 22.4313 22.2228 22.9975 23.3916 23.335C24.8991 23.7712 25.0316 23.95 24.9891 24.2838C24.9503 24.585 24.8316 24.7 24.7203 24.775C24.1453 25.1575 22.8253 24.9688 22.2778 24.8188C22.0217 24.7476 21.7478 24.7812 21.5165 24.912C21.4019 24.9768 21.3012 25.0635 21.2202 25.1671C21.1391 25.2708 21.0793 25.3894 21.0441 25.5163C21.0088 25.6431 20.999 25.7756 21.015 25.9062C21.0309 26.0368 21.0725 26.163 21.1373 26.2776C21.2681 26.509 21.4855 26.6789 21.7416 26.75C22.3614 26.9133 22.9994 26.9973 23.6403 27C24.3678 27 25.1778 26.875 25.8266 26.4425C26.1466 26.2297 26.4155 25.9485 26.6139 25.6194C26.8123 25.2902 26.9353 24.9211 26.9741 24.5387C27.2503 22.375 25.1853 21.7712 23.9491 21.4137ZM5.00031 14V5C5.00031 4.46957 5.21102 3.96086 5.58609 3.58579C5.96116 3.21071 6.46987 3 7.00031 3H19.0003C19.1317 2.9999 19.2618 3.02568 19.3832 3.07586C19.5046 3.12605 19.6149 3.19967 19.7078 3.2925L26.7078 10.2925C26.8006 10.3854 26.8743 10.4958 26.9244 10.6172C26.9746 10.7385 27.0004 10.8686 27.0003 11V14C27.0003 14.2652 26.8949 14.5196 26.7074 14.7071C26.5199 14.8946 26.2655 15 26.0003 15C25.7351 15 25.4807 14.8946 25.2932 14.7071C25.1057 14.5196 25.0003 14.2652 25.0003 14V12H19.0003C18.7351 12 18.4807 11.8946 18.2932 11.7071C18.1057 11.5196 18.0003 11.2652 18.0003 11V5H7.00031V14C7.00031 14.2652 6.89495 14.5196 6.70741 14.7071C6.51988 14.8946 6.26552 15 6.00031 15C5.73509 15 5.48074 14.8946 5.2932 14.7071C5.10566 14.5196 5.00031 14.2652 5.00031 14ZM20.0003 10H23.5853L20.0003 6.41375V10Z" fill="#343330"/>
</svg>
