<svg width="32" height="32" viewBox="0 0 32 32" fill="none" xmlns="http://www.w3.org/2000/svg">
<path d="M10.978 24.5387C10.939 24.9212 10.8158 25.2903 10.6171 25.6195C10.4185 25.9486 10.1494 26.2297 9.82921 26.4425C9.18046 26.875 8.37546 27 7.64296 27C7.00416 26.996 6.36839 26.912 5.75046 26.75C5.49806 26.6761 5.28494 26.5057 5.15727 26.2758C5.02959 26.0458 4.99764 25.7749 5.06833 25.5215C5.13901 25.2682 5.30665 25.0529 5.53493 24.9223C5.76321 24.7917 6.03375 24.7563 6.28796 24.8237C6.83546 24.9737 8.15671 25.1612 8.73171 24.7787C8.84171 24.705 8.96046 24.5888 8.99921 24.2875C9.04296 23.9538 8.91046 23.775 7.40171 23.3388C6.23296 23.0013 4.27671 22.435 4.52671 20.45C4.56562 20.075 4.68658 19.7132 4.881 19.3903C5.07543 19.0673 5.33855 18.7911 5.65171 18.5812C7.13171 17.5812 9.49171 18.1675 9.75546 18.2362C10.0121 18.3037 10.2313 18.4703 10.3651 18.6995C10.4988 18.9286 10.536 19.2015 10.4686 19.4581C10.4011 19.7147 10.2345 19.934 10.0053 20.0677C9.77619 20.2015 9.5033 20.2387 9.24671 20.1712C8.68671 20.025 7.34296 19.8512 6.76796 20.2412C6.69259 20.2921 6.63053 20.3603 6.58703 20.4401C6.54352 20.52 6.51983 20.6091 6.51796 20.7C6.50421 20.8125 6.50046 20.8362 6.65796 20.9375C6.94671 21.1238 7.46296 21.2725 7.96421 21.4175C9.18796 21.7712 11.258 22.375 10.978 24.5387ZM27.0005 11V14C27.0005 14.2652 26.8951 14.5196 26.7076 14.7071C26.52 14.8946 26.2657 15 26.0005 15C25.7352 15 25.4809 14.8946 25.2934 14.7071C25.1058 14.5196 25.0005 14.2652 25.0005 14V12H19.0005C18.7352 12 18.4809 11.8946 18.2934 11.7071C18.1058 11.5196 18.0005 11.2652 18.0005 11V5H7.00046V14C7.00046 14.2652 6.8951 14.5196 6.70756 14.7071C6.52003 14.8946 6.26567 15 6.00046 15C5.73524 15 5.48089 14.8946 5.29335 14.7071C5.10581 14.5196 5.00046 14.2652 5.00046 14V5C5.00046 4.46957 5.21117 3.96086 5.58624 3.58579C5.96132 3.21071 6.47003 3 7.00046 3H19.0005C19.2653 3.00012 19.5193 3.10532 19.7067 3.2925L26.7067 10.2925C26.7998 10.3853 26.8736 10.4956 26.924 10.617C26.9744 10.7384 27.0004 10.8686 27.0005 11ZM20.0005 10H23.5867L20.0005 6.41375V10ZM18.338 18.0588C18.2143 18.0145 18.0831 17.995 17.9519 18.0014C17.8206 18.0079 17.692 18.0401 17.5732 18.0963C17.4545 18.1525 17.348 18.2315 17.2598 18.3289C17.1716 18.4262 17.1034 18.54 17.0592 18.6637L15.5005 23.0263L13.9417 18.6637C13.9006 18.5362 13.8343 18.4183 13.7468 18.3169C13.6592 18.2155 13.5522 18.1327 13.432 18.0735C13.3119 18.0143 13.181 17.9798 13.0473 17.9721C12.9136 17.9644 12.7796 17.9837 12.6535 18.0287C12.5273 18.0738 12.4115 18.1438 12.3129 18.2345C12.2143 18.3251 12.135 18.4347 12.0795 18.5567C12.0241 18.6786 11.9937 18.8105 11.9902 18.9444C11.9868 19.0783 12.0102 19.2116 12.0592 19.3363L14.5592 26.3363C14.6285 26.5306 14.7562 26.6987 14.9249 26.8176C15.0935 26.9365 15.2948 27.0003 15.5011 27.0003C15.7074 27.0003 15.9087 26.9365 16.0773 26.8176C16.2459 26.6987 16.3736 26.5306 16.443 26.3363L18.943 19.3363C19.032 19.0866 19.0183 18.8118 18.9049 18.5723C18.7914 18.3327 18.5875 18.148 18.338 18.0588ZM26.0005 22H25.0005C24.7352 22 24.4809 22.1054 24.2934 22.2929C24.1058 22.4804 24.0005 22.7348 24.0005 23C24.0005 23.2652 24.1058 23.5196 24.2934 23.7071C24.4809 23.8946 24.7352 24 25.0005 24V24.6612C24.7124 24.8792 24.3616 24.998 24.0005 25C22.898 25 22.0005 23.875 22.0005 22.5C22.0005 21.125 22.898 20 24.0005 20C24.3371 20.0013 24.6654 20.1051 24.9417 20.2975C25.1616 20.4407 25.4289 20.4917 25.686 20.4396C25.9431 20.3875 26.1695 20.2364 26.3162 20.019C26.463 19.8015 26.5185 19.5351 26.4706 19.2771C26.4228 19.0192 26.2755 18.7903 26.0605 18.64C25.4533 18.2253 24.7357 18.0023 24.0005 18C21.7955 18 20.0005 20.0187 20.0005 22.5C20.0005 24.9813 21.7955 27 24.0005 27C24.512 26.9959 25.0174 26.8873 25.4855 26.6809C25.9537 26.4746 26.3748 26.1748 26.723 25.8C26.901 25.6139 27.0004 25.3663 27.0005 25.1087V23C27.0005 22.7348 26.8951 22.4804 26.7076 22.2929C26.52 22.1054 26.2657 22 26.0005 22Z" fill="#343330"/>
</svg>
