<svg width="175" height="153" viewBox="0 0 175 153" fill="none" xmlns="http://www.w3.org/2000/svg">
<path d="M158.594 38.1562V115.327C158.59 118.065 157.501 120.691 155.564 122.627C153.628 124.563 151.003 125.653 148.265 125.656H27.3438C24.4429 125.656 21.6609 124.504 19.6098 122.453C17.5586 120.402 16.4063 117.62 16.4062 114.719V21.75C16.4062 18.8492 17.5586 16.0672 19.6098 14.016C21.6609 11.9648 24.4429 10.8125 27.3438 10.8125H63.7998C66.1654 10.8184 68.4663 11.5853 70.3623 13L89.3252 27.2188H147.656C150.557 27.2188 153.339 28.3711 155.39 30.4223C157.441 32.4735 158.594 35.2554 158.594 38.1562Z" fill="#343330"/>
</svg>
