<svg width="27" height="26" viewBox="0 0 27 26" fill="none" xmlns="http://www.w3.org/2000/svg">
<path d="M19.0291 9.2925C19.1192 9.38537 19.1907 9.49566 19.2394 9.61706C19.2882 9.73846 19.3133 9.86858 19.3133 10C19.3133 10.1314 19.2882 10.2615 19.2394 10.3829C19.1907 10.5043 19.1192 10.6146 19.0291 10.7075L12.2479 17.7075C12.1579 17.8005 12.0511 17.8742 11.9335 17.9246C11.8159 17.9749 11.6898 18.0008 11.5625 18.0008C11.4352 18.0008 11.3091 17.9749 11.1915 17.9246C11.0739 17.8742 10.9671 17.8005 10.8771 17.7075L7.97086 14.7075C7.78909 14.5199 7.68697 14.2654 7.68697 14C7.68697 13.7346 7.78909 13.4801 7.97086 13.2925C8.15264 13.1049 8.39918 12.9994 8.65626 12.9994C8.91333 12.9994 9.15987 13.1049 9.34165 13.2925L11.5625 15.5863L17.6584 9.2925C17.7483 9.19952 17.8552 9.12576 17.9728 9.07544C18.0904 9.02512 18.2164 8.99921 18.3438 8.99921C18.4711 8.99921 18.5971 9.02512 18.7147 9.07544C18.8323 9.12576 18.9392 9.19952 19.0291 9.2925ZM26.0938 13C26.0938 15.5712 25.3551 18.0846 23.9713 20.2224C22.5875 22.3603 20.6206 24.0265 18.3194 25.0104C16.0182 25.9944 13.486 26.2518 11.0431 25.7502C8.60014 25.2486 6.35615 24.0105 4.59488 22.1924C2.83361 20.3743 1.63417 18.0579 1.14824 15.5362C0.662308 13.0144 0.911707 10.4006 1.8649 8.02512C2.81809 5.64968 4.43226 3.61935 6.50329 2.1909C8.57432 0.762437 11.0092 0 13.5 0C16.839 0.00363977 20.0402 1.37445 22.4012 3.81163C24.7623 6.24882 26.0902 9.5533 26.0938 13ZM24.1563 13C24.1563 10.8244 23.5313 8.69767 22.3604 6.88873C21.1894 5.07979 19.5252 3.66989 17.578 2.83733C15.6308 2.00476 13.4882 1.78692 11.4211 2.21136C9.35396 2.6358 7.4552 3.68345 5.9649 5.22183C4.4746 6.7602 3.45969 8.72022 3.04851 10.854C2.63734 12.9878 2.84837 15.1995 3.65491 17.2095C4.46146 19.2195 5.8273 20.9375 7.57971 22.1462C9.33212 23.3549 11.3924 24 13.5 24C16.3252 23.9967 19.0338 22.8367 21.0316 20.7745C23.0293 18.7123 24.1531 15.9164 24.1563 13Z" fill="#343330"/>
</svg>
