<svg width="26" height="26" viewBox="0 0 26 26" fill="none" xmlns="http://www.w3.org/2000/svg">
<path d="M9.06116 12.939L9.06106 12.9389C8.77965 12.6575 8.39798 12.4994 8.00001 12.4994C7.60203 12.4994 7.22036 12.6575 6.93895 12.9389C6.65754 13.2204 6.49945 13.602 6.49945 14C6.49945 14.398 6.65754 14.7796 6.93895 15.0611L9.93876 18.0609C9.93882 18.0609 9.93889 18.061 9.93895 18.0611C10.0782 18.2004 10.2436 18.311 10.4256 18.3864C10.6077 18.4619 10.8029 18.5008 11 18.5008C11.1971 18.5008 11.3923 18.4619 11.5744 18.3864C11.7564 18.311 11.9218 18.2004 12.0611 18.0611C12.0611 18.061 12.0612 18.0609 12.0613 18.0609L19.0611 11.0611C19.2004 10.9217 19.3109 10.7563 19.3863 10.5742C19.4617 10.3922 19.5006 10.1971 19.5006 10C19.5006 9.80294 19.4617 9.60781 19.3863 9.42576C19.3109 9.24371 19.2004 9.07829 19.0611 8.93894C18.9217 8.79961 18.7563 8.68908 18.5742 8.61367C18.3922 8.53826 18.1971 8.49944 18 8.49944C17.8029 8.49944 17.6078 8.53826 17.4258 8.61367C17.2437 8.68908 17.0783 8.79961 16.939 8.93894L16.9389 8.93898L11.0001 14.879L9.06116 12.939ZM6.05538 2.60663C8.11092 1.23316 10.5276 0.500054 12.9997 0.5C16.3139 0.503566 19.4913 1.8217 21.8348 4.16518C24.1784 6.50873 25.4965 9.68626 25.5 13.0005C25.4999 15.4726 24.7668 17.8892 23.3934 19.9446C22.0199 22.0002 20.0676 23.6024 17.7835 24.5485C15.4995 25.4946 12.9861 25.7421 10.5614 25.2598C8.13661 24.7775 5.90933 23.587 4.16117 21.8388C2.41301 20.0907 1.22251 17.8634 0.74019 15.4386C0.257875 13.0139 0.505416 10.5005 1.45151 8.21646C2.39761 5.93238 3.99976 3.98015 6.05538 2.60663Z" stroke="#FFFDF7"/>
</svg>
