<svg width="178" height="175" viewBox="0 0 178 175" fill="none" xmlns="http://www.w3.org/2000/svg">
<mask id="mask0_1206_14331" style="mask-type:alpha" maskUnits="userSpaceOnUse" x="0" y="0" width="178" height="175">
<rect width="178" height="175" fill="#D9D9D9"/>
</mask>
<g mask="url(#mask0_1206_14331)">
<g opacity="0.5">
<path fill-rule="evenodd" clip-rule="evenodd" d="M69.9677 87.0234H36C36.0993 115.628 55.4867 172.836 132.242 172.836C208.997 172.836 228.384 115.628 228.483 87.0234H194.516C194.516 129.453 153 140.458 132.242 140.657C111.484 140.458 69.9677 129.453 69.9677 87.0234Z" fill="#FFF6D3"/>
<path fill-rule="evenodd" clip-rule="evenodd" d="M129.262 3.07844L78.6084 16.4083V61.6985C79.7971 76.3593 91.5969 108.31 129.262 119.12V119.205C129.312 119.191 129.361 119.177 129.411 119.163C129.46 119.177 129.51 119.191 129.56 119.205V119.12C167.225 108.31 179.025 76.3593 180.213 61.6985V16.4083L129.56 3.07844V3L129.411 3.03922L129.262 3V3.07844Z" fill="#FFF6D3"/>
<path fill-rule="evenodd" clip-rule="evenodd" d="M135.042 57.6004C138.367 55.5559 140.585 51.8838 140.585 47.6938C140.585 41.2759 135.382 36.0732 128.964 36.0732C122.547 36.0732 117.344 41.2759 117.344 47.6938C117.344 51.9642 119.647 55.6965 123.08 57.7162C115.281 59.8903 112.602 66.0495 112.279 69.4449V85.5348H146.842V69.4449C146.348 65.9871 143.275 59.663 135.042 57.6004Z" fill="#CEB863"/>
</g>
</g>
</svg>
