<svg width="17" height="23" viewBox="0 0 17 23" fill="none" xmlns="http://www.w3.org/2000/svg">
<rect width="17" height="23" rx="2" fill="url(#paint0_linear_1095_16895)"/>
<rect x="7" y="1" width="3" height="4" fill="#DBE19F"/>
<path d="M15.0909 2.19347C15.1629 2.18494 15.2188 2.15038 15.2585 2.08977C15.2983 2.02917 15.3182 1.95483 15.3182 1.86676C15.3182 1.80237 15.3078 1.74602 15.2869 1.69773C15.2661 1.64991 15.2375 1.6125 15.201 1.58551C15.1645 1.559 15.1231 1.54574 15.0767 1.54574C15.0379 1.54574 15.0045 1.55497 14.9766 1.57344C14.9491 1.59238 14.9261 1.61652 14.9077 1.64588C14.8897 1.67524 14.8748 1.70601 14.8629 1.73821C14.8516 1.77041 14.8423 1.8 14.8352 1.82699L14.7955 1.97472C14.7855 2.01259 14.7718 2.05474 14.7543 2.10114C14.7367 2.14801 14.7128 2.19276 14.6825 2.23537C14.6527 2.27846 14.6143 2.31397 14.5675 2.3419C14.5206 2.36984 14.4631 2.38381 14.3949 2.38381C14.3163 2.38381 14.2453 2.36321 14.1818 2.32202C14.1184 2.2813 14.0679 2.22164 14.0305 2.14304C13.9931 2.06492 13.9744 1.96998 13.9744 1.85824C13.9744 1.75407 13.9912 1.66387 14.0249 1.58764C14.0585 1.51188 14.1054 1.45223 14.1655 1.40866C14.2256 1.36558 14.2955 1.34119 14.375 1.33551V1.51733C14.3201 1.52206 14.2746 1.54053 14.2386 1.57273C14.2031 1.6054 14.1766 1.64659 14.1591 1.69631C14.142 1.7465 14.1335 1.80047 14.1335 1.85824C14.1335 1.92547 14.1444 1.98584 14.1662 2.03935C14.1884 2.09285 14.2192 2.13523 14.2585 2.16648C14.2983 2.19773 14.3447 2.21335 14.3977 2.21335C14.446 2.21335 14.4853 2.19986 14.5156 2.17287C14.5459 2.14588 14.5705 2.11037 14.5895 2.06634C14.6084 2.0223 14.625 1.97472 14.6392 1.92358L14.6903 1.7446C14.723 1.63097 14.7696 1.541 14.8303 1.47472C14.8909 1.40843 14.9702 1.37528 15.0682 1.37528C15.1496 1.37528 15.2206 1.3973 15.2812 1.44134C15.3423 1.48584 15.3897 1.5455 15.4233 1.62031C15.4574 1.6956 15.4744 1.77964 15.4744 1.87244C15.4744 1.96619 15.4576 2.04953 15.424 2.12244C15.3909 2.19536 15.3454 2.25313 15.2876 2.29574C15.2299 2.33883 15.1643 2.36155 15.0909 2.36392V2.19347ZM14 2.63306V2.4484L15.4545 2.98249V3.16431L14 3.6984V3.51374L15.2244 3.07908V3.06772L14 2.63306ZM14.5682 2.70124V3.44556H14.4119V2.70124H14.5682ZM15.4545 3.82496L15.4545 4.03519L14.2472 4.52951V4.54656L15.4545 5.04087V5.2511L14 5.2511V5.08633L15.1051 5.08633V5.07212L14 4.61758L14 4.45849L15.1051 4.00394L15.1051 3.98974H14V3.82496L15.4545 3.82496ZM15.0909 6.29972C15.1629 6.29119 15.2187 6.25663 15.2585 6.19602C15.2983 6.13542 15.3182 6.06108 15.3182 5.97301C15.3182 5.90862 15.3078 5.85227 15.2869 5.80398C15.2661 5.75616 15.2375 5.71875 15.201 5.69176C15.1645 5.66525 15.1231 5.65199 15.0767 5.65199C15.0379 5.65199 15.0045 5.66122 14.9766 5.67969C14.9491 5.69863 14.9261 5.72277 14.9077 5.75213C14.8897 5.78149 14.8748 5.81226 14.8629 5.84446C14.8516 5.87666 14.8423 5.90625 14.8352 5.93324L14.7955 6.08097C14.7855 6.11884 14.7718 6.16098 14.7543 6.20739C14.7367 6.25426 14.7128 6.29901 14.6825 6.34162C14.6527 6.38471 14.6143 6.42022 14.5675 6.44815C14.5206 6.47609 14.4631 6.49006 14.3949 6.49006C14.3163 6.49006 14.2453 6.46946 14.1818 6.42827C14.1184 6.38755 14.0679 6.32789 14.0305 6.24929C13.9931 6.17116 13.9744 6.07623 13.9744 5.96449C13.9744 5.86032 13.9912 5.77012 14.0249 5.69389C14.0585 5.61813 14.1054 5.55848 14.1655 5.51491C14.2256 5.47183 14.2955 5.44744 14.375 5.44176V5.62358C14.3201 5.62831 14.2746 5.64678 14.2386 5.67898C14.2031 5.71165 14.1766 5.75284 14.1591 5.80256C14.142 5.85275 14.1335 5.90672 14.1335 5.96449C14.1335 6.03172 14.1444 6.09209 14.1662 6.1456C14.1884 6.1991 14.2192 6.24148 14.2585 6.27273C14.2983 6.30398 14.3447 6.3196 14.3977 6.3196C14.446 6.3196 14.4853 6.30611 14.5156 6.27912C14.5459 6.25213 14.5705 6.21662 14.5895 6.17259C14.6084 6.12855 14.625 6.08097 14.6392 6.02983L14.6903 5.85085C14.723 5.73722 14.7696 5.64725 14.8303 5.58097C14.8909 5.51468 14.9702 5.48153 15.0682 5.48153C15.1496 5.48153 15.2206 5.50355 15.2812 5.54759C15.3423 5.59209 15.3897 5.65175 15.4233 5.72656C15.4574 5.80185 15.4744 5.88589 15.4744 5.97869C15.4744 6.07244 15.4576 6.15578 15.424 6.22869C15.3909 6.30161 15.3454 6.35938 15.2876 6.40199C15.2299 6.44508 15.1643 6.4678 15.0909 6.47017V6.29972ZM15.4545 7.6342V7.81033L14.4915 7.81033C14.392 7.81033 14.3033 7.7869 14.2251 7.74002C14.1475 7.69362 14.0862 7.62804 14.0412 7.54329C13.9967 7.45853 13.9744 7.3591 13.9744 7.24499C13.9744 7.13088 13.9967 7.03145 14.0412 6.9467C14.0862 6.86194 14.1475 6.79613 14.2251 6.74925C14.3033 6.70285 14.392 6.67965 14.4915 6.67965L15.4545 6.67965V6.85579L14.5057 6.85579C14.4347 6.85579 14.3714 6.87141 14.3161 6.90266C14.2611 6.93391 14.2178 6.97842 14.1861 7.03619C14.1548 7.09442 14.1392 7.16403 14.1392 7.24499C14.1392 7.32596 14.1548 7.39556 14.1861 7.4538C14.2178 7.51204 14.2611 7.55655 14.3161 7.58732C14.3714 7.61857 14.4347 7.6342 14.5057 7.6342L15.4545 7.6342ZM15.4545 9.21548H14V9.04503L15.142 8.25241V8.23821H14V8.06207H15.4545V8.23253L14.3097 9.02798V9.04219H15.4545V9.21548ZM15 10.4623C15.0478 10.4466 15.0907 10.426 15.1286 10.4005C15.1669 10.3754 15.1996 10.3453 15.2266 10.3103C15.2536 10.2757 15.2741 10.2364 15.2884 10.1924C15.3026 10.1483 15.3097 10.1 15.3097 10.0475C15.3097 9.9613 15.2874 9.88294 15.2429 9.81239C15.1984 9.74184 15.1328 9.68574 15.0462 9.64407C14.9595 9.6024 14.8532 9.58157 14.7273 9.58157C14.6013 9.58157 14.495 9.60264 14.4084 9.64478C14.3217 9.68692 14.2562 9.74397 14.2116 9.81594C14.1671 9.88791 14.1449 9.96888 14.1449 10.0588C14.1449 10.1422 14.1626 10.2156 14.1982 10.279C14.2341 10.3429 14.2848 10.3926 14.3501 10.4282C14.416 10.4641 14.4934 10.4821 14.5824 10.4821L14.571 10.5361V10.0986H14.7273V10.6526H14.571C14.4512 10.6526 14.3471 10.627 14.2585 10.5759C14.17 10.5252 14.1013 10.4551 14.0526 10.3657C14.0043 10.2766 13.9801 10.1744 13.9801 10.0588C13.9801 9.93005 14.0104 9.81689 14.071 9.71935C14.1316 9.62229 14.2178 9.54653 14.3295 9.49208C14.4413 9.4381 14.5739 9.41111 14.7273 9.41111C14.8423 9.41111 14.9458 9.4265 15.0376 9.45728C15.13 9.48853 15.2086 9.53256 15.2734 9.58938C15.3383 9.6462 15.388 9.71343 15.4226 9.79109C15.4571 9.86874 15.4744 9.9542 15.4744 10.0475C15.4744 10.1242 15.4628 10.1957 15.4396 10.262C15.4169 10.3287 15.3845 10.3882 15.3423 10.4402C15.3007 10.4928 15.2507 10.5366 15.1925 10.5716C15.1347 10.6067 15.0705 10.6308 15 10.6441V10.4623Z" fill="white"/>
<defs>
<linearGradient id="paint0_linear_1095_16895" x1="9" y1="23" x2="9" y2="3.1153e-07" gradientUnits="userSpaceOnUse">
<stop stop-color="#FF9595"/>
<stop offset="1" stop-color="#8794EA"/>
</linearGradient>
</defs>
</svg>
