<svg width="44" height="70" viewBox="0 0 44 70" fill="none" xmlns="http://www.w3.org/2000/svg">
<rect width="44" height="70" rx="2" fill="url(#paint0_linear_1548_16963)"/>
<path d="M38.7273 6.42484C38.9072 6.40353 39.0469 6.31712 39.1463 6.16561C39.2457 6.01409 39.2955 5.82825 39.2955 5.60808C39.2955 5.4471 39.2694 5.30623 39.2173 5.18549C39.1652 5.06594 39.0936 4.97243 39.0025 4.90495C38.9113 4.83867 38.8078 4.80552 38.6918 4.80552C38.5947 4.80552 38.5112 4.82861 38.4414 4.87477C38.3728 4.92212 38.3153 4.98249 38.2692 5.05588C38.2242 5.12927 38.1869 5.20621 38.1573 5.2867C38.1289 5.36719 38.1058 5.44118 38.0881 5.50865L37.9886 5.87797C37.9638 5.97266 37.9295 6.07801 37.8857 6.19402C37.8419 6.3112 37.7821 6.42307 37.7063 6.5296C37.6317 6.63732 37.5359 6.7261 37.4187 6.79594C37.3015 6.86577 37.1577 6.90069 36.9872 6.90069C36.7907 6.90069 36.6132 6.8492 36.4545 6.74622C36.2959 6.64442 36.1699 6.49527 36.0763 6.29878C35.9828 6.10346 35.9361 5.86613 35.9361 5.58677C35.9361 5.32636 35.9781 5.10086 36.0621 4.91028C36.1462 4.72089 36.2634 4.57174 36.4137 4.46284C36.564 4.35512 36.7386 4.29416 36.9375 4.27995V4.7345C36.8002 4.74634 36.6866 4.7925 36.5966 4.87299C36.5078 4.95467 36.4415 5.05765 36.3977 5.18194C36.3551 5.30742 36.3338 5.44236 36.3338 5.58677C36.3338 5.75486 36.361 5.90578 36.4155 6.03954C36.4711 6.1733 36.5481 6.27924 36.6463 6.35737C36.7457 6.43549 36.8617 6.47456 36.9943 6.47456C37.1151 6.47456 37.2133 6.44082 37.2891 6.37335C37.3648 6.30588 37.4264 6.2171 37.4737 6.10701C37.5211 5.99693 37.5625 5.87797 37.598 5.75013L37.7259 5.30268C37.8075 5.01859 37.9241 4.79369 38.0756 4.62797C38.2272 4.46225 38.4254 4.37939 38.6705 4.37939C38.8741 4.37939 39.0516 4.43443 39.2031 4.54451C39.3558 4.65578 39.4742 4.80493 39.5582 4.99196C39.6435 5.18017 39.6861 5.39028 39.6861 5.62228C39.6861 5.85666 39.6441 6.06499 39.56 6.24728C39.4772 6.42958 39.3635 6.57399 39.2191 6.68052C39.0747 6.78824 38.9107 6.84506 38.7273 6.85098V6.42484ZM36 7.52383V7.06218L39.6364 8.39741V8.85195L36 10.1872V9.72553L39.0611 8.63889V8.61048L36 7.52383ZM37.4205 7.69428V9.55508H37.0298V7.69428H37.4205ZM39.6364 10.5036V11.0292L36.6179 12.265V12.3076L39.6364 13.5434V14.0689L36 14.0689V13.657L38.7628 13.657V13.6215L36 12.4851V12.0874L38.7628 10.951V10.9155L36 10.9155V10.5036L39.6364 10.5036ZM38.7273 16.6905C38.9072 16.6692 39.0469 16.5827 39.1463 16.4312C39.2457 16.2797 39.2955 16.0939 39.2955 15.8737C39.2955 15.7127 39.2694 15.5719 39.2173 15.4511C39.1652 15.3316 39.0936 15.2381 39.0025 15.1706C38.9113 15.1043 38.8078 15.0711 38.6918 15.0711C38.5947 15.0711 38.5112 15.0942 38.4414 15.1404C38.3728 15.1877 38.3153 15.2481 38.2692 15.3215C38.2242 15.3949 38.1869 15.4718 38.1573 15.5523C38.1289 15.6328 38.1058 15.7068 38.0881 15.7743L37.9886 16.1436C37.9638 16.2383 37.9295 16.3436 37.8857 16.4596C37.8419 16.5768 37.7821 16.6887 37.7063 16.7952C37.6317 16.9029 37.5359 16.9917 37.4187 17.0616C37.3015 17.1314 37.1577 17.1663 36.9872 17.1663C36.7907 17.1663 36.6132 17.1148 36.4545 17.0118C36.2959 16.91 36.1699 16.7609 36.0763 16.5644C35.9828 16.3691 35.9361 16.1318 35.9361 15.8524C35.9361 15.592 35.9781 15.3665 36.0621 15.1759C36.1462 14.9865 36.2634 14.8374 36.4137 14.7285C36.564 14.6207 36.7386 14.5598 36.9375 14.5456V15.0001C36.8002 15.012 36.6866 15.0581 36.5966 15.1386C36.5078 15.2203 36.4415 15.3233 36.3977 15.4476C36.3551 15.573 36.3338 15.708 36.3338 15.8524C36.3338 16.0205 36.361 16.1714 36.4155 16.3052C36.4711 16.4389 36.5481 16.5449 36.6463 16.623C36.7457 16.7011 36.8617 16.7402 36.9943 16.7402C37.1151 16.7402 37.2133 16.7064 37.2891 16.639C37.3648 16.5715 37.4264 16.4827 37.4737 16.3726C37.5211 16.2626 37.5625 16.1436 37.598 16.0158L37.7259 15.5683C37.8075 15.2842 37.9241 15.0593 38.0756 14.8936C38.2272 14.7279 38.4254 14.645 38.6705 14.645C38.8741 14.645 39.0516 14.7001 39.2031 14.8101C39.3558 14.9214 39.4742 15.0706 39.5582 15.2576C39.6435 15.4458 39.6861 15.6559 39.6861 15.8879C39.6861 16.1223 39.6441 16.3306 39.56 16.5129C39.4772 16.6952 39.3635 16.8396 39.2191 16.9461C39.0747 17.0539 38.9107 17.1107 38.7273 17.1166V16.6905ZM39.6364 20.0267V20.467H37.2287C36.9801 20.467 36.7582 20.4084 36.5629 20.2912C36.3687 20.1752 36.2154 20.0113 36.103 19.7994C35.9917 19.5875 35.9361 19.3389 35.9361 19.0537C35.9361 18.7684 35.9917 18.5198 36.103 18.3079C36.2154 18.096 36.3687 17.9315 36.5629 17.8143C36.7582 17.6983 36.9801 17.6403 37.2287 17.6403H39.6364V18.0806H37.2642C37.0866 18.0806 36.9286 18.1197 36.7901 18.1978C36.6528 18.276 36.5445 18.3872 36.4652 18.5316C36.3871 18.6772 36.348 18.8512 36.348 19.0537C36.348 19.2561 36.3871 19.4301 36.4652 19.5757C36.5445 19.7213 36.6528 19.8325 36.7901 19.9095C36.9286 19.9876 37.0866 20.0267 37.2642 20.0267H39.6364ZM39.6364 23.9799H36V23.5537L38.8551 21.5722V21.5367H36V21.0964H39.6364V21.5225L36.7741 23.5111V23.5466H39.6364V23.9799ZM38.5 27.0968C38.6196 27.0577 38.7267 27.0063 38.8214 26.9423C38.9173 26.8796 38.9989 26.8044 39.0664 26.7168C39.1339 26.6304 39.1854 26.5322 39.2209 26.4221C39.2564 26.312 39.2741 26.1913 39.2741 26.0599C39.2741 25.8444 39.2185 25.6485 39.1072 25.4722C38.996 25.2958 38.832 25.1555 38.6154 25.0514C38.3988 24.9472 38.133 24.8951 37.8182 24.8951C37.5033 24.8951 37.2376 24.9478 37.021 25.0531C36.8043 25.1585 36.6404 25.3011 36.5291 25.481C36.4179 25.661 36.3622 25.8634 36.3622 26.0883C36.3622 26.2966 36.4066 26.4801 36.4954 26.6387C36.5853 26.7985 36.712 26.9228 36.8754 27.0116C37.0399 27.1015 37.2334 27.1465 37.456 27.1465L37.4276 27.2815V26.1877H37.8182V27.5727H37.4276C37.1281 27.5727 36.8677 27.5087 36.6463 27.3809C36.425 27.2542 36.2533 27.0791 36.1314 26.8553C36.0107 26.6328 35.9503 26.3771 35.9503 26.0883C35.9503 25.7663 36.026 25.4834 36.1776 25.2396C36.3291 24.9969 36.5445 24.8075 36.8239 24.6714C37.1032 24.5364 37.4347 24.469 37.8182 24.469C38.1058 24.469 38.3645 24.5074 38.5941 24.5844C38.8249 24.6625 39.0214 24.7726 39.1836 24.9146C39.3458 25.0567 39.4701 25.2248 39.5565 25.4189C39.6429 25.613 39.6861 25.8267 39.6861 26.0599C39.6861 26.2516 39.6571 26.4304 39.5991 26.5961C39.5423 26.763 39.4612 26.9116 39.3558 27.0418C39.2517 27.1732 39.1268 27.2826 38.9812 27.3702C38.8368 27.4578 38.6764 27.5182 38.5 27.5514V27.0968Z" fill="white"/>
<circle cx="33.75" cy="63.25" r="3.75" fill="#E30613"/>
<circle cx="38.25" cy="63.25" r="3.75" fill="#F59E00"/>
<circle cx="33.75" cy="63.25" r="3.75" fill="#E30613" fill-opacity="0.4"/>
<rect x="19" y="8" width="7" height="9" rx="1" fill="url(#paint1_linear_1548_16963)"/>
<line x1="19" y1="10.6502" x2="26" y2="10.6502" stroke="#6F6F6F" stroke-opacity="0.74" stroke-width="0.1"/>
<path d="M19 14.2554H23.375V17.0002" stroke="#6F6F6F" stroke-opacity="0.74" stroke-width="0.1"/>
<line x1="23.425" y1="8" x2="23.425" y2="10.7" stroke="#6F6F6F" stroke-opacity="0.74" stroke-width="0.1"/>
<line x1="21.675" y1="8" x2="21.675" y2="10.7" stroke="#6F6F6F" stroke-opacity="0.74" stroke-width="0.1"/>
<line x1="21.675" y1="14.2998" x2="21.675" y2="16.9998" stroke="#6F6F6F" stroke-opacity="0.74" stroke-width="0.1"/>
<defs>
<linearGradient id="paint0_linear_1548_16963" x1="23.2941" y1="70" x2="23.2941" y2="9.48136e-07" gradientUnits="userSpaceOnUse">
<stop stop-color="#FF9595"/>
<stop offset="1" stop-color="#8794EA"/>
</linearGradient>
<linearGradient id="paint1_linear_1548_16963" x1="19.5" y1="16.5" x2="27.5" y2="7" gradientUnits="userSpaceOnUse">
<stop stop-color="#CDCDCD"/>
<stop offset="0.415102" stop-color="#EFEFEF"/>
<stop offset="1" stop-color="#7F7F7F"/>
</linearGradient>
</defs>
</svg>
