<svg width="14" height="13" viewBox="0 0 14 13" fill="none" xmlns="http://www.w3.org/2000/svg">
<path d="M12.9254 6.16836L7.30039 0.543362C7.23483 0.477732 7.15128 0.433028 7.0603 0.414911C6.96932 0.396794 6.87502 0.406077 6.78932 0.441586C6.70362 0.477095 6.63038 0.537233 6.57888 0.614386C6.52738 0.69154 6.49993 0.782239 6.5 0.875003V3.21875H3.21875C3.09443 3.21875 2.9752 3.26814 2.88729 3.35605C2.79939 3.44395 2.75 3.56318 2.75 3.6875V9.3125C2.75 9.43682 2.79939 9.55605 2.88729 9.64396C2.9752 9.73187 3.09443 9.78125 3.21875 9.78125H6.5V12.125C6.49993 12.2178 6.52738 12.3085 6.57888 12.3856C6.63038 12.4628 6.70362 12.5229 6.78932 12.5584C6.87502 12.5939 6.96932 12.6032 7.0603 12.5851C7.15128 12.567 7.23483 12.5223 7.30039 12.4566L12.9254 6.83164C12.969 6.78811 13.0035 6.73641 13.0271 6.67951C13.0507 6.6226 13.0629 6.5616 13.0629 6.5C13.0629 6.4384 13.0507 6.37741 13.0271 6.3205C13.0035 6.26359 12.969 6.2119 12.9254 6.16836ZM7.4375 10.9936V9.3125C7.4375 9.18818 7.38811 9.06895 7.30021 8.98105C7.2123 8.89314 7.09307 8.84375 6.96875 8.84375H3.6875V4.15625H6.96875C7.09307 4.15625 7.2123 4.10687 7.30021 4.01896C7.38811 3.93105 7.4375 3.81182 7.4375 3.6875V2.00645L11.9311 6.5L7.4375 10.9936ZM1.8125 3.6875V9.3125C1.8125 9.43682 1.76311 9.55605 1.67521 9.64396C1.5873 9.73187 1.46807 9.78125 1.34375 9.78125C1.21943 9.78125 1.1002 9.73187 1.01229 9.64396C0.924386 9.55605 0.875 9.43682 0.875 9.3125V3.6875C0.875 3.56318 0.924386 3.44395 1.01229 3.35605C1.1002 3.26814 1.21943 3.21875 1.34375 3.21875C1.46807 3.21875 1.5873 3.26814 1.67521 3.35605C1.76311 3.44395 1.8125 3.56318 1.8125 3.6875Z" fill="#343330"/>
</svg>
