<svg width="14" height="13" viewBox="0 0 14 13" fill="none" xmlns="http://www.w3.org/2000/svg">
<path d="M10.7811 3.21875H7.49988V0.875003C7.49995 0.782239 7.4725 0.69154 7.421 0.614386C7.3695 0.537233 7.29626 0.477095 7.21056 0.441586C7.12487 0.406077 7.03056 0.396794 6.93958 0.414911C6.8486 0.433028 6.76505 0.477732 6.69949 0.543362L1.07449 6.16836C1.03091 6.2119 0.996333 6.26359 0.972743 6.3205C0.949154 6.37741 0.937012 6.4384 0.937012 6.5C0.937012 6.5616 0.949154 6.6226 0.972743 6.67951C0.996333 6.73641 1.03091 6.78811 1.07449 6.83164L6.69949 12.4566C6.76505 12.5223 6.8486 12.567 6.93958 12.5851C7.03056 12.6032 7.12487 12.5939 7.21056 12.5584C7.29626 12.5229 7.3695 12.4628 7.421 12.3856C7.4725 12.3085 7.49995 12.2178 7.49988 12.125V9.78125H10.7811C10.9054 9.78125 11.0247 9.73187 11.1126 9.64396C11.2005 9.55605 11.2499 9.43682 11.2499 9.3125V3.6875C11.2499 3.56318 11.2005 3.44395 11.1126 3.35605C11.0247 3.26814 10.9054 3.21875 10.7811 3.21875ZM10.3124 8.84375H7.03113C6.90681 8.84375 6.78758 8.89314 6.69967 8.98105C6.61177 9.06895 6.56238 9.18818 6.56238 9.3125V10.9936L2.06883 6.5L6.56238 2.00645V3.6875C6.56238 3.81182 6.61177 3.93105 6.69967 4.01896C6.78758 4.10687 6.90681 4.15625 7.03113 4.15625H10.3124V8.84375ZM13.1249 3.6875V9.3125C13.1249 9.43682 13.0755 9.55605 12.9876 9.64396C12.8997 9.73187 12.7804 9.78125 12.6561 9.78125C12.5318 9.78125 12.4126 9.73187 12.3247 9.64396C12.2368 9.55605 12.1874 9.43682 12.1874 9.3125V3.6875C12.1874 3.56318 12.2368 3.44395 12.3247 3.35605C12.4126 3.26814 12.5318 3.21875 12.6561 3.21875C12.7804 3.21875 12.8997 3.26814 12.9876 3.35605C13.0755 3.44395 13.1249 3.56318 13.1249 3.6875Z" fill="#343330"/>
</svg>
