<svg width="23" height="23" viewBox="0 0 23 23" fill="none" xmlns="http://www.w3.org/2000/svg">
<path d="M20.125 19.4062C20.125 19.5969 20.0493 19.7797 19.9145 19.9145C19.7797 20.0493 19.5969 20.125 19.4062 20.125H3.59375C3.40313 20.125 3.22031 20.0493 3.08552 19.9145C2.95073 19.7797 2.875 19.5969 2.875 19.4062C2.875 19.2156 2.95073 19.0328 3.08552 18.898C3.22031 18.7632 3.40313 18.6875 3.59375 18.6875H19.4062C19.5969 18.6875 19.7797 18.7632 19.9145 18.898C20.0493 19.0328 20.125 19.2156 20.125 19.4062ZM12.2188 15.8125V7.1875C12.2188 6.80625 12.3702 6.44062 12.6398 6.17103C12.9094 5.90145 13.275 5.75 13.6562 5.75H17.25C17.6312 5.75 17.9969 5.90145 18.2665 6.17103C18.536 6.44062 18.6875 6.80625 18.6875 7.1875V15.8125C18.6875 16.1937 18.536 16.5594 18.2665 16.829C17.9969 17.0985 17.6312 17.25 17.25 17.25H13.6562C13.275 17.25 12.9094 17.0985 12.6398 16.829C12.3702 16.5594 12.2188 16.1937 12.2188 15.8125ZM13.6562 15.8125H17.25V7.1875H13.6562V15.8125ZM4.3125 15.8125V3.59375C4.3125 3.2125 4.46395 2.84687 4.73353 2.57728C5.00312 2.3077 5.36875 2.15625 5.75 2.15625H9.34375C9.725 2.15625 10.0906 2.3077 10.3602 2.57728C10.6298 2.84687 10.7812 3.2125 10.7812 3.59375V15.8125C10.7812 16.1937 10.6298 16.5594 10.3602 16.829C10.0906 17.0985 9.725 17.25 9.34375 17.25H5.75C5.36875 17.25 5.00312 17.0985 4.73353 16.829C4.46395 16.5594 4.3125 16.1937 4.3125 15.8125ZM5.75 15.8125H9.34375V3.59375H5.75V15.8125Z" fill="#343330"/>
</svg>
