<svg width="23" height="23" viewBox="0 0 23 23" fill="none" xmlns="http://www.w3.org/2000/svg">
<path d="M19.9273 15.8071C19.4286 14.9482 18.6874 12.5179 18.6874 9.34375C18.6874 7.43751 17.9302 5.60934 16.5823 4.26142C15.2343 2.9135 13.4062 2.15625 11.4999 2.15625C9.59369 2.15625 7.76552 2.9135 6.41761 4.26142C5.06969 5.60934 4.31244 7.43751 4.31244 9.34375C4.31244 12.5188 3.57033 14.9482 3.07169 15.8071C2.94436 16.0255 2.87685 16.2735 2.87599 16.5263C2.87512 16.7791 2.94092 17.0276 3.06675 17.2468C3.19258 17.4661 3.374 17.6482 3.5927 17.775C3.8114 17.9017 4.05966 17.9686 4.31244 17.9688H7.97896C8.14478 18.7802 8.58578 19.5094 9.22737 20.0332C9.86895 20.5569 10.6717 20.8429 11.4999 20.8429C12.3281 20.8429 13.1309 20.5569 13.7725 20.0332C14.4141 19.5094 14.8551 18.7802 15.0209 17.9688H18.6874C18.9401 17.9684 19.1883 17.9015 19.4069 17.7747C19.6254 17.6478 19.8067 17.4657 19.9324 17.2465C20.0582 17.0273 20.1239 16.7788 20.123 16.5261C20.1221 16.2734 20.0546 16.0254 19.9273 15.8071ZM11.4999 19.4062C11.0541 19.4061 10.6194 19.2678 10.2554 19.0104C9.89147 18.7529 9.61626 18.389 9.46767 17.9688H13.5322C13.3836 18.389 13.1084 18.7529 12.7445 19.0104C12.3805 19.2678 11.9457 19.4061 11.4999 19.4062ZM4.31244 16.5312C5.00423 15.3417 5.74993 12.5853 5.74993 9.34375C5.74993 7.81876 6.35574 6.35622 7.43407 5.27789C8.5124 4.19955 9.97494 3.59375 11.4999 3.59375C13.0249 3.59375 14.4875 4.19955 15.5658 5.27789C16.6441 6.35622 17.2499 7.81876 17.2499 9.34375C17.2499 12.5826 17.9938 15.339 18.6874 16.5312H4.31244Z" fill="#343330"/>
</svg>
