<svg width="40" height="21" viewBox="0 0 40 21" fill="none" xmlns="http://www.w3.org/2000/svg">
<rect x="0.333252" width="39.6667" height="21" rx="5" fill="#D8D5CD"/>
<path d="M13.5457 6.096H9.62172V4.956H14.8537V5.736C14.8537 9.264 12.8737 11.028 9.36972 11.436V10.308C12.0817 9.948 13.5457 8.472 13.5457 6.096ZM18.2737 4.824V7.788H19.8577V8.94H18.2737V12.444H16.9657V4.824H18.2737ZM11.5417 12.06V14.628H18.4777V15.756H10.2457V12.06H11.5417ZM24.5373 8.148V6.06H22.9653V9.888H24.3813C24.4893 9.396 24.5373 8.76 24.5373 8.148ZM21.6933 9.888V6.06H20.6853V4.956H26.8413V6.06H25.7973V8.088C25.7973 8.724 25.7493 9.384 25.6053 9.888H25.6413C26.2773 9.888 26.8653 9.852 27.3813 9.696V10.728C26.8773 10.908 26.2533 10.98 25.5573 10.98H20.5533V9.888H21.6933ZM26.6013 7.452V6.432H28.2933V4.824H29.6013V12.444H28.2933V9.24H26.6013V8.22H28.2933V7.452H26.6013ZM29.7933 15.756H21.4653V12.06H22.7733V14.628H29.7933V15.756Z" fill="#FFFDF7"/>
</svg>
