<svg width="40" height="21" viewBox="0 0 40 21" fill="none" xmlns="http://www.w3.org/2000/svg">
<rect x="0.333374" width="39.6667" height="21" rx="5" fill="#333232"/>
<path d="M13.546 6.096H9.62196V4.956H14.854V5.736C14.854 9.264 12.874 11.028 9.36996 11.436V10.308C12.082 9.948 13.546 8.472 13.546 6.096ZM18.274 4.824V7.788H19.858V8.94H18.274V12.444H16.966V4.824H18.274ZM11.542 12.06V14.628H18.478V15.756H10.246V12.06H11.542ZM24.5375 8.148V6.06H22.9655V9.888H24.3815C24.4895 9.396 24.5375 8.76 24.5375 8.148ZM21.6935 9.888V6.06H20.6855V4.956H26.8415V6.06H25.7975V8.088C25.7975 8.724 25.7495 9.384 25.6055 9.888H25.6415C26.2775 9.888 26.8655 9.852 27.3815 9.696V10.728C26.8775 10.908 26.2535 10.98 25.5575 10.98H20.5535V9.888H21.6935ZM26.6015 7.452V6.432H28.2935V4.824H29.6015V12.444H28.2935V9.24H26.6015V8.22H28.2935V7.452H26.6015ZM29.7935 15.756H21.4655V12.06H22.7735V14.628H29.7935V15.756Z" fill="#FFFDF7"/>
</svg>
