<svg width="23" height="23" viewBox="0 0 23 23" fill="none" xmlns="http://www.w3.org/2000/svg">
<path d="M11.5 2.15625C9.65198 2.15625 7.84547 2.70425 6.30889 3.73096C4.77232 4.75766 3.57471 6.21695 2.8675 7.9243C2.1603 9.63165 1.97526 11.5104 2.33579 13.3229C2.69632 15.1354 3.58623 16.8003 4.89298 18.107C6.19972 19.4138 7.86462 20.3037 9.67713 20.6642C11.4896 21.0247 13.3684 20.8397 15.0757 20.1325C16.783 19.4253 18.2423 18.2277 19.269 16.6911C20.2958 15.1545 20.8438 13.348 20.8438 11.5C20.8411 9.02269 19.8559 6.64759 18.1041 4.89586C16.3524 3.14413 13.9773 2.15887 11.5 2.15625ZM6.65563 17.7441C7.17559 16.9309 7.89188 16.2617 8.7385 15.7982C9.58511 15.3346 10.5348 15.0916 11.5 15.0916C12.4652 15.0916 13.4149 15.3346 14.2615 15.7982C15.1081 16.2617 15.8244 16.9309 16.3444 17.7441C14.9593 18.8214 13.2547 19.4062 11.5 19.4062C9.74534 19.4062 8.04072 18.8214 6.65563 17.7441ZM8.625 10.7812C8.625 10.2126 8.79362 9.65678 9.10953 9.18399C9.42544 8.71119 9.87445 8.3427 10.3998 8.1251C10.9251 7.90749 11.5032 7.85056 12.0609 7.96149C12.6186 8.07242 13.1309 8.34624 13.5329 8.74832C13.935 9.15039 14.2088 9.66267 14.3198 10.2204C14.4307 10.7781 14.3738 11.3561 14.1562 11.8815C13.9386 12.4068 13.5701 12.8558 13.0973 13.1717C12.6245 13.4876 12.0686 13.6562 11.5 13.6562C10.7375 13.6562 10.0062 13.3533 9.46707 12.8142C8.92791 12.275 8.625 11.5437 8.625 10.7812ZM17.4081 16.7478C16.6065 15.5862 15.4793 14.6875 14.1684 14.1648C14.8726 13.6101 15.3864 12.8498 15.6385 11.9896C15.8906 11.1293 15.8683 10.2119 15.5748 9.3649C15.2813 8.51791 14.7311 7.78342 14.0008 7.26359C13.2705 6.74376 12.3964 6.46442 11.5 6.46442C10.6036 6.46442 9.72946 6.74376 8.99917 7.26359C8.26888 7.78342 7.71872 8.51791 7.42522 9.3649C7.13171 10.2119 7.10944 11.1293 7.36151 11.9896C7.61357 12.8498 8.12744 13.6101 8.83165 14.1648C7.52066 14.6875 6.39349 15.5862 5.59188 16.7478C4.57895 15.6087 3.9169 14.2011 3.68544 12.6945C3.45397 11.1878 3.66298 9.64643 4.28727 8.25583C4.91157 6.86523 5.92455 5.68475 7.20422 4.85654C8.48389 4.02832 9.9757 3.58768 11.5 3.58768C13.0243 3.58768 14.5161 4.02832 15.7958 4.85654C17.0755 5.68475 18.0884 6.86523 18.7127 8.25583C19.337 9.64643 19.546 11.1878 19.3146 12.6945C19.0831 14.2011 18.4211 15.6087 17.4081 16.7478Z" fill="#343330"/>
</svg>
