<svg width="16" height="16" viewBox="0 0 16 16" fill="none" xmlns="http://www.w3.org/2000/svg">
<path d="M13.6689 8.00014C13.6691 9.47898 13.0868 10.8984 12.0482 11.9511C11.0096 13.0039 9.59824 13.6053 8.11953 13.6251H8.04395C6.60737 13.6287 5.22458 13.079 4.18262 12.09C4.13787 12.0477 4.1019 11.9969 4.07676 11.9407C4.05162 11.8845 4.03779 11.8239 4.03608 11.7623C4.03437 11.7008 4.04479 11.6395 4.06677 11.5819C4.08875 11.5244 4.12184 11.4717 4.16416 11.427C4.20648 11.3823 4.2572 11.3463 4.31342 11.3211C4.36964 11.296 4.43027 11.2822 4.49183 11.2805C4.5534 11.2787 4.61469 11.2892 4.67223 11.3112C4.72976 11.3331 4.7824 11.3662 4.82715 11.4085C5.49734 12.0406 6.33892 12.4611 7.24674 12.6177C8.15456 12.7742 9.08838 12.6598 9.93154 12.2887C10.7747 11.9176 11.4898 11.3063 11.9876 10.5311C12.4853 9.75592 12.7436 8.85127 12.7302 7.93015C12.7168 7.00903 12.4323 6.11228 11.9122 5.35192C11.3921 4.59156 10.6595 4.00131 9.80592 3.65489C8.95232 3.30848 8.01557 3.22126 7.11268 3.40414C6.2098 3.58701 5.38082 4.03188 4.7293 4.68315C4.72451 4.68833 4.71942 4.69322 4.71406 4.6978L3.15664 6.12514H4.7627C4.88702 6.12514 5.00624 6.17453 5.09415 6.26244C5.18206 6.35035 5.23145 6.46957 5.23145 6.59389C5.23145 6.71821 5.18206 6.83744 5.09415 6.92535C5.00624 7.01326 4.88702 7.06264 4.7627 7.06264H1.9502C1.82588 7.06264 1.70665 7.01326 1.61874 6.92535C1.53083 6.83744 1.48145 6.71821 1.48145 6.59389V3.78139C1.48145 3.65707 1.53083 3.53785 1.61874 3.44994C1.70665 3.36203 1.82588 3.31264 1.9502 3.31264C2.07452 3.31264 2.19374 3.36203 2.28165 3.44994C2.36956 3.53785 2.41895 3.65707 2.41895 3.78139V5.52749L4.07422 4.01577C4.86171 3.23134 5.86395 2.6978 6.95441 2.48251C8.04488 2.26721 9.17469 2.37981 10.2012 2.80609C11.2277 3.23238 12.105 3.95323 12.7221 4.87765C13.3393 5.80208 13.6688 6.88863 13.6689 8.00014Z" fill="#343330"/>
</svg>
