<svg width="15" height="15" viewBox="0 0 15 15" fill="none" xmlns="http://www.w3.org/2000/svg">
<path d="M12.5189 5.95641L7.83141 10.6439C7.78788 10.6875 7.73618 10.7221 7.67928 10.7457C7.62237 10.7692 7.56137 10.7814 7.49977 10.7814C7.43817 10.7814 7.37717 10.7692 7.32027 10.7457C7.26336 10.7221 7.21167 10.6875 7.16813 10.6439L2.48063 5.95641C2.39268 5.86846 2.34326 5.74916 2.34326 5.62477C2.34326 5.50038 2.39268 5.38109 2.48063 5.29313C2.56859 5.20517 2.68788 5.15576 2.81227 5.15576C2.93666 5.15576 3.05596 5.20517 3.14391 5.29313L7.49977 9.64958L11.8556 5.29313C11.8992 5.24958 11.9509 5.21503 12.0078 5.19146C12.0647 5.16789 12.1257 5.15576 12.1873 5.15576C12.2489 5.15576 12.3099 5.16789 12.3668 5.19146C12.4237 5.21503 12.4754 5.24958 12.5189 5.29313C12.5625 5.33668 12.597 5.38839 12.6206 5.44529C12.6442 5.50219 12.6563 5.56318 12.6563 5.62477C12.6563 5.68636 12.6442 5.74735 12.6206 5.80426C12.597 5.86116 12.5625 5.91286 12.5189 5.95641Z" fill="#343330"/>
</svg>
