<svg width="32" height="32" viewBox="0 0 32 32" fill="none" xmlns="http://www.w3.org/2000/svg">
<path d="M26.7075 16.2924C26.8005 16.3853 26.8742 16.4956 26.9246 16.617C26.9749 16.7384 27.0008 16.8685 27.0008 16.9999C27.0008 17.1314 26.9749 17.2615 26.9246 17.3829C26.8742 17.5043 26.8005 17.6146 26.7075 17.7074L16.7075 27.7074C16.6146 27.8004 16.5043 27.8742 16.3829 27.9245C16.2615 27.9748 16.1314 28.0007 16 28.0007C15.8686 28.0007 15.7385 27.9748 15.6171 27.9245C15.4957 27.8742 15.3854 27.8004 15.2925 27.7074L5.29251 17.7074C5.10487 17.5198 4.99945 17.2653 4.99945 16.9999C4.99945 16.7346 5.10487 16.4801 5.29251 16.2924C5.48015 16.1048 5.73464 15.9994 6.00001 15.9994C6.26537 15.9994 6.51987 16.1048 6.70751 16.2924L16 25.5862L25.2925 16.2924C25.3854 16.1995 25.4957 16.1257 25.6171 16.0754C25.7385 16.0251 25.8686 15.9992 26 15.9992C26.1314 15.9992 26.2615 16.0251 26.3829 16.0754C26.5043 16.1257 26.6146 16.1995 26.7075 16.2924ZM15.2925 17.7074C15.3854 17.8004 15.4957 17.8742 15.6171 17.9245C15.7385 17.9748 15.8686 18.0007 16 18.0007C16.1314 18.0007 16.2615 17.9748 16.3829 17.9245C16.5043 17.8742 16.6146 17.8004 16.7075 17.7074L26.7075 7.70745C26.8951 7.5198 27.0006 7.26531 27.0006 6.99995C27.0006 6.73458 26.8951 6.48009 26.7075 6.29245C26.5199 6.1048 26.2654 5.99939 26 5.99939C25.7346 5.99939 25.4801 6.10481 25.2925 6.29245L16 15.5862L6.70751 6.29245C6.51987 6.1048 6.26537 5.99939 6.00001 5.99939C5.73464 5.99939 5.48015 6.1048 5.29251 6.29245C5.10487 6.48009 4.99945 6.73458 4.99945 6.99995C4.99945 7.26531 5.10487 7.5198 5.29251 7.70745L15.2925 17.7074Z" fill="#343330"/>
</svg>
