<svg width="19" height="18" viewBox="0 0 19 18" fill="none" xmlns="http://www.w3.org/2000/svg">
<path d="M16.6875 0H2.3125C1.93125 0 1.56562 0.15145 1.29603 0.421034C1.02645 0.690617 0.875 1.05625 0.875 1.4375V15.8125C0.875 16.1937 1.02645 16.5594 1.29603 16.829C1.56562 17.0985 1.93125 17.25 2.3125 17.25H16.6875C17.0687 17.25 17.4344 17.0985 17.704 16.829C17.9735 16.5594 18.125 16.1937 18.125 15.8125V1.4375C18.125 1.05625 17.9735 0.690617 17.704 0.421034C17.4344 0.15145 17.0687 0 16.6875 0ZM13.6023 6.97727L8.57102 12.0085C8.50426 12.0753 8.42499 12.1284 8.33774 12.1645C8.25048 12.2007 8.15695 12.2193 8.0625 12.2193C7.96805 12.2193 7.87452 12.2007 7.78726 12.1645C7.70001 12.1284 7.62074 12.0753 7.55398 12.0085L5.39773 9.85227C5.26287 9.7174 5.1871 9.53448 5.1871 9.34375C5.1871 9.15302 5.26287 8.9701 5.39773 8.83523C5.5326 8.70037 5.71552 8.6246 5.90625 8.6246C6.09698 8.6246 6.2799 8.70037 6.41477 8.83523L8.0625 10.4839L12.5852 5.96023C12.652 5.89345 12.7313 5.84048 12.8185 5.80434C12.9058 5.7682 12.9993 5.7496 13.0938 5.7496C13.1882 5.7496 13.2817 5.7682 13.369 5.80434C13.4562 5.84048 13.5355 5.89345 13.6023 5.96023C13.669 6.02701 13.722 6.10629 13.7582 6.19354C13.7943 6.28079 13.8129 6.37431 13.8129 6.46875C13.8129 6.56319 13.7943 6.65671 13.7582 6.74396C13.722 6.83121 13.669 6.91049 13.6023 6.97727Z" fill="#343330"/>
</svg>
