<svg width="15" height="13" viewBox="0 0 15 13" fill="none" xmlns="http://www.w3.org/2000/svg">
<path d="M12.2846 5.93454C12.3281 5.96937 12.3627 6.01073 12.3863 6.05625C12.4099 6.10177 12.422 6.15057 12.422 6.19985C12.422 6.24913 12.4099 6.29793 12.3863 6.34346C12.3627 6.38898 12.3281 6.43034 12.2846 6.46517L7.47694 10.3089C6.86147 10.8012 6.02676 11.0778 5.15642 11.0777C4.28608 11.0777 3.4514 10.8011 2.83602 10.3087C2.22063 9.81631 1.87495 9.14854 1.875 8.45227C1.87505 7.75599 2.22085 7.08825 2.83631 6.59595L8.65233 1.8747C9.09172 1.52281 9.68785 1.32497 10.3096 1.32471C10.9313 1.32444 11.5277 1.52177 11.9676 1.87329C12.4074 2.22481 12.6547 2.70171 12.6551 3.19909C12.6554 3.69647 12.4087 4.17359 11.9693 4.52548L6.15213 9.24673C5.88795 9.45807 5.52965 9.5768 5.15604 9.5768C4.78243 9.5768 4.42413 9.45807 4.15995 9.24673C3.89576 9.03538 3.74735 8.74874 3.74735 8.44985C3.74735 8.15097 3.89576 7.86432 4.15995 7.65298L9.0408 3.68641C9.08356 3.64993 9.13501 3.62065 9.19212 3.60031C9.24923 3.57996 9.31085 3.56896 9.37336 3.56796C9.43586 3.56695 9.49799 3.57596 9.55608 3.59444C9.61416 3.61293 9.66704 3.64053 9.7116 3.67561C9.75616 3.7107 9.79149 3.75255 9.81552 3.79873C9.83956 3.8449 9.8518 3.89445 9.85154 3.94446C9.85127 3.99447 9.83851 4.04394 9.81399 4.08995C9.78947 4.13595 9.7537 4.17757 9.70877 4.21235L4.82733 8.18313C4.78362 8.21782 4.74888 8.25906 4.7251 8.30448C4.70131 8.34991 4.68894 8.39864 4.6887 8.44789C4.68846 8.49714 4.70034 8.54595 4.72367 8.59153C4.74701 8.63711 4.78133 8.67856 4.82469 8.71352C4.86805 8.74849 4.91959 8.77628 4.97638 8.79531C5.03316 8.81434 5.09407 8.82423 5.15564 8.82443C5.2172 8.82462 5.27821 8.81512 5.33518 8.79645C5.39216 8.77778 5.44397 8.75032 5.48768 8.71563L11.3043 3.99673C11.5685 3.78582 11.7171 3.49959 11.7175 3.20101C11.7179 2.90243 11.57 2.61596 11.3063 2.40462C11.0427 2.19327 10.6849 2.07437 10.3117 2.07406C9.93847 2.07375 9.58038 2.19207 9.3162 2.40298L3.50135 7.12235C3.28352 7.29634 3.11065 7.50296 2.99263 7.73039C2.8746 7.95783 2.81373 8.20164 2.81349 8.44789C2.81324 8.69415 2.87363 8.93803 2.9912 9.16562C3.10877 9.39321 3.28123 9.60004 3.49871 9.77431C3.7162 9.94857 3.97447 10.0869 4.25876 10.1813C4.54306 10.2757 4.84782 10.3244 5.15564 10.3246C5.46346 10.3248 5.76831 10.2765 6.0528 10.1824C6.33728 10.0884 6.59582 9.95041 6.81366 9.77642L11.6219 5.93267C11.7101 5.86264 11.8294 5.8235 11.9537 5.82385C12.078 5.8242 12.197 5.86402 12.2846 5.93454Z" fill="#343330"/>
</svg>
