<svg width="19" height="19" viewBox="0 0 19 19" fill="none" xmlns="http://www.w3.org/2000/svg">
<path d="M16.8707 5.4455L13.5546 2.12867C13.4443 2.01837 13.3134 1.93088 13.1693 1.87118C13.0252 1.81149 12.8708 1.78076 12.7148 1.78076C12.5588 1.78076 12.4044 1.81149 12.2603 1.87118C12.1162 1.93088 11.9853 2.01837 11.875 2.12867L2.72309 11.2813C2.61234 11.3912 2.52454 11.522 2.46478 11.6661C2.40502 11.8102 2.37451 11.9647 2.37501 12.1207V15.4376C2.37501 15.7525 2.50012 16.0546 2.72282 16.2773C2.94552 16.5 3.24756 16.6251 3.56251 16.6251H6.87934C7.03534 16.6256 7.18989 16.5951 7.33399 16.5353C7.4781 16.4755 7.60889 16.3877 7.71876 16.277L16.8707 7.12507C16.981 7.0148 17.0685 6.88388 17.1282 6.73979C17.1879 6.5957 17.2186 6.44126 17.2186 6.28529C17.2186 6.12932 17.1879 5.97488 17.1282 5.83079C17.0685 5.6867 16.981 5.55578 16.8707 5.4455ZM6.87934 15.4376H3.56251V12.1207L10.0938 5.58949L13.4106 8.90632L6.87934 15.4376ZM14.25 8.06617L10.9332 4.75007L12.7144 2.96882L16.0313 6.28492L14.25 8.06617Z" fill="#343330"/>
</svg>
