<svg width="26" height="26" viewBox="0 0 26 26" fill="none" xmlns="http://www.w3.org/2000/svg">
<rect x="1" y="1" width="24" height="24" rx="12" stroke="#333232" stroke-width="2"/>
<path fill-rule="evenodd" clip-rule="evenodd" d="M12 18C12 18.5523 12.4477 19 13 19C13.5523 19 14 18.5523 14 18V14H18C18.5523 14 19 13.5523 19 13C19 12.4477 18.5523 12 18 12H14V8C14 7.44771 13.5523 7 13 7C12.4477 7 12 7.44771 12 8V12H8C7.44771 12 7 12.4477 7 13C7 13.5523 7.44771 14 8 14H12V18Z" fill="#333232"/>
</svg>
