<svg width="25" height="25" viewBox="0 0 25 25" fill="none" xmlns="http://www.w3.org/2000/svg">
<path d="M13.6719 17.5781C13.6719 17.8099 13.6031 18.0365 13.4744 18.2292C13.3456 18.4219 13.1626 18.5721 12.9485 18.6608C12.7343 18.7495 12.4987 18.7727 12.2714 18.7275C12.0441 18.6823 11.8353 18.5707 11.6714 18.4068C11.5075 18.2429 11.3959 18.0341 11.3506 17.8067C11.3054 17.5794 11.3286 17.3438 11.4173 17.1297C11.506 16.9155 11.6562 16.7325 11.8489 16.6037C12.0417 16.475 12.2682 16.4062 12.5 16.4062C12.8108 16.4062 13.1089 16.5297 13.3286 16.7495C13.5484 16.9693 13.6719 17.2673 13.6719 17.5781ZM12.5 7.03125C10.3457 7.03125 8.59375 8.6084 8.59375 10.5469V10.9375C8.59375 11.1447 8.67606 11.3434 8.82258 11.4899C8.96909 11.6364 9.1678 11.7188 9.375 11.7188C9.5822 11.7188 9.78092 11.6364 9.92743 11.4899C10.0739 11.3434 10.1563 11.1447 10.1563 10.9375V10.5469C10.1563 9.47266 11.208 8.59375 12.5 8.59375C13.792 8.59375 14.8438 9.47266 14.8438 10.5469C14.8438 11.6211 13.792 12.5 12.5 12.5C12.2928 12.5 12.0941 12.5823 11.9476 12.7288C11.8011 12.8753 11.7188 13.074 11.7188 13.2812V14.0625C11.7188 14.2697 11.8011 14.4684 11.9476 14.6149C12.0941 14.7614 12.2928 14.8438 12.5 14.8438C12.7072 14.8438 12.9059 14.7614 13.0524 14.6149C13.1989 14.4684 13.2813 14.2697 13.2813 14.0625V13.9922C15.0625 13.665 16.4063 12.2441 16.4063 10.5469C16.4063 8.6084 14.6543 7.03125 12.5 7.03125ZM22.6563 12.5C22.6563 14.5087 22.0606 16.4723 20.9446 18.1425C19.8286 19.8127 18.2424 21.1144 16.3866 21.8832C14.5308 22.6519 12.4887 22.853 10.5186 22.4611C8.5485 22.0692 6.73883 21.1019 5.31845 19.6816C3.89807 18.2612 2.93079 16.4515 2.5389 14.4814C2.14702 12.5113 2.34815 10.4692 3.11685 8.61337C3.88556 6.75756 5.18731 5.17137 6.85749 4.05539C8.52768 2.9394 10.4913 2.34375 12.5 2.34375C15.1927 2.34659 17.7744 3.41754 19.6784 5.32159C21.5825 7.22564 22.6534 9.80727 22.6563 12.5ZM21.0938 12.5C21.0938 10.8003 20.5897 9.1388 19.6454 7.72557C18.7012 6.31233 17.359 5.21085 15.7887 4.56041C14.2184 3.90997 12.4905 3.73978 10.8234 4.07138C9.15642 4.40297 7.62516 5.22144 6.42331 6.4233C5.22145 7.62516 4.40297 9.15642 4.07138 10.8234C3.73979 12.4905 3.90997 14.2184 4.56041 15.7887C5.21086 17.359 6.31234 18.7011 7.72557 19.6454C9.13881 20.5897 10.8003 21.0938 12.5 21.0938C14.7784 21.0912 16.9628 20.1849 18.5738 18.5738C20.1849 16.9628 21.0912 14.7784 21.0938 12.5Z" fill="#343330"/>
</svg>
