<svg width="20" height="20" viewBox="0 0 20 20" fill="none" xmlns="http://www.w3.org/2000/svg">
<path d="M12.0143 4.61768H16.4261C16.7381 4.61768 17.0373 4.74162 17.258 4.96226C17.4786 5.18289 17.6025 5.48213 17.6025 5.79415V10.5C17.6025 10.812 17.4786 11.1113 17.258 11.3319C17.0373 11.5526 16.7381 11.6765 16.4261 11.6765H12.0143V12.2647C12.0143 12.8888 12.2622 13.4873 12.7035 13.9285C13.1447 14.3698 13.7432 14.6177 14.3672 14.6177C14.5233 14.6177 14.6729 14.6797 14.7832 14.79C14.8935 14.9003 14.9555 15.0499 14.9555 15.2059C14.9555 15.3619 14.8935 15.5115 14.7832 15.6219C14.6729 15.7322 14.5233 15.7941 14.3672 15.7941C13.4315 15.7932 12.5343 15.421 11.8726 14.7593C11.211 14.0976 10.8388 13.2005 10.8378 12.2647V5.79415C10.8378 5.48213 10.9618 5.18289 11.1824 4.96226C11.403 4.74162 11.7023 4.61768 12.0143 4.61768ZM12.0143 10.5H16.4261V5.79415H12.0143V10.5ZM3.48489 4.61768H7.89666C8.20868 4.61768 8.50792 4.74162 8.72855 4.96226C8.94918 5.18289 9.07313 5.48213 9.07313 5.79415V10.5C9.07313 10.812 8.94918 11.1113 8.72855 11.3319C8.50792 11.5526 8.20868 11.6765 7.89666 11.6765H3.48489V12.2647C3.48489 12.8888 3.73279 13.4873 4.17405 13.9285C4.61531 14.3698 5.21379 14.6177 5.83783 14.6177C5.99384 14.6177 6.14346 14.6797 6.25378 14.79C6.36409 14.9003 6.42607 15.0499 6.42607 15.2059C6.42607 15.3619 6.36409 15.5115 6.25378 15.6219C6.14346 15.7322 5.99384 15.7941 5.83783 15.7941C4.90207 15.7932 4.00492 15.421 3.34324 14.7593C2.68155 14.0976 2.30939 13.2005 2.30842 12.2647V5.79415C2.30842 5.48213 2.43237 5.18289 2.653 4.96226C2.87363 4.74162 3.17287 4.61768 3.48489 4.61768ZM3.48489 10.5H7.89666V5.79415H3.48489V10.5Z" fill="#343330"/>
</svg>
