<svg width="20" height="20" viewBox="0 0 20 20" fill="none" xmlns="http://www.w3.org/2000/svg">
<path d="M7.72007 4.61768H3.30831C2.99629 4.61768 2.69705 4.74162 2.47642 4.96226C2.25579 5.18289 2.13184 5.48213 2.13184 5.79415V10.5C2.13184 10.812 2.25579 11.1113 2.47642 11.3319C2.69705 11.5526 2.99629 11.6765 3.30831 11.6765H7.72007V12.2647C7.72007 12.8888 7.47217 13.4873 7.03091 13.9285C6.58965 14.3698 5.99117 14.6177 5.36713 14.6177C5.21112 14.6177 5.0615 14.6797 4.95119 14.79C4.84087 14.9003 4.77889 15.0499 4.77889 15.2059C4.77889 15.3619 4.84087 15.5115 4.95119 15.6219C5.0615 15.7322 5.21112 15.7941 5.36713 15.7941C6.30289 15.7932 7.20004 15.421 7.86173 14.7593C8.52341 14.0976 8.89557 13.2005 8.89654 12.2647V5.79415C8.89654 5.48213 8.77259 5.18289 8.55196 4.96226C8.33133 4.74162 8.03209 4.61768 7.72007 4.61768ZM7.72007 10.5H3.30831V5.79415H7.72007V10.5ZM16.2495 4.61768H11.8377C11.5257 4.61768 11.2265 4.74162 11.0058 4.96226C10.7852 5.18289 10.6612 5.48213 10.6612 5.79415V10.5C10.6612 10.812 10.7852 11.1113 11.0058 11.3319C11.2265 11.5526 11.5257 11.6765 11.8377 11.6765H16.2495V12.2647C16.2495 12.8888 16.0016 13.4873 15.5603 13.9285C15.1191 14.3698 14.5206 14.6177 13.8965 14.6177C13.7405 14.6177 13.5909 14.6797 13.4806 14.79C13.3703 14.9003 13.3083 15.0499 13.3083 15.2059C13.3083 15.3619 13.3703 15.5115 13.4806 15.6219C13.5909 15.7322 13.7405 15.7941 13.8965 15.7941C14.8323 15.7932 15.7295 15.421 16.3911 14.7593C17.0528 14.0976 17.425 13.2005 17.426 12.2647V5.79415C17.426 5.48213 17.302 5.18289 17.0814 4.96226C16.8607 4.74162 16.5615 4.61768 16.2495 4.61768ZM16.2495 10.5H11.8377V5.79415H16.2495V10.5Z" fill="#343330"/>
</svg>
