<svg width="32" height="32" viewBox="0 0 32 32" fill="none" xmlns="http://www.w3.org/2000/svg">
<path d="M19 28.0001C19 28.2653 18.8947 28.5197 18.7072 28.7072C18.5196 28.8947 18.2653 29.0001 18 29.0001H14C13.7348 29.0001 13.4805 28.8947 13.2929 28.7072C13.1054 28.5197 13 28.2653 13 28.0001C13 27.7349 13.1054 27.4805 13.2929 27.293C13.4805 27.1054 13.7348 27.0001 14 27.0001H18C18.2653 27.0001 18.5196 27.1054 18.7072 27.293C18.8947 27.4805 19 27.7349 19 28.0001ZM16 14.0001C16.2967 14.0001 16.5867 13.9121 16.8334 13.7473C17.0801 13.5825 17.2723 13.3482 17.3859 13.0741C17.4994 12.8 17.5291 12.4984 17.4712 12.2075C17.4133 11.9165 17.2705 11.6492 17.0607 11.4394C16.8509 11.2297 16.5837 11.0868 16.2927 11.0289C16.0017 10.971 15.7001 11.0007 15.426 11.1143C15.1519 11.2278 14.9177 11.4201 14.7528 11.6667C14.588 11.9134 14.5 12.2034 14.5 12.5001C14.5 12.8979 14.6581 13.2795 14.9394 13.5608C15.2207 13.8421 15.6022 14.0001 16 14.0001ZM27.9525 19.4788L26.4075 26.4326C26.3342 26.7628 26.1784 27.069 25.9546 27.3226C25.7307 27.5763 25.4462 27.7689 25.1277 27.8827C24.8091 27.9965 24.4669 28.0276 24.1331 27.9731C23.7993 27.9187 23.4847 27.7804 23.2188 27.5713L19.8138 25.0001H12.1888L8.7813 27.5713C8.51541 27.7804 8.20083 27.9187 7.86699 27.9731C7.53315 28.0276 7.19095 27.9965 6.8724 27.8827C6.55385 27.7689 6.26936 27.5763 6.04553 27.3226C5.8217 27.069 5.66585 26.7628 5.59255 26.4326L4.04755 19.4788C3.98201 19.1804 3.98532 18.871 4.05723 18.5741C4.12914 18.2771 4.26775 18.0005 4.46255 17.7651L8.03255 13.4826C8.15237 11.9088 8.51368 10.3628 9.1038 8.89884C10.7163 4.85634 13.6038 2.32009 14.775 1.41759C15.1256 1.14595 15.5565 0.998535 16 0.998535C16.4436 0.998535 16.8745 1.14595 17.225 1.41759C18.3925 2.32009 21.2838 4.85634 22.8963 8.89884C23.4864 10.3628 23.8477 11.9088 23.9675 13.4826L27.5375 17.7651C27.7323 18.0005 27.871 18.2771 27.9429 18.5741C28.0148 18.871 28.0181 19.1804 27.9525 19.4788ZM12.4288 23.0001H19.5713C22.2113 18.3076 22.705 13.8151 21.0388 9.64009C19.5688 5.95509 16.8113 3.62509 16 3.00009C15.1863 3.62509 12.4288 5.95509 10.9588 9.64009C9.29505 13.8151 9.7888 18.3076 12.4288 23.0001ZM10.5538 23.7313C9.20796 21.2855 8.3913 18.8818 8.1038 16.5201L6.00005 19.0451L7.54505 26.0001L7.56755 25.9838L10.5538 23.7313ZM26 19.0451L23.8963 16.5201C23.6113 18.8768 22.7963 21.2805 21.4513 23.7313L24.4325 25.9813L24.455 25.9976L26 19.0451Z" fill="#343330"/>
</svg>
