<svg width="25" height="25" viewBox="0 0 25 25" fill="none" xmlns="http://www.w3.org/2000/svg">
<path d="M17.1879 15.6252C16.6667 15.625 16.1508 15.7294 15.6707 15.9322C15.1906 16.135 14.7561 16.4321 14.3929 16.8059L9.89098 13.9123C10.2451 13.0042 10.2451 11.9962 9.89098 11.0881L14.3929 8.19454C15.0692 8.88723 15.9785 9.30416 16.9447 9.36448C17.9108 9.42481 18.865 9.12424 19.6221 8.52104C20.3793 7.91785 20.8855 7.05501 21.0426 6.0998C21.1997 5.14459 20.9965 4.16507 20.4724 3.35115C19.9484 2.53722 19.1408 1.94688 18.2062 1.69458C17.2716 1.44228 16.2766 1.54599 15.4142 1.9856C14.5517 2.42522 13.8832 3.16942 13.5383 4.07392C13.1933 4.97842 13.1965 5.97878 13.5472 6.88106L9.04528 9.77461C8.50316 9.21805 7.80738 8.83579 7.04688 8.67671C6.28638 8.51762 5.49572 8.58894 4.77597 8.88155C4.05621 9.17415 3.44007 9.67474 3.00629 10.3193C2.57252 10.9639 2.34082 11.7232 2.34082 12.5002C2.34082 13.2772 2.57252 14.0365 3.00629 14.6811C3.44007 15.3257 4.05621 15.8262 4.77597 16.1189C5.49572 16.4115 6.28638 16.4828 7.04688 16.3237C7.80738 16.1646 8.50316 15.7824 9.04528 15.2258L13.5472 18.1193C13.2456 18.8972 13.201 19.7512 13.4199 20.5562C13.6388 21.3613 14.1096 22.0751 14.7635 22.5932C15.4175 23.1113 16.2201 23.4064 17.0539 23.4353C17.8876 23.4643 18.7088 23.2255 19.397 22.754C20.0853 22.2825 20.6045 21.603 20.8786 20.815C21.1528 20.0271 21.1675 19.1721 20.9205 18.3752C20.6736 17.5783 20.178 16.8814 19.5063 16.3865C18.8346 15.8917 18.0221 15.6249 17.1879 15.6252ZM17.1879 3.1252C17.6514 3.1252 18.1045 3.26266 18.49 3.52019C18.8754 3.77773 19.1758 4.14377 19.3532 4.57203C19.5306 5.0003 19.577 5.47155 19.4866 5.92619C19.3961 6.38083 19.1729 6.79845 18.8451 7.12623C18.5174 7.45401 18.0997 7.67723 17.6451 7.76766C17.1905 7.8581 16.7192 7.81168 16.2909 7.63429C15.8627 7.4569 15.4966 7.15649 15.2391 6.77107C14.9816 6.38564 14.8441 5.9325 14.8441 5.46895C14.8441 4.84735 15.091 4.25121 15.5306 3.81167C15.9701 3.37213 16.5663 3.1252 17.1879 3.1252ZM6.25036 14.8439C5.78681 14.8439 5.33367 14.7065 4.94824 14.449C4.56281 14.1914 4.26241 13.8254 4.08501 13.3971C3.90762 12.9688 3.86121 12.4976 3.95164 12.043C4.04208 11.5883 4.2653 11.1707 4.59308 10.8429C4.92085 10.5151 5.33847 10.2919 5.79311 10.2015C6.24776 10.111 6.71901 10.1575 7.14727 10.3349C7.57554 10.5122 7.94158 10.8127 8.19911 11.1981C8.45665 11.5835 8.59411 12.0366 8.59411 12.5002C8.59411 13.1218 8.34718 13.7179 7.90764 14.1575C7.4681 14.597 6.87196 14.8439 6.25036 14.8439ZM17.1879 21.8752C16.7243 21.8752 16.2712 21.7377 15.8857 21.4802C15.5003 21.2227 15.1999 20.8566 15.0225 20.4284C14.8451 20.0001 14.7987 19.5288 14.8891 19.0742C14.9796 18.6196 15.2028 18.2019 15.5306 17.8742C15.8584 17.5464 16.276 17.3232 16.7306 17.2327C17.1853 17.1423 17.6565 17.1887 18.0848 17.3661C18.513 17.5435 18.8791 17.8439 19.1366 18.2293C19.3941 18.6148 19.5316 19.0679 19.5316 19.5314C19.5316 20.153 19.2847 20.7492 18.8451 21.1887C18.4056 21.6283 17.8095 21.8752 17.1879 21.8752Z" fill="#343330"/>
</svg>
